{"glyphs":{"0":{"ha":539,"x_min":0,"x_max":565,"o":"m 219 -18 q 93 11 144 -17 q 21 102 42 39 q 15 275 0 165 l 60 590 q 152 772 76 714 q 342 831 228 831 q 508 772 450 831 q 549 590 565 714 l 504 276 q 449 101 489 165 q 351 9 410 36 q 219 -18 293 -18 m 236 110 q 256 119 247 110 q 267 153 264 129 l 338 657 q 335 690 340 681 q 319 699 331 699 q 301 690 310 699 q 289 657 293 681 l 218 153 q 221 119 215 129 q 236 110 226 110 z "},"1":{"ha":414,"x_min":40,"x_max":446,"o":"m 108 0 l 188 563 l 40 563 l 58 688 l 72 689 q 173 727 132 696 q 251 821 214 758 l 446 821 l 329 0 l 108 0 z "},"2":{"ha":553,"x_min":-32,"x_max":581,"o":"m -32 0 q -19 88 -25 44 q -7 174 -12 131 q 27 301 4 254 q 92 377 50 347 q 203 438 135 407 q 259 465 231 451 q 309 503 288 479 q 336 569 331 528 l 339 593 q 342 646 343 624 q 322 668 340 668 q 292 640 300 668 q 276 554 285 611 l 269 506 l 49 506 l 65 624 q 151 774 81 724 q 347 824 221 824 q 497 801 444 824 q 565 726 549 778 q 568 586 581 674 q 540 472 558 518 q 488 392 521 425 q 401 331 456 358 q 347 302 372 315 q 300 277 321 289 q 263 250 279 265 q 238 219 249 236 q 222 178 228 201 l 510 178 l 485 0 l -32 0 z "},"3":{"ha":538,"x_min":-18,"x_max":575,"o":"m 215 -8 q 78 14 132 -8 q 3 81 25 36 q -10 192 -18 125 l 6 296 l 226 296 l 221 261 q 213 176 213 204 q 235 147 213 147 q 260 169 253 147 q 272 222 268 192 l 285 304 q 266 347 289 338 q 192 356 243 356 l 138 356 l 154 472 l 210 472 q 251 475 233 472 q 281 483 268 478 q 307 503 300 492 q 315 529 314 515 l 325 593 q 327 646 329 624 q 307 668 325 668 q 278 640 285 668 q 263 554 271 611 l 260 533 l 39 533 l 51 624 q 135 774 65 724 q 332 824 206 824 q 522 781 468 824 q 561 643 575 738 l 550 564 q 499 452 540 494 q 385 407 458 410 q 484 367 451 407 q 507 257 517 328 l 497 192 q 455 73 488 117 q 364 10 422 29 q 215 -8 306 -8 z "},"4":{"ha":567,"x_min":-22,"x_max":553,"o":"m 203 0 l 225 157 l -22 157 l 3 333 l 319 821 l 540 821 l 467 303 l 553 303 l 532 157 l 446 157 l 424 0 l 203 0 m 169 303 l 246 303 l 268 464 l 169 303 z "},"5":{"ha":544,"x_min":-12,"x_max":579,"o":"m 222 -11 q 72 6 125 -11 q 3 69 19 22 q 0 204 -12 115 l 13 296 l 233 296 l 224 222 q 223 161 217 175 q 243 147 229 147 q 265 161 257 147 q 281 222 274 175 l 301 371 q 303 397 303 385 q 299 417 303 410 q 282 425 294 425 q 256 413 265 425 q 244 379 247 401 l 24 379 l 86 821 l 579 821 l 557 667 l 282 667 l 261 518 q 301 552 272 533 q 396 571 331 571 q 518 538 488 571 q 538 426 549 504 l 504 192 q 462 71 494 115 q 371 8 429 26 q 222 -11 313 -11 z "},"6":{"ha":544,"x_min":-4,"x_max":571,"o":"m 218 -17 q 92 8 144 -17 q 18 84 40 32 q 7 217 -4 136 l 65 632 q 153 783 81 735 q 338 831 226 831 q 514 783 457 831 q 556 632 571 736 l 547 575 l 328 575 l 339 657 q 338 690 343 681 q 321 699 333 699 q 301 690 308 699 q 289 657 293 681 l 265 485 q 326 522 289 511 q 396 532 363 532 q 502 502 463 532 q 532 407 542 472 l 501 189 q 453 76 492 122 q 353 7 414 31 q 218 -17 293 -17 m 242 111 q 263 120 253 111 q 275 153 272 129 l 306 369 q 296 394 308 390 q 278 397 283 397 q 262 393 269 397 q 251 385 254 389 l 218 153 q 223 120 215 129 q 242 111 231 111 z "},"7":{"ha":486,"x_min":-19,"x_max":539,"o":"m -19 0 l 296 667 l 53 667 l 75 821 l 539 821 l 517 664 l 201 0 l -19 0 z "},"8":{"ha":532,"x_min":-12,"x_max":564,"o":"m 219 -11 q 85 12 138 -11 q 10 81 32 35 q -3 194 -12 126 l 4 244 q 19 319 10 286 q 50 376 29 353 q 104 412 68 396 q 199 431 140 428 q 118 436 140 428 q 76 463 96 444 q 56 529 54 486 q 64 614 58 572 l 69 650 q 104 749 78 711 q 186 806 131 788 q 336 824 242 824 q 481 806 431 824 q 548 749 532 788 q 556 650 564 711 l 550 614 q 528 526 543 565 q 481 463 514 488 q 383 431 447 439 q 466 410 439 429 q 501 362 493 390 q 507 301 510 333 q 500 242 504 269 l 493 192 q 453 90 486 136 q 363 17 421 44 q 219 -11 306 -11 m 232 113 q 258 124 251 113 q 267 153 265 136 l 286 290 q 288 323 289 310 q 264 336 286 336 q 237 319 242 336 q 229 289 232 301 l 210 153 q 211 124 208 136 q 232 113 214 113 m 286 500 q 308 511 297 500 q 324 556 319 522 l 335 635 q 338 687 339 665 q 317 708 336 708 q 289 685 296 708 q 278 638 282 663 l 267 558 q 268 511 261 522 q 286 500 275 500 z "},"9":{"ha":542,"x_min":-11,"x_max":564,"o":"m 221 -18 q 45 29 101 -18 q 3 181 -11 76 l 14 256 l 233 256 l 219 156 q 220 123 215 132 q 238 114 225 114 q 258 123 250 114 q 269 156 265 132 l 296 342 q 235 305 272 315 q 165 294 199 294 q 88 310 121 294 q 42 367 56 326 q 38 483 28 408 l 57 624 q 106 737 67 692 q 206 806 144 782 q 340 829 267 829 q 467 805 415 829 q 541 729 518 781 q 551 596 564 678 l 493 181 q 406 30 479 78 q 221 -18 332 -18 m 282 429 q 298 433 290 429 q 310 442 306 438 l 340 660 q 335 692 343 683 q 317 701 328 701 q 296 692 306 701 q 283 660 286 683 l 254 457 q 264 433 251 436 q 282 429 276 429 z "},"\r":{"ha":833,"x_min":0,"x_max":0,"o":""}," ":{"ha":208,"x_min":0,"x_max":0,"o":""}," ":{"ha":208,"x_min":0,"x_max":0,"o":""},"A":{"ha":574,"x_min":-51,"x_max":510,"o":"m -51 0 l 183 821 l 510 821 l 508 0 l 260 0 l 267 119 l 215 119 l 189 0 l -51 0 m 231 226 l 281 226 l 315 647 l 231 226 z "},"А":{"ha":574,"x_min":-51,"x_max":510,"o":"m -51 0 l 183 821 l 510 821 l 508 0 l 260 0 l 267 119 l 215 119 l 189 0 l -51 0 m 231 226 l 281 226 l 315 647 l 231 226 z "},"Æ":{"ha":806,"x_min":-51,"x_max":819,"o":"m -51 0 l 283 821 l 819 821 l 797 667 l 590 667 l 571 507 l 757 507 l 732 333 l 549 333 l 526 150 l 742 150 l 719 0 l 260 0 l 281 119 l 229 119 l 189 0 l -51 0 m 258 226 l 308 226 l 386 613 l 394 647 l 382 613 l 258 226 z "},"Á":{"ha":574,"x_min":-51,"x_max":567,"o":"m -51 0 l 183 821 l 510 821 l 508 0 l 260 0 l 267 119 l 215 119 l 189 0 l -51 0 m 231 226 l 281 226 l 315 647 l 231 226 m 249 882 l 375 1025 l 567 1025 l 367 882 l 249 882 z "},"Ă":{"ha":574,"x_min":-51,"x_max":557,"o":"m -51 0 l 183 821 l 510 821 l 508 0 l 260 0 l 267 119 l 215 119 l 189 0 l -51 0 m 231 226 l 281 226 l 315 647 l 231 226 m 358 876 q 271 892 303 876 q 225 931 239 907 q 209 980 211 954 q 210 1026 207 1006 l 324 1026 q 336 989 319 1001 q 375 976 353 976 q 417 988 399 976 q 442 1026 436 1000 l 557 1026 q 528 951 551 985 q 464 897 506 917 q 358 876 422 876 z "},"Ắ":{"ha":574,"x_min":-51,"x_max":556,"o":"m -51 0 l 183 821 l 510 821 l 508 0 l 260 0 l 267 119 l 215 119 l 189 0 l -51 0 m 231 226 l 281 226 l 315 647 l 231 226 m 358 879 q 269 899 296 879 q 240 947 243 919 q 239 997 236 975 l 350 997 q 354 981 344 988 q 374 975 364 975 q 394 981 383 975 q 406 997 404 986 l 518 997 q 473 911 513 943 q 358 879 433 879 m 292 1038 l 357 1150 l 556 1150 l 428 1038 l 292 1038 z "},"Ặ":{"ha":574,"x_min":-51,"x_max":557,"o":"m -51 0 l 183 821 l 510 821 l 508 0 l 260 0 l 267 119 l 215 119 l 189 0 l -51 0 m 231 226 l 281 226 l 315 647 l 231 226 m 211 -203 q 151 -180 175 -203 q 128 -124 128 -157 q 151 -68 128 -90 q 211 -46 175 -46 q 269 -68 246 -46 q 292 -124 292 -90 q 269 -180 292 -157 q 211 -203 246 -203 m 358 876 q 271 892 303 876 q 225 931 239 907 q 209 980 211 954 q 210 1026 207 1006 l 324 1026 q 336 989 319 1001 q 375 976 353 976 q 417 988 399 976 q 442 1026 436 1000 l 557 1026 q 528 951 551 985 q 464 897 506 917 q 358 876 422 876 z "},"Ằ":{"ha":574,"x_min":-51,"x_max":518,"o":"m -51 0 l 183 821 l 510 821 l 508 0 l 260 0 l 267 119 l 215 119 l 189 0 l -51 0 m 231 226 l 281 226 l 315 647 l 231 226 m 358 879 q 271 899 297 879 q 240 947 244 919 q 239 997 236 975 l 350 997 q 356 981 346 988 q 375 975 365 975 q 396 981 386 975 q 407 997 406 986 l 518 997 q 474 911 513 943 q 358 879 435 879 m 317 1038 l 213 1150 l 411 1150 l 453 1038 l 317 1038 z "},"Ẳ":{"ha":574,"x_min":-51,"x_max":518,"o":"m -51 0 l 183 821 l 510 821 l 508 0 l 260 0 l 267 119 l 215 119 l 189 0 l -51 0 m 231 226 l 281 226 l 315 647 l 231 226 m 358 879 q 269 899 296 879 q 240 947 243 919 q 239 997 236 975 l 350 997 q 354 981 344 988 q 374 975 364 975 q 394 981 383 975 q 406 997 404 986 l 518 997 q 473 911 513 943 q 358 879 433 879 m 325 1021 l 329 1046 q 340 1068 332 1061 q 356 1080 347 1075 q 365 1093 364 1085 l 369 1108 q 372 1113 371 1113 q 371 1114 372 1114 q 368 1097 368 1114 l 279 1110 q 390 1186 289 1186 q 468 1165 443 1186 q 493 1103 493 1144 l 493 1097 q 478 1066 486 1074 q 462 1058 469 1058 q 449 1055 454 1057 q 440 1039 443 1053 l 438 1021 l 325 1021 z "},"Ẵ":{"ha":574,"x_min":-51,"x_max":538,"o":"m -51 0 l 183 821 l 510 821 l 508 0 l 260 0 l 267 119 l 215 119 l 189 0 l -51 0 m 231 226 l 281 226 l 315 647 l 231 226 m 358 879 q 271 899 297 879 q 240 947 244 919 q 239 997 236 975 l 350 997 q 356 981 346 988 q 375 975 365 975 q 396 981 386 975 q 407 997 406 986 l 518 997 q 474 911 513 943 q 358 879 435 879 m 432 1028 q 397 1035 415 1028 q 364 1051 379 1043 q 344 1061 354 1057 q 318 1065 333 1065 q 297 1053 304 1065 q 288 1029 289 1040 l 236 1029 q 269 1122 243 1086 q 332 1157 296 1157 q 368 1152 351 1157 q 399 1140 385 1147 q 422 1130 410 1135 q 446 1125 435 1125 q 471 1136 464 1125 q 479 1154 478 1147 l 538 1154 q 494 1059 529 1090 q 432 1028 460 1028 z "},"Ǎ":{"ha":574,"x_min":-51,"x_max":582,"o":"m -51 0 l 183 821 l 510 821 l 508 0 l 260 0 l 267 119 l 215 119 l 189 0 l -51 0 m 231 226 l 281 226 l 315 647 l 231 226 m 303 878 l 185 1029 l 319 1029 l 376 969 l 450 1028 l 582 1028 l 418 878 l 303 878 z "},"Â":{"ha":574,"x_min":-51,"x_max":561,"o":"m -51 0 l 183 821 l 510 821 l 508 0 l 260 0 l 267 119 l 215 119 l 189 0 l -51 0 m 231 226 l 281 226 l 315 647 l 231 226 m 164 878 l 326 1029 l 442 1029 l 561 879 l 429 879 l 372 938 l 299 878 l 164 878 z "},"Ấ":{"ha":574,"x_min":-51,"x_max":772,"o":"m -51 0 l 183 821 l 510 821 l 508 0 l 260 0 l 267 119 l 215 119 l 189 0 l -51 0 m 231 226 l 281 226 l 315 647 l 231 226 m 203 868 l 324 997 l 433 997 l 519 868 l 399 868 l 369 913 l 326 868 l 203 868 m 508 944 l 575 1057 l 772 1057 l 644 944 l 508 944 z "},"Ậ":{"ha":574,"x_min":-51,"x_max":561,"o":"m -51 0 l 183 821 l 510 821 l 508 0 l 260 0 l 267 119 l 215 119 l 189 0 l -51 0 m 231 226 l 281 226 l 315 647 l 231 226 m 211 -203 q 151 -180 175 -203 q 128 -124 128 -157 q 151 -68 128 -90 q 211 -46 175 -46 q 269 -68 246 -46 q 292 -124 292 -90 q 269 -180 292 -157 q 211 -203 246 -203 m 164 878 l 326 1029 l 442 1029 l 561 879 l 429 879 l 372 938 l 299 878 l 164 878 z "},"Ầ":{"ha":574,"x_min":-51,"x_max":669,"o":"m -51 0 l 183 821 l 510 821 l 508 0 l 260 0 l 267 119 l 215 119 l 189 0 l -51 0 m 231 226 l 281 226 l 315 647 l 231 226 m 203 868 l 324 997 l 433 997 l 519 868 l 399 868 l 369 913 l 326 868 l 203 868 m 533 944 l 429 1057 l 628 1057 l 669 944 l 533 944 z "},"Ẩ":{"ha":574,"x_min":-51,"x_max":711,"o":"m -51 0 l 183 821 l 510 821 l 508 0 l 260 0 l 267 119 l 215 119 l 189 0 l -51 0 m 231 226 l 281 226 l 315 647 l 231 226 m 203 868 l 324 997 l 433 997 l 519 868 l 399 868 l 369 913 l 326 868 l 203 868 m 542 928 l 546 954 q 556 976 549 969 q 572 987 564 982 q 582 1000 581 992 l 586 1017 q 588 1021 588 1019 q 589 1022 589 1022 q 585 1006 585 1022 l 496 1018 q 530 1075 503 1057 q 607 1093 557 1093 q 685 1073 660 1093 q 703 1011 711 1053 l 701 1004 q 690 973 697 981 q 676 965 683 965 q 665 962 669 964 q 657 946 660 960 l 654 928 l 542 928 z "},"Ẫ":{"ha":574,"x_min":-51,"x_max":543,"o":"m -51 0 l 183 821 l 510 821 l 508 0 l 260 0 l 267 119 l 215 119 l 189 0 l -51 0 m 231 226 l 281 226 l 315 647 l 231 226 m 203 868 l 324 997 l 433 997 l 519 868 l 399 868 l 369 913 l 326 868 l 203 868 m 436 1018 q 401 1026 418 1018 q 371 1040 383 1035 q 346 1051 357 1047 q 322 1054 335 1054 q 302 1043 310 1054 q 293 1019 294 1032 l 242 1019 q 276 1114 249 1081 q 338 1147 303 1147 q 370 1142 354 1147 q 403 1131 386 1138 q 428 1119 417 1125 q 451 1114 440 1114 q 475 1124 468 1114 q 485 1143 482 1135 l 543 1143 q 519 1074 538 1101 q 477 1032 500 1046 q 436 1018 454 1018 z "},"Ä":{"ha":574,"x_min":-51,"x_max":553,"o":"m -51 0 l 183 821 l 510 821 l 508 0 l 260 0 l 267 119 l 215 119 l 189 0 l -51 0 m 231 226 l 281 226 l 315 647 l 231 226 m 279 882 q 219 905 243 882 q 196 961 196 928 q 219 1017 196 994 q 279 1039 243 1039 q 337 1017 314 1039 q 360 961 360 994 q 337 905 360 928 q 279 882 314 882 m 472 882 q 413 905 436 882 q 389 961 389 928 q 413 1017 389 994 q 472 1039 436 1039 q 530 1017 507 1039 q 553 961 553 994 q 530 905 553 928 q 472 882 507 882 z "},"Ạ":{"ha":574,"x_min":-51,"x_max":510,"o":"m -51 0 l 183 821 l 510 821 l 508 0 l 260 0 l 267 119 l 215 119 l 189 0 l -51 0 m 231 226 l 281 226 l 315 647 l 231 226 m 211 -203 q 151 -180 175 -203 q 128 -124 128 -157 q 151 -68 128 -90 q 211 -46 175 -46 q 269 -68 246 -46 q 292 -124 292 -90 q 269 -180 292 -157 q 211 -203 246 -203 z "},"À":{"ha":574,"x_min":-51,"x_max":510,"o":"m -51 0 l 183 821 l 510 821 l 508 0 l 260 0 l 267 119 l 215 119 l 189 0 l -51 0 m 231 226 l 281 226 l 315 647 l 231 226 m 325 882 l 160 1018 l 356 1018 l 457 882 l 325 882 z "},"Ả":{"ha":574,"x_min":-51,"x_max":510,"o":"m -51 0 l 183 821 l 510 821 l 508 0 l 260 0 l 267 119 l 215 119 l 189 0 l -51 0 m 231 226 l 281 226 l 315 647 l 231 226 m 304 854 l 308 888 q 324 917 311 908 q 351 933 338 926 q 367 956 364 940 l 369 972 q 370 988 372 982 q 358 994 368 994 q 339 967 343 994 l 247 981 q 288 1047 256 1025 q 378 1069 321 1069 q 470 1043 440 1069 q 489 967 500 1017 l 488 960 q 472 918 482 929 q 450 904 461 907 q 431 898 439 901 q 421 878 424 894 l 418 854 l 304 854 z "},"Ā":{"ha":574,"x_min":-51,"x_max":533,"o":"m -51 0 l 183 821 l 510 821 l 508 0 l 260 0 l 267 119 l 215 119 l 189 0 l -51 0 m 231 226 l 281 226 l 315 647 l 231 226 m 211 892 l 225 999 l 533 999 l 519 892 l 211 892 z "},"Ą":{"ha":574,"x_min":-51,"x_max":510,"o":"m -51 0 l 183 821 l 510 821 l 508 0 l 260 0 l 267 119 l 215 119 l 189 0 l -51 0 m 231 226 l 281 226 l 315 647 l 231 226 m 368 -210 q 278 -180 308 -210 q 253 -115 247 -150 q 297 -40 258 -76 q 394 3 336 -3 l 475 0 q 416 -35 436 -10 q 393 -85 396 -61 q 406 -124 390 -110 q 438 -137 421 -137 q 453 -135 447 -137 q 463 -133 460 -133 l 479 -185 q 446 -199 471 -189 q 368 -210 421 -210 z "},"Å":{"ha":574,"x_min":-51,"x_max":514,"o":"m -51 0 l 183 821 l 510 821 l 508 0 l 260 0 l 267 119 l 215 119 l 189 0 l -51 0 m 231 226 l 281 226 l 315 647 l 231 226 m 361 869 q 274 905 306 869 q 249 990 242 940 q 297 1078 256 1043 q 394 1114 339 1114 q 481 1078 447 1114 q 507 990 514 1042 q 457 905 500 940 q 361 869 414 869 m 372 951 q 405 963 390 951 q 421 990 419 974 q 413 1022 424 1010 q 383 1033 401 1033 q 351 1022 365 1033 q 335 990 338 1010 q 344 963 333 974 q 372 951 354 951 z "},"Ã":{"ha":574,"x_min":-51,"x_max":560,"o":"m -51 0 l 183 821 l 510 821 l 508 0 l 260 0 l 267 119 l 215 119 l 189 0 l -51 0 m 231 226 l 281 226 l 315 647 l 231 226 m 432 882 q 389 892 408 882 q 351 911 369 901 q 321 927 336 921 q 289 933 306 933 q 259 919 271 933 q 243 883 247 904 l 186 883 q 227 989 194 949 q 304 1029 260 1029 q 349 1022 329 1029 q 386 1004 368 1014 q 417 989 401 996 q 447 982 432 982 q 480 995 469 982 q 496 1025 490 1008 l 560 1025 q 509 918 550 954 q 432 882 468 882 z "},"B":{"ha":557,"x_min":-14,"x_max":578,"o":"m -14 0 l 101 821 l 424 821 q 544 781 510 821 q 569 681 578 742 l 557 592 q 538 527 551 557 q 499 476 524 497 q 460 453 482 463 q 415 442 439 444 l 414 439 q 452 433 433 439 q 490 413 471 428 q 523 362 513 394 q 526 281 533 329 l 513 174 q 474 70 503 108 q 398 16 444 32 q 289 0 351 0 l -14 0 m 224 113 l 251 113 q 268 119 261 113 q 281 141 275 125 q 290 186 286 157 l 303 274 q 304 333 310 319 q 283 346 299 346 l 257 346 l 224 113 m 276 483 l 299 483 q 323 499 311 483 q 342 567 335 515 l 353 640 q 353 690 358 676 q 332 704 347 704 l 307 704 l 276 483 z "},"Б":{"ha":543,"x_min":-14,"x_max":540,"o":"m -14 0 l 103 821 l 535 821 l 513 667 l 297 667 l 289 606 l 399 606 q 467 595 433 606 q 521 552 501 585 q 531 450 540 519 l 499 224 q 467 99 488 144 q 417 33 446 54 q 353 6 388 13 q 278 0 318 0 l -14 0 m 243 111 q 257 115 251 111 q 267 128 263 118 q 272 153 271 138 l 311 432 q 312 458 314 449 q 306 470 310 467 q 293 474 301 474 l 269 474 l 219 111 l 243 111 z "},"C":{"ha":550,"x_min":-1,"x_max":576,"o":"m 231 -17 q 100 1 154 -17 q 22 75 46 19 q 14 240 -1 131 l 71 646 q 118 756 81 715 q 215 815 156 797 q 350 833 275 833 q 478 815 426 833 q 553 756 529 797 q 567 646 576 715 l 540 454 l 319 454 l 347 657 q 348 683 350 674 q 342 695 346 692 q 331 699 338 699 q 318 695 324 699 q 309 683 313 692 q 303 657 306 674 l 232 153 q 232 128 231 138 q 238 115 233 118 q 249 111 242 111 q 260 115 256 111 q 270 128 265 118 q 276 153 275 138 l 304 344 l 525 344 l 510 242 q 458 75 494 131 q 364 1 421 19 q 231 -17 307 -17 z "},"Ć":{"ha":550,"x_min":-1,"x_max":576,"o":"m 231 -17 q 100 1 154 -17 q 22 75 46 19 q 14 240 -1 131 l 71 646 q 118 756 81 715 q 215 815 156 797 q 350 833 275 833 q 478 815 426 833 q 553 756 529 797 q 567 646 576 715 l 540 454 l 319 454 l 347 657 q 348 683 350 674 q 342 695 346 692 q 331 699 338 699 q 318 695 324 699 q 309 683 313 692 q 303 657 306 674 l 232 153 q 232 128 231 138 q 238 115 233 118 q 249 111 242 111 q 260 115 256 111 q 270 128 265 118 q 276 153 275 138 l 304 344 l 525 344 l 510 242 q 458 75 494 131 q 364 1 421 19 q 231 -17 307 -17 m 236 882 l 363 1025 l 554 1025 l 354 882 l 236 882 z "},"Č":{"ha":550,"x_min":-1,"x_max":576,"o":"m 231 -17 q 100 1 154 -17 q 22 75 46 19 q 14 240 -1 131 l 71 646 q 118 756 81 715 q 215 815 156 797 q 350 833 275 833 q 478 815 426 833 q 553 756 529 797 q 567 646 576 715 l 540 454 l 319 454 l 347 657 q 348 683 350 674 q 342 695 346 692 q 331 699 338 699 q 318 695 324 699 q 309 683 313 692 q 303 657 306 674 l 232 153 q 232 128 231 138 q 238 115 233 118 q 249 111 242 111 q 260 115 256 111 q 270 128 265 118 q 276 153 275 138 l 304 344 l 525 344 l 510 242 q 458 75 494 131 q 364 1 421 19 q 231 -17 307 -17 m 290 878 l 172 1029 l 307 1029 l 364 969 l 438 1028 l 569 1028 l 406 878 l 290 878 z "},"Ç":{"ha":550,"x_min":-1,"x_max":576,"o":"m 231 -17 q 100 1 154 -17 q 22 75 46 19 q 14 240 -1 131 l 71 646 q 118 756 81 715 q 215 815 156 797 q 350 833 275 833 q 478 815 426 833 q 553 756 529 797 q 567 646 576 715 l 540 454 l 319 454 l 347 657 q 348 683 350 674 q 342 695 346 692 q 331 699 338 699 q 318 695 324 699 q 309 683 313 692 q 303 657 306 674 l 232 153 q 232 128 231 138 q 238 115 233 118 q 249 111 242 111 q 260 115 256 111 q 270 128 265 118 q 276 153 275 138 l 304 344 l 525 344 l 510 242 q 458 75 494 131 q 364 1 421 19 q 231 -17 307 -17 m 183 -233 q 128 -222 153 -233 q 94 -204 103 -210 l 131 -139 q 153 -153 138 -146 q 185 -160 168 -160 q 214 -151 203 -160 q 226 -126 225 -142 q 206 -103 231 -103 q 192 -106 197 -103 q 183 -111 186 -108 l 132 -81 l 186 0 l 265 0 l 219 -65 l 211 -60 q 235 -50 221 -54 q 267 -46 249 -46 q 329 -72 311 -46 q 343 -131 347 -99 q 294 -203 338 -172 q 183 -233 251 -233 z "},"Ċ":{"ha":550,"x_min":-1,"x_max":576,"o":"m 231 -17 q 100 1 154 -17 q 22 75 46 19 q 14 240 -1 131 l 71 646 q 118 756 81 715 q 215 815 156 797 q 350 833 275 833 q 478 815 426 833 q 553 756 529 797 q 567 646 576 715 l 540 454 l 319 454 l 347 657 q 348 683 350 674 q 342 695 346 692 q 331 699 338 699 q 318 695 324 699 q 309 683 313 692 q 303 657 306 674 l 232 153 q 232 128 231 138 q 238 115 233 118 q 249 111 242 111 q 260 115 256 111 q 270 128 265 118 q 276 153 275 138 l 304 344 l 525 344 l 510 242 q 458 75 494 131 q 364 1 421 19 q 231 -17 307 -17 m 388 868 q 314 898 344 868 q 282 969 283 928 q 314 1042 282 1013 q 389 1072 346 1072 q 465 1042 433 1072 q 496 969 496 1013 q 465 898 497 928 q 388 868 432 868 z "},"Ч":{"ha":554,"x_min":29,"x_max":586,"o":"m 249 0 l 281 219 q 233 197 267 208 q 164 186 199 186 q 72 206 103 186 q 35 267 42 226 q 38 368 29 308 l 101 821 l 318 821 l 254 369 q 256 340 251 350 q 272 331 261 331 q 285 331 278 331 q 296 335 292 332 l 365 821 l 586 821 l 469 0 l 249 0 z "},"D":{"ha":558,"x_min":-14,"x_max":585,"o":"m -14 0 l 103 821 l 425 821 q 522 803 486 821 q 571 753 557 785 q 578 681 585 722 l 507 174 q 468 70 499 108 q 389 16 438 32 q 275 0 340 0 l -14 0 m 233 111 l 254 111 q 273 120 265 111 q 283 153 281 129 l 354 657 q 352 690 357 681 q 336 699 347 699 l 315 699 l 233 111 z "},"Ď":{"ha":558,"x_min":-14,"x_max":585,"o":"m -14 0 l 103 821 l 425 821 q 522 803 486 821 q 571 753 557 785 q 578 681 585 722 l 507 174 q 468 70 499 108 q 389 16 438 32 q 275 0 340 0 l -14 0 m 233 111 l 254 111 q 273 120 265 111 q 283 153 281 129 l 354 657 q 352 690 357 681 q 336 699 347 699 l 315 699 l 233 111 m 294 878 l 176 1029 l 311 1029 l 368 969 l 442 1028 l 574 1028 l 410 878 l 294 878 z "},"Đ":{"ha":631,"x_min":4,"x_max":640,"o":"m 11 0 l 128 821 l 481 821 q 577 803 542 821 q 626 753 613 785 q 633 681 640 722 l 563 174 q 524 70 554 108 q 444 16 493 32 q 331 0 396 0 l 11 0 m 4 342 l 22 465 l 340 465 l 322 342 l 4 342 m 258 111 l 293 111 q 326 120 317 111 q 339 153 336 129 l 410 657 q 406 690 413 681 q 375 699 399 699 l 340 699 l 258 111 z "},"Д":{"ha":847,"x_min":-68,"x_max":808,"o":"m -68 -165 l -25 139 l 54 139 q 106 174 78 142 q 144 246 133 207 q 175 357 158 293 q 209 491 192 421 q 242 627 226 561 q 267 744 257 693 q 282 821 278 796 l 753 821 l 657 139 l 808 139 l 765 -165 l 586 -165 l 603 -44 l 128 -44 l 111 -165 l -68 -165 m 308 139 l 440 139 l 514 667 l 465 667 l 374 269 q 347 190 364 229 q 308 139 331 150 z "},"Δ":{"ha":803,"x_min":-29,"x_max":718,"o":"m -29 0 l 350 813 l 572 813 l 718 0 l -29 0 m 244 164 l 476 164 l 415 556 l 244 164 z "},"Ђ":{"ha":667,"x_min":57,"x_max":658,"o":"m 81 0 l 175 667 l 57 667 l 79 821 l 536 821 l 514 667 l 396 667 l 374 507 q 428 546 389 528 q 517 564 468 564 q 585 553 551 564 q 639 510 619 543 q 649 408 658 478 l 621 214 q 589 91 610 135 q 540 28 568 47 q 476 4 511 8 q 401 0 442 0 q 356 6 382 0 q 319 19 331 13 l 333 114 q 350 112 340 113 q 367 111 360 111 q 385 120 378 111 q 396 153 393 129 l 429 390 q 426 423 432 414 q 399 432 419 432 q 376 428 385 432 q 361 418 368 425 l 301 0 l 81 0 z "},"Ѕ":{"ha":563,"x_min":-8,"x_max":588,"o":"m 243 -11 q 92 9 150 -11 q 13 83 35 29 q 4 235 -8 136 l 11 286 l 243 286 l 233 215 q 229 159 229 178 q 235 134 229 140 q 250 128 240 128 q 274 142 265 128 q 289 204 282 157 q 284 269 296 249 q 242 304 272 290 q 158 342 211 318 q 85 398 110 365 q 56 477 61 431 q 60 586 51 524 q 103 726 72 674 q 192 801 133 778 q 347 824 250 824 q 530 774 472 824 q 572 624 588 725 l 557 518 q 447 518 501 518 q 336 518 392 518 l 342 554 q 349 630 350 611 q 326 649 349 649 q 301 636 308 649 q 290 593 294 624 q 295 539 286 558 q 327 507 304 519 q 388 479 350 494 q 481 433 446 457 q 528 365 517 408 q 528 238 540 321 q 475 90 515 144 q 375 12 435 35 q 243 -11 315 -11 z "},"Џ":{"ha":585,"x_min":-14,"x_max":617,"o":"m 157 -137 l 175 0 l -14 0 l 101 821 l 332 821 l 239 154 l 293 154 l 386 821 l 617 821 l 501 0 l 313 0 l 294 -137 l 157 -137 z "},"E":{"ha":457,"x_min":-14,"x_max":500,"o":"m -14 0 l 103 821 l 500 821 l 478 667 l 311 667 l 289 507 l 442 507 l 417 333 l 264 333 l 239 150 l 406 150 l 383 0 l -14 0 z "},"É":{"ha":457,"x_min":-14,"x_max":510,"o":"m -14 0 l 103 821 l 500 821 l 478 667 l 311 667 l 289 507 l 442 507 l 417 333 l 264 333 l 239 150 l 406 150 l 383 0 l -14 0 m 192 882 l 318 1025 l 510 1025 l 310 882 l 192 882 z "},"Ě":{"ha":457,"x_min":-14,"x_max":525,"o":"m -14 0 l 103 821 l 500 821 l 478 667 l 311 667 l 289 507 l 442 507 l 417 333 l 264 333 l 239 150 l 406 150 l 383 0 l -14 0 m 246 878 l 128 1029 l 263 1029 l 319 969 l 393 1028 l 525 1028 l 361 878 l 246 878 z "},"Ê":{"ha":457,"x_min":-14,"x_max":504,"o":"m -14 0 l 103 821 l 500 821 l 478 667 l 311 667 l 289 507 l 442 507 l 417 333 l 264 333 l 239 150 l 406 150 l 383 0 l -14 0 m 107 878 l 269 1029 l 385 1029 l 504 879 l 372 879 l 315 938 l 242 878 l 107 878 z "},"Ế":{"ha":457,"x_min":-14,"x_max":715,"o":"m -14 0 l 103 821 l 500 821 l 478 667 l 311 667 l 289 507 l 442 507 l 417 333 l 264 333 l 239 150 l 406 150 l 383 0 l -14 0 m 146 868 l 267 997 l 376 997 l 463 868 l 342 868 l 313 913 l 269 868 l 146 868 m 451 944 l 518 1057 l 715 1057 l 588 944 l 451 944 z "},"Ệ":{"ha":457,"x_min":-14,"x_max":504,"o":"m -14 0 l 103 821 l 500 821 l 478 667 l 311 667 l 289 507 l 442 507 l 417 333 l 264 333 l 239 150 l 406 150 l 383 0 l -14 0 m 164 -203 q 104 -180 128 -203 q 81 -124 81 -157 q 104 -68 81 -90 q 164 -46 128 -46 q 222 -68 199 -46 q 244 -124 244 -90 q 222 -180 244 -157 q 164 -203 199 -203 m 107 878 l 269 1029 l 385 1029 l 504 879 l 372 879 l 315 938 l 242 878 l 107 878 z "},"Ề":{"ha":457,"x_min":-14,"x_max":613,"o":"m -14 0 l 103 821 l 500 821 l 478 667 l 311 667 l 289 507 l 442 507 l 417 333 l 264 333 l 239 150 l 406 150 l 383 0 l -14 0 m 146 868 l 267 997 l 376 997 l 463 868 l 342 868 l 313 913 l 269 868 l 146 868 m 476 944 l 372 1057 l 571 1057 l 613 944 l 476 944 z "},"Ể":{"ha":457,"x_min":-14,"x_max":654,"o":"m -14 0 l 103 821 l 500 821 l 478 667 l 311 667 l 289 507 l 442 507 l 417 333 l 264 333 l 239 150 l 406 150 l 383 0 l -14 0 m 146 868 l 267 997 l 376 997 l 463 868 l 342 868 l 313 913 l 269 868 l 146 868 m 485 928 l 489 954 q 499 976 492 969 q 515 987 507 982 q 525 1000 524 992 l 529 1017 q 531 1021 531 1019 q 532 1022 532 1022 q 528 1006 528 1022 l 439 1018 q 473 1075 446 1057 q 550 1093 500 1093 q 628 1073 603 1093 q 646 1011 654 1053 l 644 1004 q 633 973 640 981 q 619 965 626 965 q 608 962 613 964 q 600 946 603 960 l 597 928 l 485 928 z "},"Ễ":{"ha":457,"x_min":-14,"x_max":500,"o":"m -14 0 l 103 821 l 500 821 l 478 667 l 311 667 l 289 507 l 442 507 l 417 333 l 264 333 l 239 150 l 406 150 l 383 0 l -14 0 m 146 868 l 267 997 l 376 997 l 463 868 l 342 868 l 313 913 l 269 868 l 146 868 m 379 1018 q 344 1026 361 1018 q 314 1040 326 1035 q 289 1051 300 1047 q 265 1054 278 1054 q 245 1043 253 1054 q 236 1019 238 1032 l 185 1019 q 219 1114 192 1081 q 281 1147 246 1147 q 313 1142 297 1147 q 346 1131 329 1138 q 372 1119 360 1125 q 394 1114 383 1114 q 418 1124 411 1114 q 428 1143 425 1135 l 486 1143 q 462 1074 481 1101 q 420 1032 443 1046 q 379 1018 397 1018 z "},"Ë":{"ha":457,"x_min":-14,"x_max":500,"o":"m -14 0 l 103 821 l 500 821 l 478 667 l 311 667 l 289 507 l 442 507 l 417 333 l 264 333 l 239 150 l 406 150 l 383 0 l -14 0 m 222 882 q 163 905 186 882 q 139 961 139 928 q 163 1017 139 994 q 222 1039 186 1039 q 280 1017 257 1039 q 303 961 303 994 q 280 905 303 928 q 222 882 257 882 m 415 882 q 356 905 379 882 q 332 961 332 928 q 356 1017 332 994 q 415 1039 379 1039 q 473 1017 450 1039 q 496 961 496 994 q 473 905 496 928 q 415 882 450 882 z "},"Ė":{"ha":457,"x_min":-14,"x_max":500,"o":"m -14 0 l 103 821 l 500 821 l 478 667 l 311 667 l 289 507 l 442 507 l 417 333 l 264 333 l 239 150 l 406 150 l 383 0 l -14 0 m 343 868 q 269 898 300 868 q 238 969 239 928 q 269 1042 238 1013 q 344 1072 301 1072 q 420 1042 389 1072 q 451 969 451 1013 q 420 898 453 928 q 343 868 388 868 z "},"Ẹ":{"ha":457,"x_min":-14,"x_max":500,"o":"m -14 0 l 103 821 l 500 821 l 478 667 l 311 667 l 289 507 l 442 507 l 417 333 l 264 333 l 239 150 l 406 150 l 383 0 l -14 0 m 164 -203 q 104 -180 128 -203 q 81 -124 81 -157 q 104 -68 81 -90 q 164 -46 128 -46 q 222 -68 199 -46 q 244 -124 244 -90 q 222 -180 244 -157 q 164 -203 199 -203 z "},"Ф":{"ha":803,"x_min":4,"x_max":814,"o":"m 238 -54 l 260 106 l 201 106 q 54 143 104 106 q 18 279 4 181 l 58 558 q 113 660 67 621 q 251 699 160 699 l 343 699 l 360 821 l 576 821 l 560 699 l 651 699 q 778 660 743 699 q 806 558 814 621 l 765 279 q 692 143 751 181 q 535 106 632 106 l 476 106 l 454 -54 l 238 -54 m 254 217 l 275 217 l 326 576 l 306 576 q 287 567 294 576 q 275 535 279 558 l 236 258 q 238 226 233 235 q 254 217 243 217 m 513 217 q 531 226 524 217 q 542 258 539 235 l 581 535 q 580 567 585 558 q 564 576 575 576 l 543 576 l 492 217 l 513 217 z "},"È":{"ha":457,"x_min":-14,"x_max":500,"o":"m -14 0 l 103 821 l 500 821 l 478 667 l 311 667 l 289 507 l 442 507 l 417 333 l 264 333 l 239 150 l 406 150 l 383 0 l -14 0 m 268 882 l 103 1018 l 299 1018 l 400 882 l 268 882 z "},"Ẻ":{"ha":457,"x_min":-14,"x_max":500,"o":"m -14 0 l 103 821 l 500 821 l 478 667 l 311 667 l 289 507 l 442 507 l 417 333 l 264 333 l 239 150 l 406 150 l 383 0 l -14 0 m 247 854 l 251 888 q 267 917 254 908 q 294 933 281 926 q 310 956 307 940 l 313 972 q 313 988 315 982 q 301 994 311 994 q 282 967 286 994 l 190 981 q 231 1047 199 1025 q 321 1069 264 1069 q 413 1043 383 1069 q 432 967 443 1017 l 431 960 q 415 918 425 929 q 393 904 404 907 q 374 898 382 901 q 364 878 367 894 l 361 854 l 247 854 z "},"Л":{"ha":639,"x_min":-51,"x_max":671,"o":"m -51 0 l -35 110 q 19 144 -10 110 q 57 217 49 178 l 188 821 l 671 821 l 554 0 l 333 0 l 428 667 l 382 667 l 271 161 q 257 103 264 132 q 233 51 250 75 q 184 14 217 28 q 93 0 151 0 l -51 0 z "},"М":{"ha":751,"x_min":-14,"x_max":783,"o":"m -14 0 l 103 821 l 383 821 l 383 401 l 503 821 l 783 821 l 667 0 l 474 0 l 554 572 l 400 0 l 253 0 l 260 572 l 179 0 l -14 0 z "},"Ē":{"ha":457,"x_min":-14,"x_max":500,"o":"m -14 0 l 103 821 l 500 821 l 478 667 l 311 667 l 289 507 l 442 507 l 417 333 l 264 333 l 239 150 l 406 150 l 383 0 l -14 0 m 154 892 l 168 999 l 476 999 l 463 892 l 154 892 z "},"Н":{"ha":563,"x_min":-14,"x_max":594,"o":"m -14 0 l 103 821 l 324 821 l 278 503 l 328 503 l 374 821 l 594 821 l 478 0 l 257 0 l 306 340 l 256 340 l 207 0 l -14 0 z "},"Ŋ":{"ha":556,"x_min":-14,"x_max":588,"o":"m 211 -272 q 174 -272 200 -272 q 136 -271 147 -272 l 157 -121 l 197 -121 q 252 -108 238 -121 q 272 -54 267 -96 l 281 3 l 228 340 l 179 0 l -14 0 l 103 821 l 294 821 l 340 439 l 394 821 l 588 821 l 464 -50 q 422 -187 451 -139 q 342 -253 393 -235 q 211 -272 290 -272 z "},"Ę":{"ha":457,"x_min":-14,"x_max":500,"o":"m -14 0 l 103 821 l 500 821 l 478 667 l 311 667 l 289 507 l 442 507 l 417 333 l 264 333 l 239 150 l 406 150 l 383 0 l -14 0 m 258 -196 q 168 -166 199 -196 q 143 -101 138 -136 q 188 -26 149 -62 q 285 17 226 11 l 365 14 q 306 -22 326 4 q 283 -71 286 -47 q 296 -110 281 -96 q 328 -124 311 -124 q 344 -122 338 -124 q 353 -119 350 -119 l 369 -171 q 336 -185 361 -175 q 258 -196 311 -196 z "},"Р":{"ha":554,"x_min":-14,"x_max":588,"o":"m -14 0 l 103 821 l 425 821 q 552 781 517 821 q 578 681 588 742 l 560 544 q 529 430 551 483 q 467 344 507 376 q 364 311 428 311 l 261 311 l 217 0 l -14 0 m 278 431 l 294 431 q 322 460 310 431 q 343 567 333 490 l 344 581 q 355 676 354 649 q 338 704 356 704 l 317 704 l 278 431 z "},"Э":{"ha":544,"x_min":-8,"x_max":569,"o":"m 214 -17 q 87 1 139 -17 q 13 75 35 19 q 7 242 -8 131 l 11 268 l 232 268 l 217 157 q 215 132 214 142 q 222 119 217 122 q 232 115 226 115 q 245 119 240 115 q 254 132 250 122 q 261 157 258 142 l 283 319 l 122 319 l 143 465 l 304 465 l 331 651 q 332 677 333 668 q 326 690 331 686 q 314 693 322 693 q 303 690 308 693 q 293 677 297 686 q 286 651 289 668 l 268 522 l 47 522 l 64 646 q 108 756 74 715 q 201 815 143 797 q 333 833 258 833 q 464 815 410 833 q 544 756 518 797 q 560 646 569 715 l 503 240 q 448 75 488 131 q 349 1 408 19 q 214 -17 290 -17 z "},"С":{"ha":550,"x_min":-1,"x_max":576,"o":"m 231 -17 q 100 1 154 -17 q 22 75 46 19 q 14 240 -1 131 l 71 646 q 118 756 81 715 q 215 815 156 797 q 350 833 275 833 q 478 815 426 833 q 553 756 529 797 q 567 646 576 715 l 540 454 l 319 454 l 347 657 q 348 683 350 674 q 342 695 346 692 q 331 699 338 699 q 318 695 324 699 q 309 683 313 692 q 303 657 306 674 l 232 153 q 232 128 231 138 q 238 115 233 118 q 249 111 242 111 q 260 115 256 111 q 270 128 265 118 q 276 153 275 138 l 304 344 l 525 344 l 510 242 q 458 75 494 131 q 364 1 421 19 q 231 -17 307 -17 z "},"Ð":{"ha":631,"x_min":4,"x_max":640,"o":"m 11 0 l 128 821 l 481 821 q 577 803 542 821 q 626 753 613 785 q 633 681 640 722 l 563 174 q 524 70 554 108 q 444 16 493 32 q 331 0 396 0 l 11 0 m 4 342 l 22 465 l 340 465 l 322 342 l 4 342 m 258 111 l 293 111 q 326 120 317 111 q 339 153 336 129 l 410 657 q 406 690 413 681 q 375 699 399 699 l 340 699 l 258 111 z "},"Ẽ":{"ha":457,"x_min":-14,"x_max":503,"o":"m -14 0 l 103 821 l 500 821 l 478 667 l 311 667 l 289 507 l 442 507 l 417 333 l 264 333 l 239 150 l 406 150 l 383 0 l -14 0 m 375 882 q 332 892 351 882 q 294 911 313 901 q 264 927 279 921 q 232 933 249 933 q 202 919 214 933 q 186 883 190 904 l 129 883 q 170 989 138 949 q 247 1029 203 1029 q 292 1022 272 1029 q 329 1004 311 1014 q 360 989 344 996 q 390 982 375 982 q 423 995 413 982 q 439 1025 433 1008 l 503 1025 q 452 918 493 954 q 375 882 411 882 z "},"F":{"ha":454,"x_min":-14,"x_max":500,"o":"m -14 0 l 103 821 l 500 821 l 478 667 l 311 667 l 289 507 l 442 507 l 417 333 l 264 333 l 217 0 l -14 0 z "},"G":{"ha":549,"x_min":-4,"x_max":575,"o":"m 156 -14 q 74 2 113 -14 q 15 67 35 18 q 8 210 -4 115 l 69 643 q 115 753 79 713 q 209 813 151 794 q 340 831 267 831 q 468 813 414 831 q 549 753 522 794 q 565 643 575 713 l 547 518 l 333 518 l 353 657 q 353 683 356 674 q 344 695 350 692 q 328 699 338 699 q 312 695 319 699 q 299 683 304 692 q 292 657 294 674 l 221 153 q 222 128 219 138 q 231 115 224 118 q 246 111 238 111 q 269 120 260 111 q 282 153 279 129 l 304 308 l 269 308 l 286 432 l 535 432 l 475 0 l 308 0 l 304 53 q 304 53 304 53 q 304 53 304 53 q 256 9 290 32 q 156 -14 221 -14 z "},"Ğ":{"ha":549,"x_min":-4,"x_max":575,"o":"m 156 -14 q 74 2 113 -14 q 15 67 35 18 q 8 210 -4 115 l 69 643 q 115 753 79 713 q 209 813 151 794 q 340 831 267 831 q 468 813 414 831 q 549 753 522 794 q 565 643 575 713 l 547 518 l 333 518 l 353 657 q 353 683 356 674 q 344 695 350 692 q 328 699 338 699 q 312 695 319 699 q 299 683 304 692 q 292 657 294 674 l 221 153 q 222 128 219 138 q 231 115 224 118 q 246 111 238 111 q 269 120 260 111 q 282 153 279 129 l 304 308 l 269 308 l 286 432 l 535 432 l 475 0 l 308 0 l 304 53 q 304 53 304 53 q 304 53 304 53 q 256 9 290 32 q 156 -14 221 -14 m 346 876 q 258 892 290 876 q 213 931 226 907 q 197 980 199 954 q 197 1026 194 1006 l 311 1026 q 324 989 307 1001 q 363 976 340 976 q 405 988 386 976 q 429 1026 424 1000 l 544 1026 q 516 951 539 985 q 451 897 493 917 q 346 876 410 876 z "},"Ģ":{"ha":549,"x_min":-4,"x_max":575,"o":"m 156 -14 q 74 2 113 -14 q 15 67 35 18 q 8 210 -4 115 l 69 643 q 115 753 79 713 q 209 813 151 794 q 340 831 267 831 q 468 813 414 831 q 549 753 522 794 q 565 643 575 713 l 547 518 l 333 518 l 353 657 q 353 683 356 674 q 344 695 350 692 q 328 699 338 699 q 312 695 319 699 q 299 683 304 692 q 292 657 294 674 l 221 153 q 222 128 219 138 q 231 115 224 118 q 246 111 238 111 q 269 120 260 111 q 282 153 279 129 l 304 308 l 269 308 l 286 432 l 535 432 l 475 0 l 308 0 l 304 53 q 304 53 304 53 q 304 53 304 53 q 256 9 290 32 q 156 -14 221 -14 m 94 -297 q 139 -237 122 -264 q 157 -194 156 -211 q 148 -175 158 -183 q 128 -154 138 -167 q 122 -121 119 -142 q 152 -75 125 -96 q 218 -54 179 -54 q 281 -76 258 -54 q 300 -131 304 -97 q 278 -183 297 -151 q 232 -244 258 -214 q 181 -297 206 -275 l 94 -297 z "},"Ġ":{"ha":549,"x_min":-4,"x_max":575,"o":"m 156 -14 q 74 2 113 -14 q 15 67 35 18 q 8 210 -4 115 l 69 643 q 115 753 79 713 q 209 813 151 794 q 340 831 267 831 q 468 813 414 831 q 549 753 522 794 q 565 643 575 713 l 547 518 l 333 518 l 353 657 q 353 683 356 674 q 344 695 350 692 q 328 699 338 699 q 312 695 319 699 q 299 683 304 692 q 292 657 294 674 l 221 153 q 222 128 219 138 q 231 115 224 118 q 246 111 238 111 q 269 120 260 111 q 282 153 279 129 l 304 308 l 269 308 l 286 432 l 535 432 l 475 0 l 308 0 l 304 53 q 304 53 304 53 q 304 53 304 53 q 256 9 290 32 q 156 -14 221 -14 m 388 868 q 314 898 344 868 q 282 969 283 928 q 314 1042 282 1013 q 389 1072 346 1072 q 465 1042 433 1072 q 496 969 496 1013 q 465 898 497 928 q 388 868 432 868 z "},"Г":{"ha":456,"x_min":-14,"x_max":500,"o":"m -14 0 l 103 821 l 500 821 l 478 667 l 311 667 l 217 0 l -14 0 z "},"ẞ":{"ha":1131,"x_min":-10,"x_max":1139,"o":"m 774 -11 q 638 9 692 -11 q 563 83 585 29 q 556 235 542 136 q 558 261 556 242 q 563 286 561 281 l 794 286 q 790 251 793 271 q 785 215 788 231 q 780 159 779 178 q 786 134 781 140 q 801 128 792 128 q 825 142 817 128 q 840 204 833 157 q 835 269 847 249 q 793 304 824 290 q 710 342 763 318 q 637 398 661 365 q 608 477 613 431 q 611 586 603 524 q 654 726 624 674 q 743 801 685 778 q 899 824 801 824 q 1081 774 1024 824 q 1124 624 1139 725 l 1108 518 q 998 518 1053 518 q 888 518 943 518 l 893 554 q 901 630 901 611 q 878 649 900 649 q 853 636 860 649 q 842 593 846 624 q 849 532 836 553 q 887 501 863 511 q 939 479 911 490 q 1033 433 997 457 q 1080 365 1068 408 q 1079 238 1092 321 q 978 43 1060 97 q 774 -11 897 -11 m 222 -11 q 87 9 140 -11 q 12 83 33 29 q 4 235 -10 136 q 7 261 4 242 q 11 286 10 281 l 243 286 q 239 251 242 271 q 233 215 236 231 q 228 159 228 178 q 235 134 229 140 q 250 128 240 128 q 274 142 265 128 q 289 204 282 157 q 284 269 296 249 q 242 304 272 290 q 158 342 211 318 q 85 398 110 365 q 56 477 61 431 q 60 586 51 524 q 103 726 72 674 q 192 801 133 778 q 347 824 250 824 q 530 774 472 824 q 572 624 588 725 l 557 518 q 447 518 501 518 q 336 518 392 518 l 342 554 q 349 630 350 611 q 326 649 349 649 q 301 636 308 649 q 290 593 294 624 q 298 532 285 553 q 335 501 311 511 q 388 479 360 490 q 481 433 446 457 q 528 365 517 408 q 528 238 540 321 q 427 43 508 97 q 222 -11 346 -11 z "},"Ѓ":{"ha":456,"x_min":-14,"x_max":511,"o":"m -14 0 l 103 821 l 500 821 l 478 667 l 311 667 l 217 0 l -14 0 m 193 882 l 319 1025 l 511 1025 l 311 882 l 193 882 z "},"H":{"ha":563,"x_min":-14,"x_max":594,"o":"m -14 0 l 103 821 l 324 821 l 278 503 l 328 503 l 374 821 l 594 821 l 478 0 l 257 0 l 306 340 l 256 340 l 207 0 l -14 0 z "},"Х":{"ha":560,"x_min":-43,"x_max":621,"o":"m -43 0 l 131 426 l 76 821 l 297 821 l 315 606 l 386 821 l 621 821 l 458 426 l 501 0 l 281 0 l 263 214 l 192 0 l -43 0 z "},"Ъ":{"ha":590,"x_min":17,"x_max":571,"o":"m 17 0 l 111 667 l 43 667 l 65 821 l 350 821 l 319 606 l 429 606 q 498 595 464 606 q 551 552 532 585 q 561 450 571 519 l 529 224 q 497 99 518 144 q 447 33 476 54 q 383 6 418 13 q 308 0 349 0 l 17 0 m 250 111 l 275 111 q 290 118 285 111 q 301 150 296 125 q 314 231 307 175 q 326 317 318 265 q 338 404 333 369 q 342 447 342 432 q 339 467 343 461 q 324 474 335 474 l 300 474 q 276 292 289 386 q 250 111 263 199 z "},"Ħ":{"ha":561,"x_min":-14,"x_max":610,"o":"m 24 646 l 46 746 l 610 746 l 586 646 l 24 646 m -14 0 l 103 821 l 324 821 l 278 503 l 328 503 l 374 821 l 594 821 l 478 0 l 257 0 l 306 340 l 256 340 l 207 0 l -14 0 z "},"I":{"ha":292,"x_min":-14,"x_max":324,"o":"m -14 0 l 103 821 l 324 821 l 207 0 l -14 0 z "},"І":{"ha":292,"x_min":-14,"x_max":324,"o":"m -14 0 l 103 821 l 324 821 l 207 0 l -14 0 z "},"Я":{"ha":569,"x_min":-61,"x_max":600,"o":"m 486 0 l 256 0 l 301 329 l 297 329 q 289 322 293 329 q 280 302 285 315 q 269 269 275 289 l 185 0 l -61 0 l 50 283 q 91 355 69 333 q 163 386 113 376 l 164 389 q 69 447 90 397 q 56 556 47 496 l 75 681 q 128 781 82 742 q 267 821 175 821 l 600 821 l 486 0 m 324 482 l 354 704 l 328 704 q 300 691 310 704 q 286 640 290 678 l 272 550 q 275 497 267 513 q 301 482 283 482 l 324 482 z "},"Í":{"ha":292,"x_min":-14,"x_max":425,"o":"m -14 0 l 103 821 l 324 821 l 207 0 l -14 0 m 107 882 l 233 1025 l 425 1025 l 225 882 l 107 882 z "},"Ǐ":{"ha":292,"x_min":-14,"x_max":440,"o":"m -14 0 l 103 821 l 324 821 l 207 0 l -14 0 m 161 878 l 43 1029 l 178 1029 l 235 969 l 308 1028 l 440 1028 l 276 878 l 161 878 z "},"Î":{"ha":292,"x_min":-14,"x_max":419,"o":"m -14 0 l 103 821 l 324 821 l 207 0 l -14 0 m 22 878 l 185 1029 l 300 1029 l 419 879 l 288 879 l 231 938 l 157 878 l 22 878 z "},"Ï":{"ha":292,"x_min":-14,"x_max":411,"o":"m -14 0 l 103 821 l 324 821 l 207 0 l -14 0 m 138 882 q 78 905 101 882 q 54 961 54 928 q 78 1017 54 994 q 138 1039 101 1039 q 195 1017 172 1039 q 218 961 218 994 q 195 905 218 928 q 138 882 172 882 m 331 882 q 271 905 294 882 q 247 961 247 928 q 271 1017 247 994 q 331 1039 294 1039 q 388 1017 365 1039 q 411 961 411 994 q 388 905 411 928 q 331 882 365 882 z "},"İ":{"ha":292,"x_min":-14,"x_max":368,"o":"m -14 0 l 103 821 l 324 821 l 207 0 l -14 0 m 258 868 q 185 898 215 868 q 153 969 154 928 q 185 1042 153 1013 q 260 1072 217 1072 q 335 1042 304 1072 q 367 969 367 1013 q 335 898 368 928 q 258 868 303 868 z "},"Ị":{"ha":292,"x_min":-14,"x_max":324,"o":"m -14 0 l 103 821 l 324 821 l 207 0 l -14 0 m 81 -203 q 21 -180 44 -203 q -3 -124 -3 -157 q 21 -68 -3 -90 q 81 -46 44 -46 q 138 -68 115 -46 q 161 -124 161 -90 q 138 -180 161 -157 q 81 -203 115 -203 z "},"Е":{"ha":457,"x_min":-14,"x_max":500,"o":"m -14 0 l 103 821 l 500 821 l 478 667 l 311 667 l 289 507 l 442 507 l 417 333 l 264 333 l 239 150 l 406 150 l 383 0 l -14 0 z "},"Ѐ":{"ha":457,"x_min":-14,"x_max":500,"o":"m -14 0 l 103 821 l 500 821 l 478 667 l 311 667 l 289 507 l 442 507 l 417 333 l 264 333 l 239 150 l 406 150 l 383 0 l -14 0 m 267 882 l 101 1018 l 297 1018 l 399 882 l 267 882 z "},"Ì":{"ha":292,"x_min":-14,"x_max":324,"o":"m -14 0 l 103 821 l 324 821 l 207 0 l -14 0 m 183 882 l 18 1018 l 214 1018 l 315 882 l 183 882 z "},"Ỉ":{"ha":292,"x_min":-14,"x_max":358,"o":"m -14 0 l 103 821 l 324 821 l 207 0 l -14 0 m 163 854 l 167 888 q 183 917 169 908 q 209 933 196 926 q 225 956 222 940 l 228 972 q 228 988 231 982 q 217 994 226 994 q 197 967 201 994 l 106 981 q 147 1047 114 1025 q 236 1069 179 1069 q 328 1043 299 1069 q 347 967 358 1017 l 346 960 q 330 918 340 929 q 308 904 319 907 q 290 898 297 901 q 279 878 282 894 l 276 854 l 163 854 z "},"И":{"ha":556,"x_min":-14,"x_max":588,"o":"m -14 0 l 103 821 l 296 821 l 242 439 l 396 821 l 588 821 l 471 0 l 278 0 l 326 340 l 176 0 l -14 0 z "},"Ѝ":{"ha":556,"x_min":-14,"x_max":588,"o":"m -14 0 l 103 821 l 296 821 l 242 439 l 396 821 l 588 821 l 471 0 l 278 0 l 326 340 l 176 0 l -14 0 m 322 882 l 157 1018 l 353 1018 l 454 882 l 322 882 z "},"Й":{"ha":556,"x_min":-14,"x_max":588,"o":"m -14 0 l 103 821 l 296 821 l 242 439 l 396 821 l 588 821 l 471 0 l 278 0 l 326 340 l 176 0 l -14 0 m 356 876 q 268 892 300 876 q 222 931 236 907 q 206 980 208 954 q 207 1026 204 1006 l 321 1026 q 333 989 317 1001 q 372 976 350 976 q 415 988 396 976 q 439 1026 433 1000 l 554 1026 q 526 951 549 985 q 461 897 503 917 q 356 876 419 876 z "},"Ī":{"ha":292,"x_min":-14,"x_max":392,"o":"m -14 0 l 103 821 l 324 821 l 207 0 l -14 0 m 69 892 l 83 999 l 392 999 l 378 892 l 69 892 z "},"Ё":{"ha":457,"x_min":-14,"x_max":500,"o":"m -14 0 l 103 821 l 500 821 l 478 667 l 311 667 l 289 507 l 442 507 l 417 333 l 264 333 l 239 150 l 406 150 l 383 0 l -14 0 m 221 882 q 161 905 185 882 q 138 961 138 928 q 161 1017 138 994 q 221 1039 185 1039 q 278 1017 256 1039 q 301 961 301 994 q 278 905 301 928 q 221 882 256 882 m 414 882 q 354 905 378 882 q 331 961 331 928 q 354 1017 331 994 q 414 1039 378 1039 q 472 1017 449 1039 q 494 961 494 994 q 472 905 494 928 q 414 882 449 882 z "},"Į":{"ha":292,"x_min":-49,"x_max":324,"o":"m -14 0 l 103 821 l 324 821 l 207 0 l -14 0 m 72 -210 q -18 -180 13 -210 q -43 -115 -49 -150 q 1 -40 -37 -76 q 99 3 40 -3 l 179 0 q 120 -35 140 -10 q 97 -85 100 -61 q 110 -124 94 -110 q 142 -137 125 -137 q 158 -135 151 -137 q 167 -133 164 -133 l 183 -185 q 150 -199 175 -189 q 72 -210 125 -210 z "},"Ĩ":{"ha":292,"x_min":-14,"x_max":418,"o":"m -14 0 l 103 821 l 324 821 l 207 0 l -14 0 m 290 882 q 247 892 267 882 q 210 911 228 901 q 179 927 194 921 q 147 933 164 933 q 117 919 129 933 q 101 883 106 904 l 44 883 q 85 989 53 949 q 163 1029 118 1029 q 207 1022 188 1029 q 244 1004 226 1014 q 275 989 260 996 q 306 982 290 982 q 338 995 328 982 q 354 1025 349 1008 l 418 1025 q 367 918 408 954 q 290 882 326 882 z "},"Ю":{"ha":828,"x_min":-14,"x_max":853,"o":"m 507 -17 q 377 1 432 -17 q 299 75 322 19 q 290 240 275 131 l 304 340 l 254 340 l 207 0 l -14 0 l 101 821 l 322 821 l 278 503 l 328 503 l 347 646 q 394 756 357 715 q 492 815 432 797 q 626 833 551 833 q 754 815 703 833 q 829 756 806 797 q 843 646 853 715 l 786 242 q 734 75 771 131 q 640 1 697 19 q 507 -17 583 -17 m 525 111 q 537 115 532 111 q 547 128 542 118 q 553 153 551 138 l 624 657 q 624 683 626 674 q 618 695 622 692 q 607 699 614 699 q 594 695 600 699 q 585 683 589 692 q 579 657 582 674 l 508 153 q 508 128 507 138 q 513 115 508 118 q 525 111 518 111 z "},"J":{"ha":357,"x_min":-51,"x_max":389,"o":"m 24 -1 q -14 -1 13 -1 q -51 0 -40 -1 l -31 150 l 10 150 q 64 163 50 150 q 83 217 78 176 l 168 821 l 389 821 l 304 221 q 260 85 293 133 q 170 17 228 36 q 24 -1 113 -1 z "},"Ј":{"ha":357,"x_min":-51,"x_max":389,"o":"m 24 -1 q -14 -1 13 -1 q -51 0 -40 -1 l -31 150 l 10 150 q 64 163 50 150 q 83 217 78 176 l 168 821 l 389 821 l 304 221 q 260 85 293 133 q 170 17 228 36 q 24 -1 113 -1 z "},"K":{"ha":610,"x_min":-14,"x_max":668,"o":"m 317 0 l 264 425 l 433 821 l 668 821 l 479 426 l 554 0 l 317 0 m -14 0 l 103 821 l 324 821 l 207 0 l -14 0 z "},"К":{"ha":650,"x_min":-14,"x_max":708,"o":"m -14 0 l 103 821 l 324 821 l 275 478 l 328 478 l 474 821 l 708 821 l 519 426 l 594 0 l 357 0 l 315 333 l 254 333 l 207 0 l -14 0 z "},"Ķ":{"ha":610,"x_min":-14,"x_max":668,"o":"m 317 0 l 264 425 l 433 821 l 668 821 l 479 426 l 554 0 l 317 0 m -14 0 l 103 821 l 324 821 l 207 0 l -14 0 m 131 -297 q 175 -237 158 -264 q 193 -194 192 -211 q 184 -175 194 -183 q 165 -154 174 -167 q 158 -121 156 -142 q 188 -75 161 -96 q 254 -54 215 -54 q 317 -76 294 -54 q 336 -131 340 -97 q 314 -183 333 -151 q 268 -244 294 -214 q 217 -297 242 -275 l 131 -297 z "},"Ќ":{"ha":650,"x_min":-14,"x_max":708,"o":"m -14 0 l 103 821 l 324 821 l 275 478 l 328 478 l 474 821 l 708 821 l 519 426 l 594 0 l 357 0 l 315 333 l 254 333 l 207 0 l -14 0 m 299 882 l 425 1025 l 617 1025 l 417 882 l 299 882 z "},"L":{"ha":417,"x_min":-14,"x_max":378,"o":"m -14 0 l 103 821 l 321 821 l 226 150 l 378 150 l 356 0 l -14 0 z "},"Ĺ":{"ha":417,"x_min":-14,"x_max":474,"o":"m -14 0 l 103 821 l 321 821 l 226 150 l 378 150 l 356 0 l -14 0 m 156 882 l 282 1025 l 474 1025 l 274 882 l 156 882 z "},"Ľ":{"ha":522,"x_min":-14,"x_max":603,"o":"m -14 0 l 103 821 l 321 821 l 226 150 l 378 150 l 356 0 l -14 0 m 406 614 l 475 838 l 603 838 l 479 614 l 406 614 z "},"Ļ":{"ha":417,"x_min":-14,"x_max":378,"o":"m -14 0 l 103 821 l 321 821 l 226 150 l 378 150 l 356 0 l -14 0 m 28 -297 q 72 -237 56 -264 q 90 -194 89 -211 q 81 -175 92 -183 q 62 -154 71 -167 q 56 -121 53 -142 q 85 -75 58 -96 q 151 -54 113 -54 q 215 -76 192 -54 q 233 -131 238 -97 q 211 -183 231 -151 q 165 -244 192 -214 q 114 -297 139 -275 l 28 -297 z "},"Љ":{"ha":907,"x_min":-51,"x_max":888,"o":"m -51 0 l -35 110 q 19 144 -10 110 q 57 217 49 178 l 188 821 l 671 821 l 554 0 l 333 0 l 428 667 l 382 667 l 271 161 q 257 103 264 132 q 233 51 250 75 q 184 14 217 28 q 93 0 151 0 l -51 0 m 572 111 l 597 111 q 613 118 607 111 q 624 150 618 125 q 636 231 629 175 q 648 317 640 265 q 660 404 656 369 q 665 447 664 432 q 661 467 665 461 q 646 474 657 474 l 622 474 q 598 292 611 386 q 572 111 585 199 m 333 0 l 450 821 l 667 821 l 636 606 l 746 606 q 815 595 781 606 q 868 552 849 585 q 878 450 888 519 l 846 224 q 814 99 835 144 q 764 33 793 54 q 700 6 735 13 q 625 0 665 0 l 333 0 z "},"Ł":{"ha":490,"x_min":-11,"x_max":426,"o":"m 36 0 l 67 215 l -11 183 l 1 272 l 79 304 l 150 813 l 368 813 l 311 401 l 400 439 l 388 351 l 299 313 l 275 150 l 426 150 l 406 0 l 36 0 z "},"M":{"ha":751,"x_min":-14,"x_max":783,"o":"m -14 0 l 103 821 l 383 821 l 383 401 l 503 821 l 783 821 l 667 0 l 474 0 l 554 572 l 400 0 l 253 0 l 260 572 l 179 0 l -14 0 z "},"N":{"ha":556,"x_min":-14,"x_max":588,"o":"m -14 0 l 103 821 l 294 821 l 340 439 l 394 821 l 588 821 l 471 0 l 281 0 l 228 340 l 179 0 l -14 0 z "},"Ń":{"ha":556,"x_min":-14,"x_max":588,"o":"m -14 0 l 103 821 l 294 821 l 340 439 l 394 821 l 588 821 l 471 0 l 281 0 l 228 340 l 179 0 l -14 0 m 239 882 l 365 1025 l 557 1025 l 357 882 l 239 882 z "},"Ň":{"ha":556,"x_min":-14,"x_max":588,"o":"m -14 0 l 103 821 l 294 821 l 340 439 l 394 821 l 588 821 l 471 0 l 281 0 l 228 340 l 179 0 l -14 0 m 293 878 l 175 1029 l 310 1029 l 367 969 l 440 1028 l 572 1028 l 408 878 l 293 878 z "},"Ņ":{"ha":556,"x_min":-14,"x_max":588,"o":"m -14 0 l 103 821 l 294 821 l 340 439 l 394 821 l 588 821 l 471 0 l 281 0 l 228 340 l 179 0 l -14 0 m 97 -297 q 142 -237 125 -264 q 160 -194 158 -211 q 151 -175 161 -183 q 131 -154 140 -167 q 125 -121 122 -142 q 155 -75 128 -96 q 221 -54 182 -54 q 284 -76 261 -54 q 303 -131 307 -97 q 281 -183 300 -151 q 235 -244 261 -214 q 183 -297 208 -275 l 97 -297 z "},"Њ":{"ha":818,"x_min":-14,"x_max":815,"o":"m -14 0 l 103 821 l 324 821 l 278 503 l 328 503 l 374 821 l 594 821 l 564 606 l 674 606 q 742 595 708 606 q 796 552 776 585 q 806 450 815 519 l 774 224 q 742 99 763 144 q 692 33 721 54 q 628 6 663 13 q 553 0 593 0 l 257 0 l 306 340 l 256 340 l 207 0 l -14 0 m 494 113 l 519 113 q 535 119 529 113 q 545 149 540 125 q 557 225 550 174 l 576 364 q 585 438 583 414 q 583 467 588 461 q 568 474 579 474 l 544 474 l 494 113 z "},"Ñ":{"ha":556,"x_min":-14,"x_max":588,"o":"m -14 0 l 103 821 l 294 821 l 340 439 l 394 821 l 588 821 l 471 0 l 281 0 l 228 340 l 179 0 l -14 0 m 424 894 q 381 904 400 894 q 343 924 361 914 q 313 940 328 933 q 281 946 297 946 q 251 931 263 946 q 235 896 239 917 l 178 896 q 219 1001 186 961 q 296 1042 251 1042 q 340 1034 321 1042 q 378 1017 360 1026 q 408 1001 393 1008 q 439 994 424 994 q 472 1008 461 994 q 488 1038 482 1021 l 551 1038 q 501 931 542 967 q 424 894 460 894 z "},"O":{"ha":565,"x_min":-1,"x_max":590,"o":"m 231 -17 q 100 1 154 -17 q 22 75 46 19 q 14 240 -1 131 l 71 646 q 118 756 81 715 q 215 815 156 797 q 350 833 275 833 q 481 815 426 833 q 563 756 536 797 q 581 646 590 715 l 524 242 q 467 75 508 131 q 367 1 426 19 q 231 -17 307 -17 m 249 111 q 265 115 256 111 q 281 128 274 118 q 290 153 289 138 l 361 657 q 358 683 364 674 q 345 695 353 692 q 331 699 338 699 q 315 695 324 699 q 299 683 306 692 q 289 657 292 674 l 218 153 q 222 128 217 138 q 234 115 226 118 q 249 111 242 111 z "},"О":{"ha":565,"x_min":-1,"x_max":590,"o":"m 231 -17 q 100 1 154 -17 q 22 75 46 19 q 14 240 -1 131 l 71 646 q 118 756 81 715 q 215 815 156 797 q 350 833 275 833 q 481 815 426 833 q 563 756 536 797 q 581 646 590 715 l 524 242 q 467 75 508 131 q 367 1 426 19 q 231 -17 307 -17 m 249 111 q 265 115 256 111 q 281 128 274 118 q 290 153 289 138 l 361 657 q 358 683 364 674 q 345 695 353 692 q 331 699 338 699 q 315 695 324 699 q 299 683 306 692 q 289 657 292 674 l 218 153 q 222 128 217 138 q 234 115 226 118 q 249 111 242 111 z "},"Œ":{"ha":754,"x_min":-1,"x_max":797,"o":"m 224 -17 q 97 1 150 -17 q 22 75 44 19 q 14 240 -1 131 l 71 646 q 117 756 81 715 q 212 815 154 797 q 343 833 269 833 q 456 815 408 833 q 526 756 504 797 q 539 646 549 715 l 482 242 q 431 75 467 131 q 342 1 394 19 q 224 -17 289 -17 m 242 111 q 258 116 250 111 q 270 131 265 121 q 276 153 275 140 l 347 657 q 347 679 350 669 q 338 694 344 689 q 324 699 332 699 q 308 694 315 699 q 297 679 301 689 q 289 657 292 669 l 218 153 q 219 131 217 140 q 228 116 222 121 q 242 111 233 111 m 257 0 l 372 821 l 797 821 l 775 667 l 569 667 l 547 507 l 739 507 l 714 333 l 522 333 l 497 150 l 703 150 l 682 0 l 257 0 z "},"Ó":{"ha":565,"x_min":-1,"x_max":590,"o":"m 231 -17 q 100 1 154 -17 q 22 75 46 19 q 14 240 -1 131 l 71 646 q 118 756 81 715 q 215 815 156 797 q 350 833 275 833 q 481 815 426 833 q 563 756 536 797 q 581 646 590 715 l 524 242 q 467 75 508 131 q 367 1 426 19 q 231 -17 307 -17 m 249 111 q 265 115 256 111 q 281 128 274 118 q 290 153 289 138 l 361 657 q 358 683 364 674 q 345 695 353 692 q 331 699 338 699 q 315 695 324 699 q 299 683 306 692 q 289 657 292 674 l 218 153 q 222 128 217 138 q 234 115 226 118 q 249 111 242 111 m 244 882 l 371 1025 l 563 1025 l 363 882 l 244 882 z "},"Ǒ":{"ha":565,"x_min":-1,"x_max":590,"o":"m 231 -17 q 100 1 154 -17 q 22 75 46 19 q 14 240 -1 131 l 71 646 q 118 756 81 715 q 215 815 156 797 q 350 833 275 833 q 481 815 426 833 q 563 756 536 797 q 581 646 590 715 l 524 242 q 467 75 508 131 q 367 1 426 19 q 231 -17 307 -17 m 249 111 q 265 115 256 111 q 281 128 274 118 q 290 153 289 138 l 361 657 q 358 683 364 674 q 345 695 353 692 q 331 699 338 699 q 315 695 324 699 q 299 683 306 692 q 289 657 292 674 l 218 153 q 222 128 217 138 q 234 115 226 118 q 249 111 242 111 m 299 878 l 181 1029 l 315 1029 l 372 969 l 446 1028 l 578 1028 l 414 878 l 299 878 z "},"Ô":{"ha":565,"x_min":-1,"x_max":590,"o":"m 231 -17 q 100 1 154 -17 q 22 75 46 19 q 14 240 -1 131 l 71 646 q 118 756 81 715 q 215 815 156 797 q 350 833 275 833 q 481 815 426 833 q 563 756 536 797 q 581 646 590 715 l 524 242 q 467 75 508 131 q 367 1 426 19 q 231 -17 307 -17 m 249 111 q 265 115 256 111 q 281 128 274 118 q 290 153 289 138 l 361 657 q 358 683 364 674 q 345 695 353 692 q 331 699 338 699 q 315 695 324 699 q 299 683 306 692 q 289 657 292 674 l 218 153 q 222 128 217 138 q 234 115 226 118 q 249 111 242 111 m 160 878 l 322 1029 l 438 1029 l 557 879 l 425 879 l 368 938 l 294 878 l 160 878 z "},"Ố":{"ha":565,"x_min":-1,"x_max":768,"o":"m 231 -17 q 100 1 154 -17 q 22 75 46 19 q 14 240 -1 131 l 71 646 q 118 756 81 715 q 215 815 156 797 q 350 833 275 833 q 481 815 426 833 q 563 756 536 797 q 581 646 590 715 l 524 242 q 467 75 508 131 q 367 1 426 19 q 231 -17 307 -17 m 249 111 q 265 115 256 111 q 281 128 274 118 q 290 153 289 138 l 361 657 q 358 683 364 674 q 345 695 353 692 q 331 699 338 699 q 315 695 324 699 q 299 683 306 692 q 289 657 292 674 l 218 153 q 222 128 217 138 q 234 115 226 118 q 249 111 242 111 m 199 868 l 319 997 l 429 997 l 515 868 l 394 868 l 365 913 l 322 868 l 199 868 m 504 944 l 571 1057 l 768 1057 l 640 944 l 504 944 z "},"Ộ":{"ha":565,"x_min":-1,"x_max":590,"o":"m 231 -17 q 100 1 154 -17 q 22 75 46 19 q 14 240 -1 131 l 71 646 q 118 756 81 715 q 215 815 156 797 q 350 833 275 833 q 481 815 426 833 q 563 756 536 797 q 581 646 590 715 l 524 242 q 467 75 508 131 q 367 1 426 19 q 231 -17 307 -17 m 249 111 q 265 115 256 111 q 281 128 274 118 q 290 153 289 138 l 361 657 q 358 683 364 674 q 345 695 353 692 q 331 699 338 699 q 315 695 324 699 q 299 683 306 692 q 289 657 292 674 l 218 153 q 222 128 217 138 q 234 115 226 118 q 249 111 242 111 m 218 -203 q 158 -180 182 -203 q 135 -124 135 -157 q 158 -68 135 -90 q 218 -46 182 -46 q 276 -68 253 -46 q 299 -124 299 -90 q 276 -180 299 -157 q 218 -203 253 -203 m 160 878 l 322 1029 l 438 1029 l 557 879 l 425 879 l 368 938 l 294 878 l 160 878 z "},"Ồ":{"ha":565,"x_min":-1,"x_max":665,"o":"m 231 -17 q 100 1 154 -17 q 22 75 46 19 q 14 240 -1 131 l 71 646 q 118 756 81 715 q 215 815 156 797 q 350 833 275 833 q 481 815 426 833 q 563 756 536 797 q 581 646 590 715 l 524 242 q 467 75 508 131 q 367 1 426 19 q 231 -17 307 -17 m 249 111 q 265 115 256 111 q 281 128 274 118 q 290 153 289 138 l 361 657 q 358 683 364 674 q 345 695 353 692 q 331 699 338 699 q 315 695 324 699 q 299 683 306 692 q 289 657 292 674 l 218 153 q 222 128 217 138 q 234 115 226 118 q 249 111 242 111 m 199 868 l 319 997 l 429 997 l 515 868 l 394 868 l 365 913 l 322 868 l 199 868 m 529 944 l 425 1057 l 624 1057 l 665 944 l 529 944 z "},"Ổ":{"ha":565,"x_min":-1,"x_max":707,"o":"m 231 -17 q 100 1 154 -17 q 22 75 46 19 q 14 240 -1 131 l 71 646 q 118 756 81 715 q 215 815 156 797 q 350 833 275 833 q 481 815 426 833 q 563 756 536 797 q 581 646 590 715 l 524 242 q 467 75 508 131 q 367 1 426 19 q 231 -17 307 -17 m 249 111 q 265 115 256 111 q 281 128 274 118 q 290 153 289 138 l 361 657 q 358 683 364 674 q 345 695 353 692 q 331 699 338 699 q 315 695 324 699 q 299 683 306 692 q 289 657 292 674 l 218 153 q 222 128 217 138 q 234 115 226 118 q 249 111 242 111 m 199 868 l 319 997 l 429 997 l 515 868 l 394 868 l 365 913 l 322 868 l 199 868 m 538 928 l 542 954 q 552 976 544 969 q 568 987 560 982 q 578 1000 576 992 l 582 1017 q 584 1021 583 1019 q 585 1022 585 1022 q 581 1006 581 1022 l 492 1018 q 526 1075 499 1057 q 603 1093 553 1093 q 681 1073 656 1093 q 699 1011 707 1053 l 697 1004 q 686 973 693 981 q 672 965 679 965 q 660 962 665 964 q 653 946 656 960 l 650 928 l 538 928 z "},"Ỗ":{"ha":565,"x_min":-1,"x_max":590,"o":"m 231 -17 q 100 1 154 -17 q 22 75 46 19 q 14 240 -1 131 l 71 646 q 118 756 81 715 q 215 815 156 797 q 350 833 275 833 q 481 815 426 833 q 563 756 536 797 q 581 646 590 715 l 524 242 q 467 75 508 131 q 367 1 426 19 q 231 -17 307 -17 m 249 111 q 265 115 256 111 q 281 128 274 118 q 290 153 289 138 l 361 657 q 358 683 364 674 q 345 695 353 692 q 331 699 338 699 q 315 695 324 699 q 299 683 306 692 q 289 657 292 674 l 218 153 q 222 128 217 138 q 234 115 226 118 q 249 111 242 111 m 199 868 l 319 997 l 429 997 l 515 868 l 394 868 l 365 913 l 322 868 l 199 868 m 432 1018 q 397 1026 414 1018 q 367 1040 379 1035 q 342 1051 353 1047 q 318 1054 331 1054 q 298 1043 306 1054 q 289 1019 290 1032 l 238 1019 q 272 1114 244 1081 q 333 1147 299 1147 q 366 1142 350 1147 q 399 1131 382 1138 q 424 1119 413 1125 q 447 1114 436 1114 q 471 1124 464 1114 q 481 1143 478 1135 l 539 1143 q 515 1074 533 1101 q 473 1032 496 1046 q 432 1018 450 1018 z "},"Ö":{"ha":565,"x_min":-1,"x_max":590,"o":"m 231 -17 q 100 1 154 -17 q 22 75 46 19 q 14 240 -1 131 l 71 646 q 118 756 81 715 q 215 815 156 797 q 350 833 275 833 q 481 815 426 833 q 563 756 536 797 q 581 646 590 715 l 524 242 q 467 75 508 131 q 367 1 426 19 q 231 -17 307 -17 m 249 111 q 265 115 256 111 q 281 128 274 118 q 290 153 289 138 l 361 657 q 358 683 364 674 q 345 695 353 692 q 331 699 338 699 q 315 695 324 699 q 299 683 306 692 q 289 657 292 674 l 218 153 q 222 128 217 138 q 234 115 226 118 q 249 111 242 111 m 275 882 q 215 905 239 882 q 192 961 192 928 q 215 1017 192 994 q 275 1039 239 1039 q 333 1017 310 1039 q 356 961 356 994 q 333 905 356 928 q 275 882 310 882 m 468 882 q 408 905 432 882 q 385 961 385 928 q 408 1017 385 994 q 468 1039 432 1039 q 526 1017 503 1039 q 549 961 549 994 q 526 905 549 928 q 468 882 503 882 z "},"Ọ":{"ha":565,"x_min":-1,"x_max":590,"o":"m 231 -17 q 100 1 154 -17 q 22 75 46 19 q 14 240 -1 131 l 71 646 q 118 756 81 715 q 215 815 156 797 q 350 833 275 833 q 481 815 426 833 q 563 756 536 797 q 581 646 590 715 l 524 242 q 467 75 508 131 q 367 1 426 19 q 231 -17 307 -17 m 249 111 q 265 115 256 111 q 281 128 274 118 q 290 153 289 138 l 361 657 q 358 683 364 674 q 345 695 353 692 q 331 699 338 699 q 315 695 324 699 q 299 683 306 692 q 289 657 292 674 l 218 153 q 222 128 217 138 q 234 115 226 118 q 249 111 242 111 m 218 -203 q 158 -180 182 -203 q 135 -124 135 -157 q 158 -68 135 -90 q 218 -46 182 -46 q 276 -68 253 -46 q 299 -124 299 -90 q 276 -180 299 -157 q 218 -203 253 -203 z "},"Ò":{"ha":565,"x_min":-1,"x_max":590,"o":"m 231 -17 q 100 1 154 -17 q 22 75 46 19 q 14 240 -1 131 l 71 646 q 118 756 81 715 q 215 815 156 797 q 350 833 275 833 q 481 815 426 833 q 563 756 536 797 q 581 646 590 715 l 524 242 q 467 75 508 131 q 367 1 426 19 q 231 -17 307 -17 m 249 111 q 265 115 256 111 q 281 128 274 118 q 290 153 289 138 l 361 657 q 358 683 364 674 q 345 695 353 692 q 331 699 338 699 q 315 695 324 699 q 299 683 306 692 q 289 657 292 674 l 218 153 q 222 128 217 138 q 234 115 226 118 q 249 111 242 111 m 321 882 l 156 1018 l 351 1018 l 453 882 l 321 882 z "},"Ỏ":{"ha":565,"x_min":-1,"x_max":590,"o":"m 231 -17 q 100 1 154 -17 q 22 75 46 19 q 14 240 -1 131 l 71 646 q 118 756 81 715 q 215 815 156 797 q 350 833 275 833 q 481 815 426 833 q 563 756 536 797 q 581 646 590 715 l 524 242 q 467 75 508 131 q 367 1 426 19 q 231 -17 307 -17 m 249 111 q 265 115 256 111 q 281 128 274 118 q 290 153 289 138 l 361 657 q 358 683 364 674 q 345 695 353 692 q 331 699 338 699 q 315 695 324 699 q 299 683 306 692 q 289 657 292 674 l 218 153 q 222 128 217 138 q 234 115 226 118 q 249 111 242 111 m 300 854 l 304 888 q 320 917 307 908 q 347 933 333 926 q 363 956 360 940 l 365 972 q 366 988 368 982 q 354 994 364 994 q 335 967 339 994 l 243 981 q 284 1047 251 1025 q 374 1069 317 1069 q 466 1043 436 1069 q 485 967 496 1017 l 483 960 q 467 918 478 929 q 446 904 457 907 q 427 898 435 901 q 417 878 419 894 l 414 854 l 300 854 z "},"Ơ":{"ha":565,"x_min":-1,"x_max":644,"o":"m 231 -17 q 100 1 154 -17 q 22 75 46 19 q 14 240 -1 131 l 71 646 q 118 756 81 715 q 215 815 156 797 q 350 833 275 833 q 481 815 426 833 q 563 756 536 797 q 581 646 590 715 l 524 242 q 467 75 508 131 q 367 1 426 19 q 231 -17 307 -17 m 249 111 q 265 115 256 111 q 281 128 274 118 q 290 153 289 138 l 361 657 q 358 683 364 674 q 345 695 353 692 q 331 699 338 699 q 315 695 324 699 q 299 683 306 692 q 289 657 292 674 l 218 153 q 222 128 217 138 q 234 115 226 118 q 249 111 242 111 m 393 729 l 406 821 l 435 821 q 503 886 492 821 l 506 914 l 644 914 l 642 886 q 568 764 629 799 q 393 729 507 729 z "},"Ớ":{"ha":565,"x_min":-1,"x_max":644,"o":"m 231 -17 q 100 1 154 -17 q 22 75 46 19 q 14 240 -1 131 l 71 646 q 118 756 81 715 q 215 815 156 797 q 350 833 275 833 q 481 815 426 833 q 563 756 536 797 q 581 646 590 715 l 524 242 q 467 75 508 131 q 367 1 426 19 q 231 -17 307 -17 m 249 111 q 265 115 256 111 q 281 128 274 118 q 290 153 289 138 l 361 657 q 358 683 364 674 q 345 695 353 692 q 331 699 338 699 q 315 695 324 699 q 299 683 306 692 q 289 657 292 674 l 218 153 q 222 128 217 138 q 234 115 226 118 q 249 111 242 111 m 393 729 l 406 821 l 435 821 q 503 886 492 821 l 506 914 l 644 914 l 642 886 q 568 764 629 799 q 393 729 507 729 m 244 882 l 371 1025 l 563 1025 l 363 882 l 244 882 z "},"Ợ":{"ha":565,"x_min":-1,"x_max":644,"o":"m 231 -17 q 100 1 154 -17 q 22 75 46 19 q 14 240 -1 131 l 71 646 q 118 756 81 715 q 215 815 156 797 q 350 833 275 833 q 481 815 426 833 q 563 756 536 797 q 581 646 590 715 l 524 242 q 467 75 508 131 q 367 1 426 19 q 231 -17 307 -17 m 249 111 q 265 115 256 111 q 281 128 274 118 q 290 153 289 138 l 361 657 q 358 683 364 674 q 345 695 353 692 q 331 699 338 699 q 315 695 324 699 q 299 683 306 692 q 289 657 292 674 l 218 153 q 222 128 217 138 q 234 115 226 118 q 249 111 242 111 m 393 729 l 406 821 l 435 821 q 503 886 492 821 l 506 914 l 644 914 l 642 886 q 568 764 629 799 q 393 729 507 729 m 218 -203 q 158 -180 182 -203 q 135 -124 135 -157 q 158 -68 135 -90 q 218 -46 182 -46 q 276 -68 253 -46 q 299 -124 299 -90 q 276 -180 299 -157 q 218 -203 253 -203 z "},"Ờ":{"ha":565,"x_min":-1,"x_max":644,"o":"m 231 -17 q 100 1 154 -17 q 22 75 46 19 q 14 240 -1 131 l 71 646 q 118 756 81 715 q 215 815 156 797 q 350 833 275 833 q 481 815 426 833 q 563 756 536 797 q 581 646 590 715 l 524 242 q 467 75 508 131 q 367 1 426 19 q 231 -17 307 -17 m 249 111 q 265 115 256 111 q 281 128 274 118 q 290 153 289 138 l 361 657 q 358 683 364 674 q 345 695 353 692 q 331 699 338 699 q 315 695 324 699 q 299 683 306 692 q 289 657 292 674 l 218 153 q 222 128 217 138 q 234 115 226 118 q 249 111 242 111 m 393 729 l 406 821 l 435 821 q 503 886 492 821 l 506 914 l 644 914 l 642 886 q 568 764 629 799 q 393 729 507 729 m 321 882 l 156 1018 l 351 1018 l 453 882 l 321 882 z "},"Ở":{"ha":565,"x_min":-1,"x_max":644,"o":"m 231 -17 q 100 1 154 -17 q 22 75 46 19 q 14 240 -1 131 l 71 646 q 118 756 81 715 q 215 815 156 797 q 350 833 275 833 q 481 815 426 833 q 563 756 536 797 q 581 646 590 715 l 524 242 q 467 75 508 131 q 367 1 426 19 q 231 -17 307 -17 m 249 111 q 265 115 256 111 q 281 128 274 118 q 290 153 289 138 l 361 657 q 358 683 364 674 q 345 695 353 692 q 331 699 338 699 q 315 695 324 699 q 299 683 306 692 q 289 657 292 674 l 218 153 q 222 128 217 138 q 234 115 226 118 q 249 111 242 111 m 393 729 l 406 821 l 435 821 q 503 886 492 821 l 506 914 l 644 914 l 642 886 q 568 764 629 799 q 393 729 507 729 m 300 854 l 304 888 q 320 917 307 908 q 347 933 333 926 q 363 956 360 940 l 365 972 q 366 988 368 982 q 354 994 364 994 q 335 967 339 994 l 243 981 q 284 1047 251 1025 q 374 1069 317 1069 q 466 1043 436 1069 q 485 967 496 1017 l 483 960 q 467 918 478 929 q 446 904 457 907 q 427 898 435 901 q 417 878 419 894 l 414 854 l 300 854 z "},"Ỡ":{"ha":565,"x_min":-1,"x_max":644,"o":"m 231 -17 q 100 1 154 -17 q 22 75 46 19 q 14 240 -1 131 l 71 646 q 118 756 81 715 q 215 815 156 797 q 350 833 275 833 q 481 815 426 833 q 563 756 536 797 q 581 646 590 715 l 524 242 q 467 75 508 131 q 367 1 426 19 q 231 -17 307 -17 m 249 111 q 265 115 256 111 q 281 128 274 118 q 290 153 289 138 l 361 657 q 358 683 364 674 q 345 695 353 692 q 331 699 338 699 q 315 695 324 699 q 299 683 306 692 q 289 657 292 674 l 218 153 q 222 128 217 138 q 234 115 226 118 q 249 111 242 111 m 393 729 l 406 821 l 435 821 q 503 886 492 821 l 506 914 l 644 914 l 642 886 q 568 764 629 799 q 393 729 507 729 m 428 882 q 385 892 404 882 q 347 911 365 901 q 317 927 332 921 q 285 933 301 933 q 255 919 267 933 q 239 883 243 904 l 182 883 q 223 989 190 949 q 300 1029 256 1029 q 344 1022 325 1029 q 382 1004 364 1014 q 413 989 397 996 q 443 982 428 982 q 476 995 465 982 q 492 1025 486 1008 l 556 1025 q 505 918 546 954 q 428 882 464 882 z "},"Ő":{"ha":565,"x_min":-1,"x_max":633,"o":"m 231 -17 q 100 1 154 -17 q 22 75 46 19 q 14 240 -1 131 l 71 646 q 118 756 81 715 q 215 815 156 797 q 350 833 275 833 q 481 815 426 833 q 563 756 536 797 q 581 646 590 715 l 524 242 q 467 75 508 131 q 367 1 426 19 q 231 -17 307 -17 m 249 111 q 265 115 256 111 q 281 128 274 118 q 290 153 289 138 l 361 657 q 358 683 364 674 q 345 695 353 692 q 331 699 338 699 q 315 695 324 699 q 299 683 306 692 q 289 657 292 674 l 218 153 q 222 128 217 138 q 234 115 226 118 q 249 111 242 111 m 260 875 l 288 1022 l 449 1022 l 342 875 l 260 875 m 417 875 l 472 1022 l 633 1022 l 513 875 l 417 875 z "},"Ō":{"ha":565,"x_min":-1,"x_max":590,"o":"m 231 -17 q 100 1 154 -17 q 22 75 46 19 q 14 240 -1 131 l 71 646 q 118 756 81 715 q 215 815 156 797 q 350 833 275 833 q 481 815 426 833 q 563 756 536 797 q 581 646 590 715 l 524 242 q 467 75 508 131 q 367 1 426 19 q 231 -17 307 -17 m 249 111 q 265 115 256 111 q 281 128 274 118 q 290 153 289 138 l 361 657 q 358 683 364 674 q 345 695 353 692 q 331 699 338 699 q 315 695 324 699 q 299 683 306 692 q 289 657 292 674 l 218 153 q 222 128 217 138 q 234 115 226 118 q 249 111 242 111 m 207 892 l 221 999 l 529 999 l 515 892 l 207 892 z "},"Ω":{"ha":833,"x_min":-6,"x_max":833,"o":"m -6 0 l 17 158 l 221 153 l 183 176 q 130 231 157 199 q 89 314 103 263 q 86 444 75 365 q 122 574 96 513 q 195 683 147 635 q 319 758 243 731 q 507 785 396 785 q 685 756 618 785 q 785 681 751 728 q 826 575 818 633 q 825 457 833 517 q 783 318 813 372 q 717 231 753 264 q 647 176 681 199 l 604 153 l 811 158 l 789 0 l 439 0 l 457 128 q 516 181 490 154 q 561 238 542 207 q 593 309 581 269 q 613 403 606 349 q 617 524 622 468 q 581 613 611 579 q 485 647 551 647 q 379 614 419 647 q 317 525 339 581 q 285 401 294 469 q 279 314 278 354 q 290 240 281 274 q 317 178 299 206 q 364 128 336 151 l 346 0 l -6 0 z "},"Ø":{"ha":571,"x_min":-32,"x_max":604,"o":"m -32 -21 l 511 821 l 604 821 l 60 -21 l -32 -21 m 228 -17 q 98 1 153 -17 q 19 75 43 19 q 11 240 -4 131 l 68 646 q 115 756 78 715 q 213 815 153 797 q 347 833 272 833 q 475 815 424 833 q 550 756 526 797 q 564 646 574 715 l 507 242 q 455 75 492 131 q 361 1 418 19 q 228 -17 304 -17 m 246 111 q 258 115 253 111 q 267 128 263 118 q 274 153 272 138 l 344 657 q 346 683 347 674 q 340 695 344 692 q 329 699 336 699 q 317 695 322 699 q 307 683 311 692 q 300 657 303 674 l 229 153 q 229 128 228 138 q 235 115 231 118 q 246 111 239 111 z "},"Õ":{"ha":565,"x_min":-1,"x_max":590,"o":"m 231 -17 q 100 1 154 -17 q 22 75 46 19 q 14 240 -1 131 l 71 646 q 118 756 81 715 q 215 815 156 797 q 350 833 275 833 q 481 815 426 833 q 563 756 536 797 q 581 646 590 715 l 524 242 q 467 75 508 131 q 367 1 426 19 q 231 -17 307 -17 m 249 111 q 265 115 256 111 q 281 128 274 118 q 290 153 289 138 l 361 657 q 358 683 364 674 q 345 695 353 692 q 331 699 338 699 q 315 695 324 699 q 299 683 306 692 q 289 657 292 674 l 218 153 q 222 128 217 138 q 234 115 226 118 q 249 111 242 111 m 428 882 q 385 892 404 882 q 347 911 365 901 q 317 927 332 921 q 285 933 301 933 q 255 919 267 933 q 239 883 243 904 l 182 883 q 223 989 190 949 q 300 1029 256 1029 q 344 1022 325 1029 q 382 1004 364 1014 q 413 989 397 996 q 443 982 428 982 q 476 995 465 982 q 492 1025 486 1008 l 556 1025 q 505 918 546 954 q 428 882 464 882 z "},"P":{"ha":554,"x_min":-14,"x_max":588,"o":"m -14 0 l 103 821 l 425 821 q 552 781 517 821 q 578 681 588 742 l 560 544 q 529 430 551 483 q 467 344 507 376 q 364 311 428 311 l 261 311 l 217 0 l -14 0 m 278 431 l 294 431 q 322 460 310 431 q 343 567 333 490 l 344 581 q 355 676 354 649 q 338 704 356 704 l 317 704 l 278 431 z "},"П":{"ha":578,"x_min":-14,"x_max":610,"o":"m -14 0 l 103 821 l 610 821 l 493 0 l 263 0 l 357 667 l 311 667 l 217 0 l -14 0 z "},"Q":{"ha":564,"x_min":0,"x_max":588,"o":"m 318 -179 l 247 -11 q 238 -11 242 -11 q 228 -11 233 -11 q 101 7 154 -11 q 24 81 47 25 q 15 246 0 136 l 71 646 q 119 756 81 715 q 218 815 157 797 q 356 833 279 833 q 486 815 433 833 q 563 756 539 797 q 578 646 588 715 l 522 247 q 485 112 511 163 q 419 33 458 61 l 474 -94 l 318 -179 m 256 117 q 270 120 264 117 q 282 133 276 124 q 289 158 288 143 l 358 657 q 359 683 361 674 q 351 695 357 692 q 338 699 346 699 q 322 695 329 699 q 310 683 315 692 q 303 657 306 674 l 233 158 q 234 133 232 143 q 242 120 236 124 q 256 117 247 117 z "},"R":{"ha":589,"x_min":-14,"x_max":599,"o":"m -14 0 l 103 821 l 436 821 q 563 781 528 821 q 589 681 599 742 l 572 556 q 528 447 564 496 q 418 389 493 397 l 418 386 q 481 355 465 376 q 501 283 496 333 l 533 0 l 288 0 l 279 269 q 278 302 279 289 q 274 322 276 315 q 268 329 272 329 l 264 329 l 217 0 l -14 0 m 285 482 l 307 482 q 337 497 325 482 q 354 550 349 513 l 367 640 q 367 691 372 678 q 343 704 361 704 l 317 704 l 285 482 z "},"Ŕ":{"ha":589,"x_min":-14,"x_max":599,"o":"m -14 0 l 103 821 l 436 821 q 563 781 528 821 q 589 681 599 742 l 572 556 q 528 447 564 496 q 418 389 493 397 l 418 386 q 481 355 465 376 q 501 283 496 333 l 533 0 l 288 0 l 279 269 q 278 302 279 289 q 274 322 276 315 q 268 329 272 329 l 264 329 l 217 0 l -14 0 m 285 482 l 307 482 q 337 497 325 482 q 354 550 349 513 l 367 640 q 367 691 372 678 q 343 704 361 704 l 317 704 l 285 482 m 256 882 l 382 1025 l 574 1025 l 374 882 l 256 882 z "},"Ř":{"ha":589,"x_min":-14,"x_max":599,"o":"m -14 0 l 103 821 l 436 821 q 563 781 528 821 q 589 681 599 742 l 572 556 q 528 447 564 496 q 418 389 493 397 l 418 386 q 481 355 465 376 q 501 283 496 333 l 533 0 l 288 0 l 279 269 q 278 302 279 289 q 274 322 276 315 q 268 329 272 329 l 264 329 l 217 0 l -14 0 m 285 482 l 307 482 q 337 497 325 482 q 354 550 349 513 l 367 640 q 367 691 372 678 q 343 704 361 704 l 317 704 l 285 482 m 310 878 l 192 1029 l 326 1029 l 383 969 l 457 1028 l 589 1028 l 425 878 l 310 878 z "},"Ŗ":{"ha":589,"x_min":-14,"x_max":599,"o":"m -14 0 l 103 821 l 436 821 q 563 781 528 821 q 589 681 599 742 l 572 556 q 528 447 564 496 q 418 389 493 397 l 418 386 q 481 355 465 376 q 501 283 496 333 l 533 0 l 288 0 l 279 269 q 278 302 279 289 q 274 322 276 315 q 268 329 272 329 l 264 329 l 217 0 l -14 0 m 285 482 l 307 482 q 337 497 325 482 q 354 550 349 513 l 367 640 q 367 691 372 678 q 343 704 361 704 l 317 704 l 285 482 m 114 -297 q 158 -237 142 -264 q 176 -194 175 -211 q 167 -175 178 -183 q 148 -154 157 -167 q 142 -121 139 -142 q 172 -75 144 -96 q 238 -54 199 -54 q 301 -76 278 -54 q 319 -131 324 -97 q 297 -183 317 -151 q 251 -244 278 -214 q 200 -297 225 -275 l 114 -297 z "},"S":{"ha":563,"x_min":-8,"x_max":588,"o":"m 243 -11 q 92 9 150 -11 q 13 83 35 29 q 4 235 -8 136 l 11 286 l 243 286 l 233 215 q 229 159 229 178 q 235 134 229 140 q 250 128 240 128 q 274 142 265 128 q 289 204 282 157 q 284 269 296 249 q 242 304 272 290 q 158 342 211 318 q 85 398 110 365 q 56 477 61 431 q 60 586 51 524 q 103 726 72 674 q 192 801 133 778 q 347 824 250 824 q 530 774 472 824 q 572 624 588 725 l 557 518 q 447 518 501 518 q 336 518 392 518 l 342 554 q 349 630 350 611 q 326 649 349 649 q 301 636 308 649 q 290 593 294 624 q 295 539 286 558 q 327 507 304 519 q 388 479 350 494 q 481 433 446 457 q 528 365 517 408 q 528 238 540 321 q 475 90 515 144 q 375 12 435 35 q 243 -11 315 -11 z "},"Š":{"ha":563,"x_min":-8,"x_max":590,"o":"m 243 -11 q 92 9 150 -11 q 13 83 35 29 q 4 235 -8 136 l 11 286 l 243 286 l 233 215 q 229 159 229 178 q 235 134 229 140 q 250 128 240 128 q 274 142 265 128 q 289 204 282 157 q 284 269 296 249 q 242 304 272 290 q 158 342 211 318 q 85 398 110 365 q 56 477 61 431 q 60 586 51 524 q 103 726 72 674 q 192 801 133 778 q 347 824 250 824 q 530 774 472 824 q 572 624 588 725 l 557 518 q 447 518 501 518 q 336 518 392 518 l 342 554 q 349 630 350 611 q 326 649 349 649 q 301 636 308 649 q 290 593 294 624 q 295 539 286 558 q 327 507 304 519 q 388 479 350 494 q 481 433 446 457 q 528 365 517 408 q 528 238 540 321 q 475 90 515 144 q 375 12 435 35 q 243 -11 315 -11 m 311 878 l 193 1029 l 328 1029 l 385 969 l 458 1028 l 590 1028 l 426 878 l 311 878 z "},"Ş":{"ha":563,"x_min":-8,"x_max":588,"o":"m 243 -11 q 92 9 150 -11 q 13 83 35 29 q 4 235 -8 136 l 11 286 l 243 286 l 233 215 q 229 159 229 178 q 235 134 229 140 q 250 128 240 128 q 274 142 265 128 q 289 204 282 157 q 284 269 296 249 q 242 304 272 290 q 158 342 211 318 q 85 398 110 365 q 56 477 61 431 q 60 586 51 524 q 103 726 72 674 q 192 801 133 778 q 347 824 250 824 q 530 774 472 824 q 572 624 588 725 l 557 518 q 447 518 501 518 q 336 518 392 518 l 342 554 q 349 630 350 611 q 326 649 349 649 q 301 636 308 649 q 290 593 294 624 q 295 539 286 558 q 327 507 304 519 q 388 479 350 494 q 481 433 446 457 q 528 365 517 408 q 528 238 540 321 q 475 90 515 144 q 375 12 435 35 q 243 -11 315 -11 m 190 -233 q 135 -222 160 -233 q 101 -204 110 -210 l 138 -139 q 160 -153 144 -146 q 192 -160 175 -160 q 221 -151 210 -160 q 233 -126 232 -142 q 213 -103 238 -103 q 199 -106 204 -103 q 190 -111 193 -108 l 139 -81 l 193 0 l 272 0 l 226 -65 l 218 -60 q 242 -50 228 -54 q 274 -46 256 -46 q 336 -72 318 -46 q 350 -131 354 -99 q 301 -203 344 -172 q 190 -233 258 -233 z "},"Ș":{"ha":563,"x_min":-8,"x_max":588,"o":"m 243 -11 q 92 9 150 -11 q 13 83 35 29 q 4 235 -8 136 l 11 286 l 243 286 l 233 215 q 229 159 229 178 q 235 134 229 140 q 250 128 240 128 q 274 142 265 128 q 289 204 282 157 q 284 269 296 249 q 242 304 272 290 q 158 342 211 318 q 85 398 110 365 q 56 477 61 431 q 60 586 51 524 q 103 726 72 674 q 192 801 133 778 q 347 824 250 824 q 530 774 472 824 q 572 624 588 725 l 557 518 q 447 518 501 518 q 336 518 392 518 l 342 554 q 349 630 350 611 q 326 649 349 649 q 301 636 308 649 q 290 593 294 624 q 295 539 286 558 q 327 507 304 519 q 388 479 350 494 q 481 433 446 457 q 528 365 517 408 q 528 238 540 321 q 475 90 515 144 q 375 12 435 35 q 243 -11 315 -11 m 101 -297 q 146 -237 129 -264 q 164 -194 163 -211 q 155 -175 165 -183 q 135 -154 144 -167 q 129 -121 126 -142 q 159 -75 132 -96 q 225 -54 186 -54 q 288 -76 265 -54 q 307 -131 311 -97 q 285 -183 304 -151 q 239 -244 265 -214 q 188 -297 213 -275 l 101 -297 z "},"Ш":{"ha":871,"x_min":-14,"x_max":903,"o":"m -14 0 l 103 821 l 333 821 l 239 154 l 293 154 l 388 821 l 618 821 l 524 154 l 578 154 l 672 821 l 903 821 l 786 0 l -14 0 z "},"Щ":{"ha":976,"x_min":-14,"x_max":914,"o":"m 710 -137 l 728 0 l -14 0 l 101 821 l 332 821 l 239 154 l 293 154 l 386 821 l 617 821 l 524 154 l 578 154 l 671 821 l 901 821 l 800 96 l 914 96 l 882 -137 l 710 -137 z "},"Ь":{"ha":543,"x_min":-14,"x_max":540,"o":"m -14 0 l 103 821 l 319 821 l 289 606 l 399 606 q 467 595 433 606 q 521 552 501 585 q 531 450 540 519 l 499 224 q 467 99 488 144 q 417 33 446 54 q 353 6 388 13 q 278 0 318 0 l -14 0 m 219 111 l 243 111 q 265 123 258 111 q 275 165 271 135 l 311 433 q 313 458 314 449 q 306 470 311 467 q 293 474 301 474 l 269 474 l 219 111 z "},"T":{"ha":481,"x_min":57,"x_max":536,"o":"m 81 0 l 175 667 l 57 667 l 79 821 l 536 821 l 514 667 l 396 667 l 301 0 l 81 0 z "},"Ŧ":{"ha":471,"x_min":57,"x_max":536,"o":"m 76 475 l 99 585 l 433 585 l 411 475 l 76 475 m 81 0 l 175 667 l 57 667 l 79 821 l 536 821 l 514 667 l 396 667 l 301 0 l 81 0 z "},"Ť":{"ha":481,"x_min":57,"x_max":536,"o":"m 81 0 l 175 667 l 57 667 l 79 821 l 536 821 l 514 667 l 396 667 l 301 0 l 81 0 m 256 878 l 138 1029 l 272 1029 l 329 969 l 403 1028 l 535 1028 l 371 878 l 256 878 z "},"Ţ":{"ha":481,"x_min":57,"x_max":536,"o":"m 81 0 l 175 667 l 57 667 l 79 821 l 536 821 l 514 667 l 396 667 l 301 0 l 81 0 m 149 -233 q 93 -222 118 -233 q 60 -204 68 -210 l 96 -139 q 118 -153 103 -146 q 150 -160 133 -160 q 179 -151 168 -160 q 192 -126 190 -142 q 171 -103 196 -103 q 157 -106 163 -103 q 149 -111 151 -108 l 97 -81 l 151 0 l 231 0 l 185 -65 l 176 -60 q 200 -50 186 -54 q 232 -46 214 -46 q 294 -72 276 -46 q 308 -131 313 -99 q 260 -203 303 -172 q 149 -233 217 -233 z "},"Ț":{"ha":481,"x_min":57,"x_max":536,"o":"m 81 0 l 175 667 l 57 667 l 79 821 l 536 821 l 514 667 l 396 667 l 301 0 l 81 0 m 60 -297 q 104 -237 88 -264 q 122 -194 121 -211 q 113 -175 124 -183 q 94 -154 103 -167 q 88 -121 85 -142 q 117 -75 90 -96 q 183 -54 144 -54 q 247 -76 224 -54 q 265 -131 269 -97 q 243 -183 263 -151 q 197 -244 224 -214 q 146 -297 171 -275 l 60 -297 z "},"Т":{"ha":481,"x_min":57,"x_max":536,"o":"m 81 0 l 175 667 l 57 667 l 79 821 l 536 821 l 514 667 l 396 667 l 301 0 l 81 0 z "},"Þ":{"ha":565,"x_min":-24,"x_max":558,"o":"m -24 0 l 93 821 l 325 821 l 306 686 l 396 686 q 523 647 488 686 q 550 546 558 608 l 531 410 q 500 294 522 347 q 438 209 478 242 q 335 176 399 176 l 232 176 l 207 0 l -24 0 m 249 296 l 265 296 q 292 326 281 296 q 314 432 304 356 l 317 446 q 327 542 326 515 q 308 569 328 569 l 288 569 l 249 296 z "},"Ц":{"ha":682,"x_min":-14,"x_max":629,"o":"m 425 -137 l 443 0 l -14 0 l 101 821 l 332 821 l 239 154 l 293 154 l 386 821 l 617 821 l 515 96 l 629 96 l 597 -137 l 425 -137 z "},"Ћ":{"ha":642,"x_min":57,"x_max":633,"o":"m 81 0 l 175 667 l 57 667 l 79 821 l 536 821 l 514 667 l 396 667 l 382 568 q 428 590 394 579 q 497 601 463 601 q 589 581 558 601 q 626 521 619 561 q 625 419 633 481 l 565 0 l 349 0 l 408 418 q 408 440 410 432 q 403 453 407 449 q 390 457 399 457 q 378 456 385 457 q 365 453 371 456 l 301 0 l 81 0 z "},"U":{"ha":558,"x_min":7,"x_max":590,"o":"m 229 -17 q 130 -9 174 -17 q 57 22 86 -1 q 17 94 28 46 q 18 226 7 143 l 101 821 l 322 821 l 229 160 q 229 135 228 144 q 235 122 231 125 q 247 118 240 118 q 260 122 254 118 q 270 135 265 125 q 276 160 275 144 l 369 821 l 590 821 l 507 228 q 472 95 496 144 q 412 22 447 46 q 331 -9 376 -1 q 229 -17 285 -17 z "},"У":{"ha":544,"x_min":-33,"x_max":603,"o":"m 131 -28 q 38 -21 83 -28 q -33 -7 -8 -14 l -18 104 q 8 98 -7 100 q 36 96 22 96 q 81 101 58 96 q 107 138 103 107 q 108 165 110 151 q 104 200 106 178 l 69 821 l 293 821 l 276 344 l 279 344 l 397 821 l 603 821 l 399 219 q 292 28 353 85 q 131 -28 231 -28 z "},"Ú":{"ha":558,"x_min":7,"x_max":590,"o":"m 229 -17 q 130 -9 174 -17 q 57 22 86 -1 q 17 94 28 46 q 18 226 7 143 l 101 821 l 322 821 l 229 160 q 229 135 228 144 q 235 122 231 125 q 247 118 240 118 q 260 122 254 118 q 270 135 265 125 q 276 160 275 144 l 369 821 l 590 821 l 507 228 q 472 95 496 144 q 412 22 447 46 q 331 -9 376 -1 q 229 -17 285 -17 m 240 882 l 367 1025 l 558 1025 l 358 882 l 240 882 z "},"Ǔ":{"ha":558,"x_min":7,"x_max":590,"o":"m 229 -17 q 130 -9 174 -17 q 57 22 86 -1 q 17 94 28 46 q 18 226 7 143 l 101 821 l 322 821 l 229 160 q 229 135 228 144 q 235 122 231 125 q 247 118 240 118 q 260 122 254 118 q 270 135 265 125 q 276 160 275 144 l 369 821 l 590 821 l 507 228 q 472 95 496 144 q 412 22 447 46 q 331 -9 376 -1 q 229 -17 285 -17 m 294 878 l 176 1029 l 311 1029 l 368 969 l 442 1028 l 574 1028 l 410 878 l 294 878 z "},"Û":{"ha":558,"x_min":7,"x_max":590,"o":"m 229 -17 q 130 -9 174 -17 q 57 22 86 -1 q 17 94 28 46 q 18 226 7 143 l 101 821 l 322 821 l 229 160 q 229 135 228 144 q 235 122 231 125 q 247 118 240 118 q 260 122 254 118 q 270 135 265 125 q 276 160 275 144 l 369 821 l 590 821 l 507 228 q 472 95 496 144 q 412 22 447 46 q 331 -9 376 -1 q 229 -17 285 -17 m 156 878 l 318 1029 l 433 1029 l 553 879 l 421 879 l 364 938 l 290 878 l 156 878 z "},"Ü":{"ha":558,"x_min":7,"x_max":590,"o":"m 229 -17 q 130 -9 174 -17 q 57 22 86 -1 q 17 94 28 46 q 18 226 7 143 l 101 821 l 322 821 l 229 160 q 229 135 228 144 q 235 122 231 125 q 247 118 240 118 q 260 122 254 118 q 270 135 265 125 q 276 160 275 144 l 369 821 l 590 821 l 507 228 q 472 95 496 144 q 412 22 447 46 q 331 -9 376 -1 q 229 -17 285 -17 m 271 882 q 211 905 235 882 q 188 961 188 928 q 211 1017 188 994 q 271 1039 235 1039 q 328 1017 306 1039 q 351 961 351 994 q 328 905 351 928 q 271 882 306 882 m 464 882 q 404 905 428 882 q 381 961 381 928 q 404 1017 381 994 q 464 1039 428 1039 q 522 1017 499 1039 q 544 961 544 994 q 522 905 544 928 q 464 882 499 882 z "},"Ǘ":{"ha":558,"x_min":7,"x_max":597,"o":"m 229 -17 q 130 -9 174 -17 q 57 22 86 -1 q 17 94 28 46 q 18 226 7 143 l 101 821 l 322 821 l 229 160 q 229 135 228 144 q 235 122 231 125 q 247 118 240 118 q 260 122 254 118 q 270 135 265 125 q 276 160 275 144 l 369 821 l 590 821 l 507 228 q 472 95 496 144 q 412 22 447 46 q 331 -9 376 -1 q 229 -17 285 -17 m 271 882 q 211 905 235 882 q 188 961 188 928 q 211 1017 188 994 q 271 1039 235 1039 q 328 1017 306 1039 q 351 961 351 994 q 328 905 351 928 q 271 882 306 882 m 464 882 q 404 905 428 882 q 381 961 381 928 q 404 1017 381 994 q 464 1039 428 1039 q 522 1017 499 1039 q 544 961 544 994 q 522 905 544 928 q 464 882 499 882 m 279 1061 l 406 1204 l 597 1204 l 397 1061 l 279 1061 z "},"Ǚ":{"ha":558,"x_min":7,"x_max":613,"o":"m 229 -17 q 130 -9 174 -17 q 57 22 86 -1 q 17 94 28 46 q 18 226 7 143 l 101 821 l 322 821 l 229 160 q 229 135 228 144 q 235 122 231 125 q 247 118 240 118 q 260 122 254 118 q 270 135 265 125 q 276 160 275 144 l 369 821 l 590 821 l 507 228 q 472 95 496 144 q 412 22 447 46 q 331 -9 376 -1 q 229 -17 285 -17 m 271 882 q 211 905 235 882 q 188 961 188 928 q 211 1017 188 994 q 271 1039 235 1039 q 328 1017 306 1039 q 351 961 351 994 q 328 905 351 928 q 271 882 306 882 m 464 882 q 404 905 428 882 q 381 961 381 928 q 404 1017 381 994 q 464 1039 428 1039 q 522 1017 499 1039 q 544 961 544 994 q 522 905 544 928 q 464 882 499 882 m 333 1057 l 215 1208 l 350 1208 l 407 1149 l 481 1207 l 613 1207 l 449 1057 l 333 1057 z "},"Ǜ":{"ha":558,"x_min":7,"x_max":590,"o":"m 229 -17 q 130 -9 174 -17 q 57 22 86 -1 q 17 94 28 46 q 18 226 7 143 l 101 821 l 322 821 l 229 160 q 229 135 228 144 q 235 122 231 125 q 247 118 240 118 q 260 122 254 118 q 270 135 265 125 q 276 160 275 144 l 369 821 l 590 821 l 507 228 q 472 95 496 144 q 412 22 447 46 q 331 -9 376 -1 q 229 -17 285 -17 m 271 882 q 211 905 235 882 q 188 961 188 928 q 211 1017 188 994 q 271 1039 235 1039 q 328 1017 306 1039 q 351 961 351 994 q 328 905 351 928 q 271 882 306 882 m 464 882 q 404 905 428 882 q 381 961 381 928 q 404 1017 381 994 q 464 1039 428 1039 q 522 1017 499 1039 q 544 961 544 994 q 522 905 544 928 q 464 882 499 882 m 356 1061 l 190 1197 l 386 1197 l 488 1061 l 356 1061 z "},"Ǖ":{"ha":558,"x_min":7,"x_max":590,"o":"m 229 -17 q 130 -9 174 -17 q 57 22 86 -1 q 17 94 28 46 q 18 226 7 143 l 101 821 l 322 821 l 229 160 q 229 135 228 144 q 235 122 231 125 q 247 118 240 118 q 260 122 254 118 q 270 135 265 125 q 276 160 275 144 l 369 821 l 590 821 l 507 228 q 472 95 496 144 q 412 22 447 46 q 331 -9 376 -1 q 229 -17 285 -17 m 271 882 q 211 905 235 882 q 188 961 188 928 q 211 1017 188 994 q 271 1039 235 1039 q 328 1017 306 1039 q 351 961 351 994 q 328 905 351 928 q 271 882 306 882 m 464 882 q 404 905 428 882 q 381 961 381 928 q 404 1017 381 994 q 464 1039 428 1039 q 522 1017 499 1039 q 544 961 544 994 q 522 905 544 928 q 464 882 499 882 m 242 1071 l 256 1178 l 564 1178 l 550 1071 l 242 1071 z "},"Ụ":{"ha":558,"x_min":7,"x_max":590,"o":"m 229 -17 q 130 -9 174 -17 q 57 22 86 -1 q 17 94 28 46 q 18 226 7 143 l 101 821 l 322 821 l 229 160 q 229 135 228 144 q 235 122 231 125 q 247 118 240 118 q 260 122 254 118 q 270 135 265 125 q 276 160 275 144 l 369 821 l 590 821 l 507 228 q 472 95 496 144 q 412 22 447 46 q 331 -9 376 -1 q 229 -17 285 -17 m 214 -203 q 154 -180 178 -203 q 131 -124 131 -157 q 154 -68 131 -90 q 214 -46 178 -46 q 272 -68 249 -46 q 294 -124 294 -90 q 272 -180 294 -157 q 214 -203 249 -203 z "},"Ù":{"ha":558,"x_min":7,"x_max":590,"o":"m 229 -17 q 130 -9 174 -17 q 57 22 86 -1 q 17 94 28 46 q 18 226 7 143 l 101 821 l 322 821 l 229 160 q 229 135 228 144 q 235 122 231 125 q 247 118 240 118 q 260 122 254 118 q 270 135 265 125 q 276 160 275 144 l 369 821 l 590 821 l 507 228 q 472 95 496 144 q 412 22 447 46 q 331 -9 376 -1 q 229 -17 285 -17 m 317 882 l 151 1018 l 347 1018 l 449 882 l 317 882 z "},"Ủ":{"ha":558,"x_min":7,"x_max":590,"o":"m 229 -17 q 130 -9 174 -17 q 57 22 86 -1 q 17 94 28 46 q 18 226 7 143 l 101 821 l 322 821 l 229 160 q 229 135 228 144 q 235 122 231 125 q 247 118 240 118 q 260 122 254 118 q 270 135 265 125 q 276 160 275 144 l 369 821 l 590 821 l 507 228 q 472 95 496 144 q 412 22 447 46 q 331 -9 376 -1 q 229 -17 285 -17 m 296 854 l 300 888 q 316 917 303 908 q 342 933 329 926 q 358 956 356 940 l 361 972 q 362 988 364 982 q 350 994 360 994 q 331 967 335 994 l 239 981 q 280 1047 247 1025 q 369 1069 313 1069 q 462 1043 432 1069 q 481 967 492 1017 l 479 960 q 463 918 474 929 q 442 904 453 907 q 423 898 431 901 q 413 878 415 894 l 410 854 l 296 854 z "},"Ư":{"ha":558,"x_min":7,"x_max":649,"o":"m 229 -17 q 130 -9 174 -17 q 57 22 86 -1 q 17 94 28 46 q 18 226 7 143 l 101 821 l 322 821 l 229 160 q 229 135 228 144 q 235 122 231 125 q 247 118 240 118 q 260 122 254 118 q 270 135 265 125 q 276 160 275 144 l 369 821 l 590 821 l 507 228 q 472 95 496 144 q 412 22 447 46 q 331 -9 376 -1 q 229 -17 285 -17 m 397 729 l 410 821 l 439 821 q 507 886 496 821 l 510 914 l 649 914 l 646 886 q 572 764 633 799 q 397 729 511 729 z "},"Ứ":{"ha":558,"x_min":7,"x_max":649,"o":"m 229 -17 q 130 -9 174 -17 q 57 22 86 -1 q 17 94 28 46 q 18 226 7 143 l 101 821 l 322 821 l 229 160 q 229 135 228 144 q 235 122 231 125 q 247 118 240 118 q 260 122 254 118 q 270 135 265 125 q 276 160 275 144 l 369 821 l 590 821 l 507 228 q 472 95 496 144 q 412 22 447 46 q 331 -9 376 -1 q 229 -17 285 -17 m 397 729 l 410 821 l 439 821 q 507 886 496 821 l 510 914 l 649 914 l 646 886 q 572 764 633 799 q 397 729 511 729 m 240 882 l 367 1025 l 558 1025 l 358 882 l 240 882 z "},"Ự":{"ha":558,"x_min":7,"x_max":649,"o":"m 229 -17 q 130 -9 174 -17 q 57 22 86 -1 q 17 94 28 46 q 18 226 7 143 l 101 821 l 322 821 l 229 160 q 229 135 228 144 q 235 122 231 125 q 247 118 240 118 q 260 122 254 118 q 270 135 265 125 q 276 160 275 144 l 369 821 l 590 821 l 507 228 q 472 95 496 144 q 412 22 447 46 q 331 -9 376 -1 q 229 -17 285 -17 m 397 729 l 410 821 l 439 821 q 507 886 496 821 l 510 914 l 649 914 l 646 886 q 572 764 633 799 q 397 729 511 729 m 214 -203 q 154 -180 178 -203 q 131 -124 131 -157 q 154 -68 131 -90 q 214 -46 178 -46 q 272 -68 249 -46 q 294 -124 294 -90 q 272 -180 294 -157 q 214 -203 249 -203 z "},"Ừ":{"ha":558,"x_min":7,"x_max":649,"o":"m 229 -17 q 130 -9 174 -17 q 57 22 86 -1 q 17 94 28 46 q 18 226 7 143 l 101 821 l 322 821 l 229 160 q 229 135 228 144 q 235 122 231 125 q 247 118 240 118 q 260 122 254 118 q 270 135 265 125 q 276 160 275 144 l 369 821 l 590 821 l 507 228 q 472 95 496 144 q 412 22 447 46 q 331 -9 376 -1 q 229 -17 285 -17 m 397 729 l 410 821 l 439 821 q 507 886 496 821 l 510 914 l 649 914 l 646 886 q 572 764 633 799 q 397 729 511 729 m 317 882 l 151 1018 l 347 1018 l 449 882 l 317 882 z "},"Ử":{"ha":558,"x_min":7,"x_max":649,"o":"m 229 -17 q 130 -9 174 -17 q 57 22 86 -1 q 17 94 28 46 q 18 226 7 143 l 101 821 l 322 821 l 229 160 q 229 135 228 144 q 235 122 231 125 q 247 118 240 118 q 260 122 254 118 q 270 135 265 125 q 276 160 275 144 l 369 821 l 590 821 l 507 228 q 472 95 496 144 q 412 22 447 46 q 331 -9 376 -1 q 229 -17 285 -17 m 397 729 l 410 821 l 439 821 q 507 886 496 821 l 510 914 l 649 914 l 646 886 q 572 764 633 799 q 397 729 511 729 m 296 854 l 300 888 q 316 917 303 908 q 342 933 329 926 q 358 956 356 940 l 361 972 q 362 988 364 982 q 350 994 360 994 q 331 967 335 994 l 239 981 q 280 1047 247 1025 q 369 1069 313 1069 q 462 1043 432 1069 q 481 967 492 1017 l 479 960 q 463 918 474 929 q 442 904 453 907 q 423 898 431 901 q 413 878 415 894 l 410 854 l 296 854 z "},"Ữ":{"ha":558,"x_min":7,"x_max":649,"o":"m 229 -17 q 130 -9 174 -17 q 57 22 86 -1 q 17 94 28 46 q 18 226 7 143 l 101 821 l 322 821 l 229 160 q 229 135 228 144 q 235 122 231 125 q 247 118 240 118 q 260 122 254 118 q 270 135 265 125 q 276 160 275 144 l 369 821 l 590 821 l 507 228 q 472 95 496 144 q 412 22 447 46 q 331 -9 376 -1 q 229 -17 285 -17 m 397 729 l 410 821 l 439 821 q 507 886 496 821 l 510 914 l 649 914 l 646 886 q 572 764 633 799 q 397 729 511 729 m 424 882 q 381 892 400 882 q 343 911 361 901 q 313 927 328 921 q 281 933 297 933 q 251 919 263 933 q 235 883 239 904 l 178 883 q 219 989 186 949 q 296 1029 251 1029 q 340 1022 321 1029 q 378 1004 360 1014 q 408 989 393 996 q 439 982 424 982 q 472 995 461 982 q 488 1025 482 1008 l 551 1025 q 501 918 542 954 q 424 882 460 882 z "},"Ű":{"ha":558,"x_min":7,"x_max":629,"o":"m 229 -17 q 130 -9 174 -17 q 57 22 86 -1 q 17 94 28 46 q 18 226 7 143 l 101 821 l 322 821 l 229 160 q 229 135 228 144 q 235 122 231 125 q 247 118 240 118 q 260 122 254 118 q 270 135 265 125 q 276 160 275 144 l 369 821 l 590 821 l 507 228 q 472 95 496 144 q 412 22 447 46 q 331 -9 376 -1 q 229 -17 285 -17 m 256 875 l 283 1022 l 444 1022 l 338 875 l 256 875 m 413 875 l 468 1022 l 629 1022 l 508 875 l 413 875 z "},"Ū":{"ha":558,"x_min":7,"x_max":590,"o":"m 229 -17 q 130 -9 174 -17 q 57 22 86 -1 q 17 94 28 46 q 18 226 7 143 l 101 821 l 322 821 l 229 160 q 229 135 228 144 q 235 122 231 125 q 247 118 240 118 q 260 122 254 118 q 270 135 265 125 q 276 160 275 144 l 369 821 l 590 821 l 507 228 q 472 95 496 144 q 412 22 447 46 q 331 -9 376 -1 q 229 -17 285 -17 m 203 892 l 217 999 l 525 999 l 511 892 l 203 892 z "},"Ų":{"ha":558,"x_min":7,"x_max":590,"o":"m 229 -17 q 130 -9 174 -17 q 57 22 86 -1 q 17 94 28 46 q 18 226 7 143 l 101 821 l 322 821 l 229 160 q 229 135 228 144 q 235 122 231 125 q 247 118 240 118 q 260 122 254 118 q 270 135 265 125 q 276 160 275 144 l 369 821 l 590 821 l 507 228 q 472 95 496 144 q 412 22 447 46 q 331 -9 376 -1 q 229 -17 285 -17 m 208 -210 q 118 -180 149 -210 q 93 -115 88 -150 q 138 -40 99 -76 q 235 3 176 -3 l 315 0 q 256 -35 276 -10 q 233 -85 236 -61 q 246 -124 231 -110 q 278 -137 261 -137 q 294 -135 288 -137 q 303 -133 300 -133 l 319 -185 q 286 -199 311 -189 q 208 -210 261 -210 z "},"Ů":{"ha":558,"x_min":7,"x_max":590,"o":"m 229 -17 q 130 -9 174 -17 q 57 22 86 -1 q 17 94 28 46 q 18 226 7 143 l 101 821 l 322 821 l 229 160 q 229 135 228 144 q 235 122 231 125 q 247 118 240 118 q 260 122 254 118 q 270 135 265 125 q 276 160 275 144 l 369 821 l 590 821 l 507 228 q 472 95 496 144 q 412 22 447 46 q 331 -9 376 -1 q 229 -17 285 -17 m 353 869 q 265 905 297 869 q 240 990 233 940 q 289 1078 247 1043 q 386 1114 331 1114 q 472 1078 439 1114 q 499 990 506 1042 q 449 905 492 940 q 353 869 406 869 m 364 951 q 397 963 382 951 q 413 990 411 974 q 404 1022 415 1010 q 375 1033 393 1033 q 343 1022 357 1033 q 326 990 329 1010 q 335 963 325 974 q 364 951 346 951 z "},"Ў":{"ha":544,"x_min":-33,"x_max":603,"o":"m 131 -28 q 38 -21 83 -28 q -33 -7 -8 -14 l -18 104 q 8 98 -7 100 q 36 96 22 96 q 81 101 58 96 q 107 138 103 107 q 108 165 110 151 q 104 200 106 178 l 69 821 l 293 821 l 276 344 l 279 344 l 397 821 l 603 821 l 399 219 q 292 28 353 85 q 131 -28 231 -28 m 343 876 q 256 892 288 876 q 210 931 224 907 q 194 980 196 954 q 194 1026 192 1006 l 308 1026 q 321 989 304 1001 q 360 976 338 976 q 402 988 383 976 q 426 1026 421 1000 l 542 1026 q 513 951 536 985 q 449 897 490 917 q 343 876 407 876 z "},"Ũ":{"ha":558,"x_min":7,"x_max":590,"o":"m 229 -17 q 130 -9 174 -17 q 57 22 86 -1 q 17 94 28 46 q 18 226 7 143 l 101 821 l 322 821 l 229 160 q 229 135 228 144 q 235 122 231 125 q 247 118 240 118 q 260 122 254 118 q 270 135 265 125 q 276 160 275 144 l 369 821 l 590 821 l 507 228 q 472 95 496 144 q 412 22 447 46 q 331 -9 376 -1 q 229 -17 285 -17 m 424 882 q 381 892 400 882 q 343 911 361 901 q 313 927 328 921 q 281 933 297 933 q 251 919 263 933 q 235 883 239 904 l 178 883 q 219 989 186 949 q 296 1029 251 1029 q 340 1022 321 1029 q 378 1004 360 1014 q 408 989 393 996 q 439 982 424 982 q 472 995 461 982 q 488 1025 482 1008 l 551 1025 q 501 918 542 954 q 424 882 460 882 z "},"V":{"ha":582,"x_min":78,"x_max":638,"o":"m 81 0 l 78 821 l 307 821 l 272 218 l 275 218 l 417 821 l 638 821 l 399 0 l 81 0 z "},"В":{"ha":557,"x_min":-14,"x_max":578,"o":"m -14 0 l 101 821 l 424 821 q 544 781 510 821 q 569 681 578 742 l 557 592 q 538 527 551 557 q 499 476 524 497 q 460 453 482 463 q 415 442 439 444 l 414 439 q 452 433 433 439 q 490 413 471 428 q 523 362 513 394 q 526 281 533 329 l 513 174 q 474 70 503 108 q 398 16 444 32 q 289 0 351 0 l -14 0 m 224 113 l 251 113 q 268 119 261 113 q 281 141 275 125 q 290 186 286 157 l 303 274 q 304 333 310 319 q 283 346 299 346 l 257 346 l 224 113 m 276 483 l 299 483 q 323 499 311 483 q 342 567 335 515 l 353 640 q 353 690 358 676 q 332 704 347 704 l 307 704 l 276 483 z "},"W":{"ha":885,"x_min":78,"x_max":940,"o":"m 81 0 l 78 821 l 307 821 l 288 278 l 417 821 l 601 821 l 578 278 l 711 821 l 940 821 l 704 0 l 446 0 l 443 358 l 339 0 l 81 0 z "},"Ẃ":{"ha":885,"x_min":78,"x_max":940,"o":"m 81 0 l 78 821 l 307 821 l 288 278 l 417 821 l 601 821 l 578 278 l 711 821 l 940 821 l 704 0 l 446 0 l 443 358 l 339 0 l 81 0 m 404 882 l 531 1025 l 722 1025 l 522 882 l 404 882 z "},"Ŵ":{"ha":885,"x_min":78,"x_max":940,"o":"m 81 0 l 78 821 l 307 821 l 288 278 l 417 821 l 601 821 l 578 278 l 711 821 l 940 821 l 704 0 l 446 0 l 443 358 l 339 0 l 81 0 m 319 878 l 482 1029 l 597 1029 l 717 879 l 585 879 l 528 938 l 454 878 l 319 878 z "},"Ẅ":{"ha":885,"x_min":78,"x_max":940,"o":"m 81 0 l 78 821 l 307 821 l 288 278 l 417 821 l 601 821 l 578 278 l 711 821 l 940 821 l 704 0 l 446 0 l 443 358 l 339 0 l 81 0 m 435 882 q 375 905 399 882 q 351 961 351 928 q 375 1017 351 994 q 435 1039 399 1039 q 492 1017 469 1039 q 515 961 515 994 q 492 905 515 928 q 435 882 469 882 m 628 882 q 568 905 592 882 q 544 961 544 928 q 568 1017 544 994 q 628 1039 592 1039 q 685 1017 663 1039 q 708 961 708 994 q 685 905 708 928 q 628 882 663 882 z "},"Ẁ":{"ha":885,"x_min":78,"x_max":940,"o":"m 81 0 l 78 821 l 307 821 l 288 278 l 417 821 l 601 821 l 578 278 l 711 821 l 940 821 l 704 0 l 446 0 l 443 358 l 339 0 l 81 0 m 481 882 l 315 1018 l 511 1018 l 613 882 l 481 882 z "},"X":{"ha":560,"x_min":-43,"x_max":621,"o":"m -43 0 l 131 426 l 76 821 l 297 821 l 315 606 l 386 821 l 621 821 l 458 426 l 501 0 l 281 0 l 263 214 l 192 0 l -43 0 z "},"Y":{"ha":544,"x_min":72,"x_max":606,"o":"m 110 0 l 158 340 l 72 821 l 290 821 l 310 649 l 313 576 l 335 649 l 406 821 l 606 821 l 378 328 l 331 0 l 110 0 z "},"Ý":{"ha":544,"x_min":72,"x_max":606,"o":"m 110 0 l 158 340 l 72 821 l 290 821 l 310 649 l 313 576 l 335 649 l 406 821 l 606 821 l 378 328 l 331 0 l 110 0 m 233 882 l 360 1025 l 551 1025 l 351 882 l 233 882 z "},"Ѣ":{"ha":625,"x_min":51,"x_max":622,"o":"m 68 0 l 185 821 l 401 821 l 371 606 l 481 606 q 549 595 515 606 q 603 552 583 585 q 613 450 622 519 l 581 224 q 549 99 569 144 q 499 33 528 54 q 435 6 469 13 q 360 0 400 0 l 68 0 m 301 111 l 326 111 q 342 118 336 111 q 353 150 347 125 q 365 231 358 175 l 389 404 q 394 447 393 432 q 390 467 394 461 q 375 474 386 474 l 351 474 q 327 292 340 386 q 301 111 314 199 m 51 668 l 67 769 l 519 769 l 504 668 l 51 668 z "},"Ŷ":{"ha":544,"x_min":72,"x_max":606,"o":"m 110 0 l 158 340 l 72 821 l 290 821 l 310 649 l 313 576 l 335 649 l 406 821 l 606 821 l 378 328 l 331 0 l 110 0 m 149 878 l 311 1029 l 426 1029 l 546 879 l 414 879 l 357 938 l 283 878 l 149 878 z "},"Ÿ":{"ha":544,"x_min":72,"x_max":606,"o":"m 110 0 l 158 340 l 72 821 l 290 821 l 310 649 l 313 576 l 335 649 l 406 821 l 606 821 l 378 328 l 331 0 l 110 0 m 264 882 q 204 905 228 882 q 181 961 181 928 q 204 1017 181 994 q 264 1039 228 1039 q 322 1017 299 1039 q 344 961 344 994 q 322 905 344 928 q 264 882 299 882 m 457 882 q 397 905 421 882 q 374 961 374 928 q 397 1017 374 994 q 457 1039 421 1039 q 515 1017 492 1039 q 538 961 538 994 q 515 905 538 928 q 457 882 492 882 z "},"Ỵ":{"ha":544,"x_min":72,"x_max":606,"o":"m 110 0 l 158 340 l 72 821 l 290 821 l 310 649 l 313 576 l 335 649 l 406 821 l 606 821 l 378 328 l 331 0 l 110 0 m 207 -203 q 147 -180 171 -203 q 124 -124 124 -157 q 147 -68 124 -90 q 207 -46 171 -46 q 265 -68 242 -46 q 288 -124 288 -90 q 265 -180 288 -157 q 207 -203 242 -203 z "},"Ы":{"ha":843,"x_min":-14,"x_max":875,"o":"m -14 0 l 103 821 l 319 821 l 289 606 l 399 606 q 467 595 433 606 q 521 552 501 585 q 531 450 540 519 l 499 224 q 467 99 488 144 q 417 33 446 54 q 353 6 388 13 q 278 0 318 0 l -14 0 m 219 111 l 244 111 q 260 118 254 111 q 271 150 265 125 q 283 231 276 175 q 295 317 288 265 q 307 404 303 369 q 312 447 311 432 q 308 467 313 461 q 293 474 304 474 l 269 474 q 245 292 258 386 q 219 111 232 199 m 538 0 l 654 821 l 875 821 l 758 0 l 538 0 z "},"Ỳ":{"ha":544,"x_min":72,"x_max":606,"o":"m 110 0 l 158 340 l 72 821 l 290 821 l 310 649 l 313 576 l 335 649 l 406 821 l 606 821 l 378 328 l 331 0 l 110 0 m 310 882 l 144 1018 l 340 1018 l 442 882 l 310 882 z "},"Ỷ":{"ha":544,"x_min":72,"x_max":606,"o":"m 110 0 l 158 340 l 72 821 l 290 821 l 310 649 l 313 576 l 335 649 l 406 821 l 606 821 l 378 328 l 331 0 l 110 0 m 289 854 l 293 888 q 309 917 296 908 q 335 933 322 926 q 351 956 349 940 l 354 972 q 355 988 357 982 q 343 994 353 994 q 324 967 328 994 l 232 981 q 273 1047 240 1025 q 363 1069 306 1069 q 455 1043 425 1069 q 474 967 485 1017 l 472 960 q 456 918 467 929 q 435 904 446 907 q 416 898 424 901 q 406 878 408 894 l 403 854 l 289 854 z "},"Ї":{"ha":292,"x_min":-14,"x_max":411,"o":"m -14 0 l 103 821 l 324 821 l 207 0 l -14 0 m 138 882 q 78 905 101 882 q 54 961 54 928 q 78 1017 54 994 q 138 1039 101 1039 q 195 1017 172 1039 q 218 961 218 994 q 195 905 218 928 q 138 882 172 882 m 331 882 q 271 905 294 882 q 247 961 247 928 q 271 1017 247 994 q 331 1039 294 1039 q 388 1017 365 1039 q 411 961 411 994 q 388 905 411 928 q 331 882 365 882 z "},"Ỹ":{"ha":544,"x_min":72,"x_max":606,"o":"m 110 0 l 158 340 l 72 821 l 290 821 l 310 649 l 313 576 l 335 649 l 406 821 l 606 821 l 378 328 l 331 0 l 110 0 m 417 882 q 374 892 393 882 q 336 911 354 901 q 306 927 321 921 q 274 933 290 933 q 244 919 256 933 q 228 883 232 904 l 171 883 q 212 989 179 949 q 289 1029 244 1029 q 333 1022 314 1029 q 371 1004 353 1014 q 401 989 386 996 q 432 982 417 982 q 465 995 454 982 q 481 1025 475 1008 l 544 1025 q 494 918 535 954 q 417 882 453 882 z "},"Ѫ":{"ha":900,"x_min":-29,"x_max":938,"o":"m -29 0 l 93 340 q 127 406 107 378 q 176 450 147 433 q 246 468 206 467 l 286 469 l 68 672 l 90 821 l 938 821 l 915 672 l 643 471 l 697 467 q 754 447 731 464 q 792 403 778 431 q 808 342 806 376 l 833 0 l 588 0 l 581 311 q 580 347 581 329 q 580 381 579 364 q 579 415 581 399 l 576 415 l 518 0 l 286 0 l 343 415 l 340 415 q 326 367 333 392 q 313 319 319 343 l 217 0 l -29 0 m 475 549 l 663 672 l 321 672 l 475 549 z "},"Z":{"ha":428,"x_min":-44,"x_max":472,"o":"m -44 0 l -25 136 l 199 667 l 64 667 l 86 821 l 472 821 l 457 717 l 218 154 l 378 154 l 356 0 l -44 0 z "},"Ź":{"ha":428,"x_min":-44,"x_max":493,"o":"m -44 0 l -25 136 l 199 667 l 64 667 l 86 821 l 472 821 l 457 717 l 218 154 l 378 154 l 356 0 l -44 0 m 175 882 l 301 1025 l 493 1025 l 293 882 l 175 882 z "},"Ž":{"ha":428,"x_min":-44,"x_max":508,"o":"m -44 0 l -25 136 l 199 667 l 64 667 l 86 821 l 472 821 l 457 717 l 218 154 l 378 154 l 356 0 l -44 0 m 229 878 l 111 1029 l 246 1029 l 303 969 l 376 1028 l 508 1028 l 344 878 l 229 878 z "},"Ż":{"ha":428,"x_min":-44,"x_max":472,"o":"m -44 0 l -25 136 l 199 667 l 64 667 l 86 821 l 472 821 l 457 717 l 218 154 l 378 154 l 356 0 l -44 0 m 326 868 q 253 898 283 868 q 221 969 222 928 q 253 1042 221 1013 q 328 1072 285 1072 q 403 1042 372 1072 q 435 969 435 1013 q 403 898 436 928 q 326 868 371 868 z "},"З":{"ha":543,"x_min":-15,"x_max":578,"o":"m 218 -8 q 81 14 135 -8 q 6 81 28 36 q -7 192 -15 125 l 8 296 l 229 296 l 224 261 q 215 176 215 204 q 238 147 215 147 q 263 169 256 147 q 275 222 271 192 l 288 304 q 269 347 292 338 q 194 356 246 356 l 140 356 l 157 472 l 213 472 q 253 475 236 472 q 283 483 271 478 q 310 503 303 492 q 318 529 317 515 l 328 593 q 330 646 332 624 q 310 668 328 668 q 281 640 288 668 q 265 554 274 611 l 263 533 l 42 533 l 54 624 q 138 774 68 724 q 335 824 208 824 q 524 781 471 824 q 564 643 578 738 l 553 564 q 502 452 543 494 q 388 407 461 410 q 487 367 454 407 q 510 257 519 328 l 500 192 q 458 73 490 117 q 367 10 425 29 q 218 -8 308 -8 z "},"Ж":{"ha":964,"x_min":-42,"x_max":1015,"o":"m -42 0 l 161 426 l 78 821 l 332 821 l 354 486 l 386 486 l 433 821 l 654 821 l 607 486 l 644 486 l 761 821 l 1015 821 l 821 426 l 901 0 l 656 0 l 628 368 l 590 368 l 538 0 l 317 0 l 369 368 l 338 368 l 204 0 l -42 0 z "},"a":{"ha":543,"x_min":-1,"x_max":557,"o":"m 168 -11 q 97 -5 131 -11 q 40 23 64 1 q 8 90 17 44 q 10 213 -1 135 l 57 543 q 97 643 67 611 q 164 685 128 675 q 225 694 200 694 q 303 675 281 694 q 335 638 325 656 l 342 688 l 557 688 l 460 0 l 292 0 l 303 65 q 276 31 292 49 q 234 1 260 14 q 168 -11 208 -11 m 235 113 q 249 117 243 113 q 258 131 254 122 q 264 151 261 140 q 268 172 267 161 q 271 192 269 182 l 324 563 q 318 565 321 564 q 310 567 315 567 q 299 568 306 568 q 278 555 285 568 q 268 519 271 542 q 261 465 265 496 l 218 171 q 216 144 217 156 q 217 126 215 133 q 222 116 218 119 q 235 113 226 113 z "},"а":{"ha":543,"x_min":-1,"x_max":557,"o":"m 168 -11 q 97 -5 131 -11 q 40 23 64 1 q 8 90 17 44 q 10 213 -1 135 l 57 543 q 97 643 67 611 q 164 685 128 675 q 225 694 200 694 q 303 675 281 694 q 335 638 325 656 l 342 688 l 557 688 l 460 0 l 292 0 l 303 65 q 276 31 292 49 q 234 1 260 14 q 168 -11 208 -11 m 235 113 q 249 117 243 113 q 258 131 254 122 q 264 151 261 140 q 268 172 267 161 q 271 192 269 182 l 324 563 q 318 565 321 564 q 310 567 315 567 q 299 568 306 568 q 278 555 285 568 q 268 519 271 542 q 261 465 265 496 l 218 171 q 216 144 217 156 q 217 126 215 133 q 222 116 218 119 q 235 113 226 113 z "},"á":{"ha":543,"x_min":-1,"x_max":557,"o":"m 168 -11 q 97 -5 131 -11 q 40 23 64 1 q 8 90 17 44 q 10 213 -1 135 l 57 543 q 97 643 67 611 q 164 685 128 675 q 225 694 200 694 q 303 675 281 694 q 335 638 325 656 l 342 688 l 557 688 l 460 0 l 292 0 l 303 65 q 276 31 292 49 q 234 1 260 14 q 168 -11 208 -11 m 235 113 q 249 117 243 113 q 258 131 254 122 q 264 151 261 140 q 268 172 267 161 q 271 192 269 182 l 324 563 q 318 565 321 564 q 310 567 315 567 q 299 568 306 568 q 278 555 285 568 q 268 519 271 542 q 261 465 265 496 l 218 171 q 216 144 217 156 q 217 126 215 133 q 222 116 218 119 q 235 113 226 113 m 242 764 l 333 911 l 536 911 l 378 764 l 242 764 z "},"ă":{"ha":543,"x_min":-1,"x_max":557,"o":"m 168 -11 q 97 -5 131 -11 q 40 23 64 1 q 8 90 17 44 q 10 213 -1 135 l 57 543 q 97 643 67 611 q 164 685 128 675 q 225 694 200 694 q 303 675 281 694 q 335 638 325 656 l 342 688 l 557 688 l 460 0 l 292 0 l 303 65 q 276 31 292 49 q 234 1 260 14 q 168 -11 208 -11 m 235 113 q 249 117 243 113 q 258 131 254 122 q 264 151 261 140 q 268 172 267 161 q 271 192 269 182 l 324 563 q 318 565 321 564 q 310 567 315 567 q 299 568 306 568 q 278 555 285 568 q 268 519 271 542 q 261 465 265 496 l 218 171 q 216 144 217 156 q 217 126 215 133 q 222 116 218 119 q 235 113 226 113 m 333 765 q 246 781 278 765 q 200 819 214 796 q 184 869 186 843 q 185 915 182 894 l 299 915 q 311 878 294 890 q 350 865 328 865 q 392 877 374 865 q 417 915 411 889 l 532 915 q 503 840 526 874 q 439 785 481 806 q 333 765 397 765 z "},"ắ":{"ha":543,"x_min":-1,"x_max":561,"o":"m 168 -11 q 97 -5 131 -11 q 40 23 64 1 q 8 90 17 44 q 10 213 -1 135 l 57 543 q 97 643 67 611 q 164 685 128 675 q 225 694 200 694 q 303 675 281 694 q 335 638 325 656 l 342 688 l 557 688 l 460 0 l 292 0 l 303 65 q 276 31 292 49 q 234 1 260 14 q 168 -11 208 -11 m 235 113 q 249 117 243 113 q 258 131 254 122 q 264 151 261 140 q 268 172 267 161 q 271 192 269 182 l 324 563 q 318 565 321 564 q 310 567 315 567 q 299 568 306 568 q 278 555 285 568 q 268 519 271 542 q 261 465 265 496 l 218 171 q 216 144 217 156 q 217 126 215 133 q 222 116 218 119 q 235 113 226 113 m 333 765 q 246 781 278 765 q 200 819 214 796 q 184 869 186 843 q 185 915 182 894 l 299 915 q 311 878 294 890 q 350 865 328 865 q 392 877 374 865 q 417 915 411 889 l 532 915 q 503 840 526 874 q 439 785 481 806 q 333 765 397 765 m 267 958 l 358 1106 l 561 1106 l 403 958 l 267 958 z "},"ặ":{"ha":543,"x_min":-1,"x_max":557,"o":"m 168 -11 q 97 -5 131 -11 q 40 23 64 1 q 8 90 17 44 q 10 213 -1 135 l 57 543 q 97 643 67 611 q 164 685 128 675 q 225 694 200 694 q 303 675 281 694 q 335 638 325 656 l 342 688 l 557 688 l 460 0 l 292 0 l 303 65 q 276 31 292 49 q 234 1 260 14 q 168 -11 208 -11 m 235 113 q 249 117 243 113 q 258 131 254 122 q 264 151 261 140 q 268 172 267 161 q 271 192 269 182 l 324 563 q 318 565 321 564 q 310 567 315 567 q 299 568 306 568 q 278 555 285 568 q 268 519 271 542 q 261 465 265 496 l 218 171 q 216 144 217 156 q 217 126 215 133 q 222 116 218 119 q 235 113 226 113 m 207 -203 q 147 -180 171 -203 q 124 -124 124 -157 q 147 -68 124 -90 q 207 -46 171 -46 q 265 -68 242 -46 q 288 -124 288 -90 q 265 -180 288 -157 q 207 -203 242 -203 m 333 765 q 246 781 278 765 q 200 819 214 796 q 184 869 186 843 q 185 915 182 894 l 299 915 q 311 878 294 890 q 350 865 328 865 q 392 877 374 865 q 417 915 411 889 l 532 915 q 503 840 526 874 q 439 785 481 806 q 333 765 397 765 z "},"ằ":{"ha":543,"x_min":-1,"x_max":557,"o":"m 168 -11 q 97 -5 131 -11 q 40 23 64 1 q 8 90 17 44 q 10 213 -1 135 l 57 543 q 97 643 67 611 q 164 685 128 675 q 225 694 200 694 q 303 675 281 694 q 335 638 325 656 l 342 688 l 557 688 l 460 0 l 292 0 l 303 65 q 276 31 292 49 q 234 1 260 14 q 168 -11 208 -11 m 235 113 q 249 117 243 113 q 258 131 254 122 q 264 151 261 140 q 268 172 267 161 q 271 192 269 182 l 324 563 q 318 565 321 564 q 310 567 315 567 q 299 568 306 568 q 278 555 285 568 q 268 519 271 542 q 261 465 265 496 l 218 171 q 216 144 217 156 q 217 126 215 133 q 222 116 218 119 q 235 113 226 113 m 333 765 q 246 781 278 765 q 200 819 214 796 q 184 869 186 843 q 185 915 182 894 l 299 915 q 311 878 294 890 q 350 865 328 865 q 392 877 374 865 q 417 915 411 889 l 532 915 q 503 840 526 874 q 439 785 481 806 q 333 765 397 765 m 307 958 l 179 1106 l 382 1106 l 443 958 l 307 958 z "},"ẳ":{"ha":543,"x_min":-1,"x_max":557,"o":"m 168 -11 q 97 -5 131 -11 q 40 23 64 1 q 8 90 17 44 q 10 213 -1 135 l 57 543 q 97 643 67 611 q 164 685 128 675 q 225 694 200 694 q 303 675 281 694 q 335 638 325 656 l 342 688 l 557 688 l 460 0 l 292 0 l 303 65 q 276 31 292 49 q 234 1 260 14 q 168 -11 208 -11 m 235 113 q 249 117 243 113 q 258 131 254 122 q 264 151 261 140 q 268 172 267 161 q 271 192 269 182 l 324 563 q 318 565 321 564 q 310 567 315 567 q 299 568 306 568 q 278 555 285 568 q 268 519 271 542 q 261 465 265 496 l 218 171 q 216 144 217 156 q 217 126 215 133 q 222 116 218 119 q 235 113 226 113 m 333 765 q 246 781 278 765 q 200 819 214 796 q 184 869 186 843 q 185 915 182 894 l 299 915 q 311 878 294 890 q 350 865 328 865 q 392 877 374 865 q 417 915 411 889 l 532 915 q 503 840 526 874 q 439 785 481 806 q 333 765 397 765 m 297 940 l 301 974 q 317 1003 304 994 q 344 1019 331 1013 q 360 1042 357 1026 l 363 1058 q 363 1074 365 1068 q 351 1081 361 1081 q 332 1053 336 1081 l 240 1067 q 281 1133 249 1111 q 371 1156 314 1156 q 463 1129 433 1156 q 482 1053 493 1103 l 481 1046 q 465 1004 475 1015 q 443 990 454 993 q 424 984 432 988 q 414 964 417 981 l 411 940 l 297 940 z "},"ẵ":{"ha":543,"x_min":-1,"x_max":558,"o":"m 168 -11 q 97 -5 131 -11 q 40 23 64 1 q 8 90 17 44 q 10 213 -1 135 l 57 543 q 97 643 67 611 q 164 685 128 675 q 225 694 200 694 q 303 675 281 694 q 335 638 325 656 l 342 688 l 557 688 l 460 0 l 292 0 l 303 65 q 276 31 292 49 q 234 1 260 14 q 168 -11 208 -11 m 235 113 q 249 117 243 113 q 258 131 254 122 q 264 151 261 140 q 268 172 267 161 q 271 192 269 182 l 324 563 q 318 565 321 564 q 310 567 315 567 q 299 568 306 568 q 278 555 285 568 q 268 519 271 542 q 261 465 265 496 l 218 171 q 216 144 217 156 q 217 126 215 133 q 222 116 218 119 q 235 113 226 113 m 333 765 q 246 781 278 765 q 200 819 214 796 q 184 869 186 843 q 185 915 182 894 l 299 915 q 311 878 294 890 q 350 865 328 865 q 392 877 374 865 q 417 915 411 889 l 532 915 q 503 840 526 874 q 439 785 481 806 q 333 765 397 765 m 431 956 q 388 965 407 956 q 350 985 368 975 q 319 1001 335 994 q 288 1007 304 1007 q 258 992 269 1007 q 242 957 246 978 l 185 957 q 226 1063 193 1022 q 303 1103 258 1103 q 347 1095 328 1103 q 385 1078 367 1088 q 415 1063 400 1069 q 446 1056 431 1056 q 478 1069 468 1056 q 494 1099 489 1082 l 558 1099 q 508 992 549 1028 q 431 956 467 956 z "},"ǎ":{"ha":543,"x_min":-1,"x_max":557,"o":"m 168 -11 q 97 -5 131 -11 q 40 23 64 1 q 8 90 17 44 q 10 213 -1 135 l 57 543 q 97 643 67 611 q 164 685 128 675 q 225 694 200 694 q 303 675 281 694 q 335 638 325 656 l 342 688 l 557 688 l 460 0 l 292 0 l 303 65 q 276 31 292 49 q 234 1 260 14 q 168 -11 208 -11 m 235 113 q 249 117 243 113 q 258 131 254 122 q 264 151 261 140 q 268 172 267 161 q 271 192 269 182 l 324 563 q 318 565 321 564 q 310 567 315 567 q 299 568 306 568 q 278 555 285 568 q 268 519 271 542 q 261 465 265 496 l 218 171 q 216 144 217 156 q 217 126 215 133 q 222 116 218 119 q 235 113 226 113 m 278 757 l 163 918 l 290 918 l 349 850 l 429 918 l 554 918 l 393 757 l 278 757 z "},"â":{"ha":543,"x_min":-1,"x_max":557,"o":"m 168 -11 q 97 -5 131 -11 q 40 23 64 1 q 8 90 17 44 q 10 213 -1 135 l 57 543 q 97 643 67 611 q 164 685 128 675 q 225 694 200 694 q 303 675 281 694 q 335 638 325 656 l 342 688 l 557 688 l 460 0 l 292 0 l 303 65 q 276 31 292 49 q 234 1 260 14 q 168 -11 208 -11 m 235 113 q 249 117 243 113 q 258 131 254 122 q 264 151 261 140 q 268 172 267 161 q 271 192 269 182 l 324 563 q 318 565 321 564 q 310 567 315 567 q 299 568 306 568 q 278 555 285 568 q 268 519 271 542 q 261 465 265 496 l 218 171 q 216 144 217 156 q 217 126 215 133 q 222 116 218 119 q 235 113 226 113 m 140 757 l 300 918 l 415 918 l 532 757 l 407 757 l 347 829 l 268 757 l 140 757 z "},"ấ":{"ha":543,"x_min":-1,"x_max":817,"o":"m 168 -11 q 97 -5 131 -11 q 40 23 64 1 q 8 90 17 44 q 10 213 -1 135 l 57 543 q 97 643 67 611 q 164 685 128 675 q 225 694 200 694 q 303 675 281 694 q 335 638 325 656 l 342 688 l 557 688 l 460 0 l 292 0 l 303 65 q 276 31 292 49 q 234 1 260 14 q 168 -11 208 -11 m 235 113 q 249 117 243 113 q 258 131 254 122 q 264 151 261 140 q 268 172 267 161 q 271 192 269 182 l 324 563 q 318 565 321 564 q 310 567 315 567 q 299 568 306 568 q 278 555 285 568 q 268 519 271 542 q 261 465 265 496 l 218 171 q 216 144 217 156 q 217 126 215 133 q 222 116 218 119 q 235 113 226 113 m 140 757 l 300 918 l 415 918 l 532 757 l 407 757 l 347 829 l 268 757 l 140 757 m 522 853 l 614 1000 l 817 1000 l 658 853 l 522 853 z "},"ậ":{"ha":543,"x_min":-1,"x_max":557,"o":"m 168 -11 q 97 -5 131 -11 q 40 23 64 1 q 8 90 17 44 q 10 213 -1 135 l 57 543 q 97 643 67 611 q 164 685 128 675 q 225 694 200 694 q 303 675 281 694 q 335 638 325 656 l 342 688 l 557 688 l 460 0 l 292 0 l 303 65 q 276 31 292 49 q 234 1 260 14 q 168 -11 208 -11 m 235 113 q 249 117 243 113 q 258 131 254 122 q 264 151 261 140 q 268 172 267 161 q 271 192 269 182 l 324 563 q 318 565 321 564 q 310 567 315 567 q 299 568 306 568 q 278 555 285 568 q 268 519 271 542 q 261 465 265 496 l 218 171 q 216 144 217 156 q 217 126 215 133 q 222 116 218 119 q 235 113 226 113 m 207 -203 q 147 -180 171 -203 q 124 -124 124 -157 q 147 -68 124 -90 q 207 -46 171 -46 q 265 -68 242 -46 q 288 -124 288 -90 q 265 -180 288 -157 q 207 -203 242 -203 m 140 757 l 300 918 l 415 918 l 532 757 l 407 757 l 347 829 l 268 757 l 140 757 z "},"ầ":{"ha":543,"x_min":-1,"x_max":699,"o":"m 168 -11 q 97 -5 131 -11 q 40 23 64 1 q 8 90 17 44 q 10 213 -1 135 l 57 543 q 97 643 67 611 q 164 685 128 675 q 225 694 200 694 q 303 675 281 694 q 335 638 325 656 l 342 688 l 557 688 l 460 0 l 292 0 l 303 65 q 276 31 292 49 q 234 1 260 14 q 168 -11 208 -11 m 235 113 q 249 117 243 113 q 258 131 254 122 q 264 151 261 140 q 268 172 267 161 q 271 192 269 182 l 324 563 q 318 565 321 564 q 310 567 315 567 q 299 568 306 568 q 278 555 285 568 q 268 519 271 542 q 261 465 265 496 l 218 171 q 216 144 217 156 q 217 126 215 133 q 222 116 218 119 q 235 113 226 113 m 140 757 l 300 918 l 415 918 l 532 757 l 407 757 l 347 829 l 268 757 l 140 757 m 563 853 l 435 1000 l 638 1000 l 699 853 l 563 853 z "},"ẩ":{"ha":543,"x_min":-1,"x_max":749,"o":"m 168 -11 q 97 -5 131 -11 q 40 23 64 1 q 8 90 17 44 q 10 213 -1 135 l 57 543 q 97 643 67 611 q 164 685 128 675 q 225 694 200 694 q 303 675 281 694 q 335 638 325 656 l 342 688 l 557 688 l 460 0 l 292 0 l 303 65 q 276 31 292 49 q 234 1 260 14 q 168 -11 208 -11 m 235 113 q 249 117 243 113 q 258 131 254 122 q 264 151 261 140 q 268 172 267 161 q 271 192 269 182 l 324 563 q 318 565 321 564 q 310 567 315 567 q 299 568 306 568 q 278 555 285 568 q 268 519 271 542 q 261 465 265 496 l 218 171 q 216 144 217 156 q 217 126 215 133 q 222 116 218 119 q 235 113 226 113 m 140 757 l 300 918 l 415 918 l 532 757 l 407 757 l 347 829 l 268 757 l 140 757 m 553 835 l 557 868 q 573 898 560 889 q 599 914 586 907 q 615 936 613 921 l 618 953 q 619 969 621 963 q 607 975 617 975 q 588 947 592 975 l 496 961 q 537 1028 504 1006 q 626 1050 569 1050 q 719 1024 689 1050 q 738 947 749 997 l 736 940 q 720 899 731 910 q 699 885 710 888 q 680 878 688 882 q 669 858 672 875 l 667 835 l 553 835 z "},"ẫ":{"ha":543,"x_min":-1,"x_max":558,"o":"m 168 -11 q 97 -5 131 -11 q 40 23 64 1 q 8 90 17 44 q 10 213 -1 135 l 57 543 q 97 643 67 611 q 164 685 128 675 q 225 694 200 694 q 303 675 281 694 q 335 638 325 656 l 342 688 l 557 688 l 460 0 l 292 0 l 303 65 q 276 31 292 49 q 234 1 260 14 q 168 -11 208 -11 m 235 113 q 249 117 243 113 q 258 131 254 122 q 264 151 261 140 q 268 172 267 161 q 271 192 269 182 l 324 563 q 318 565 321 564 q 310 567 315 567 q 299 568 306 568 q 278 555 285 568 q 268 519 271 542 q 261 465 265 496 l 218 171 q 216 144 217 156 q 217 126 215 133 q 222 116 218 119 q 235 113 226 113 m 140 757 l 300 918 l 415 918 l 532 757 l 407 757 l 347 829 l 268 757 l 140 757 m 431 949 q 388 958 407 949 q 350 978 368 968 q 319 994 335 988 q 288 1000 304 1000 q 258 985 269 1000 q 242 950 246 971 l 185 950 q 226 1056 193 1015 q 303 1096 258 1096 q 347 1088 328 1096 q 385 1071 367 1081 q 415 1056 400 1063 q 446 1049 431 1049 q 478 1062 468 1049 q 494 1092 489 1075 l 558 1092 q 508 985 549 1021 q 431 949 467 949 z "},"´":{"ha":275,"x_min":60,"x_max":354,"o":"m 60 764 l 151 911 l 354 911 l 196 764 l 60 764 z "},"́":{"ha":0,"x_min":60,"x_max":354,"o":"m 60 764 l 151 911 l 354 911 l 196 764 l 60 764 z "},"ä":{"ha":543,"x_min":-1,"x_max":557,"o":"m 168 -11 q 97 -5 131 -11 q 40 23 64 1 q 8 90 17 44 q 10 213 -1 135 l 57 543 q 97 643 67 611 q 164 685 128 675 q 225 694 200 694 q 303 675 281 694 q 335 638 325 656 l 342 688 l 557 688 l 460 0 l 292 0 l 303 65 q 276 31 292 49 q 234 1 260 14 q 168 -11 208 -11 m 235 113 q 249 117 243 113 q 258 131 254 122 q 264 151 261 140 q 268 172 267 161 q 271 192 269 182 l 324 563 q 318 565 321 564 q 310 567 315 567 q 299 568 306 568 q 278 555 285 568 q 268 519 271 542 q 261 465 265 496 l 218 171 q 216 144 217 156 q 217 126 215 133 q 222 116 218 119 q 235 113 226 113 m 253 761 q 193 784 217 761 q 169 840 169 807 q 193 896 169 874 q 253 918 217 918 q 310 896 288 918 q 333 840 333 874 q 310 784 333 807 q 253 761 288 761 m 446 761 q 386 784 410 761 q 363 840 363 807 q 386 896 363 874 q 446 918 410 918 q 503 896 481 918 q 526 840 526 874 q 503 784 526 807 q 446 761 481 761 z "},"ạ":{"ha":543,"x_min":-1,"x_max":557,"o":"m 168 -11 q 97 -5 131 -11 q 40 23 64 1 q 8 90 17 44 q 10 213 -1 135 l 57 543 q 97 643 67 611 q 164 685 128 675 q 225 694 200 694 q 303 675 281 694 q 335 638 325 656 l 342 688 l 557 688 l 460 0 l 292 0 l 303 65 q 276 31 292 49 q 234 1 260 14 q 168 -11 208 -11 m 235 113 q 249 117 243 113 q 258 131 254 122 q 264 151 261 140 q 268 172 267 161 q 271 192 269 182 l 324 563 q 318 565 321 564 q 310 567 315 567 q 299 568 306 568 q 278 555 285 568 q 268 519 271 542 q 261 465 265 496 l 218 171 q 216 144 217 156 q 217 126 215 133 q 222 116 218 119 q 235 113 226 113 m 207 -203 q 147 -180 171 -203 q 124 -124 124 -157 q 147 -68 124 -90 q 207 -46 171 -46 q 265 -68 242 -46 q 288 -124 288 -90 q 265 -180 288 -157 q 207 -203 242 -203 z "},"æ":{"ha":783,"x_min":-10,"x_max":808,"o":"m 114 -10 q 76 -8 99 -10 q 33 6 54 -6 q 1 44 13 17 q -3 124 -10 72 l 13 236 q 72 344 24 308 q 190 401 119 379 q 256 424 232 415 q 291 451 279 433 q 307 507 303 469 l 314 551 q 315 570 315 563 q 309 583 314 578 q 294 588 304 588 q 274 570 281 588 q 260 504 267 553 l 251 446 l 56 446 l 67 525 q 96 616 75 576 q 167 678 117 656 q 311 701 217 701 q 431 683 389 701 q 485 627 472 664 q 490 536 499 590 l 415 0 l 299 108 q 214 15 265 40 q 114 -10 163 -10 m 231 129 q 253 144 247 129 q 264 194 258 160 l 283 335 q 269 324 279 329 q 250 311 260 319 q 235 292 240 301 q 226 264 229 282 l 214 179 q 213 155 213 167 q 216 136 213 143 q 231 129 219 129 m 481 -3 q 393 3 432 -3 q 330 31 354 10 q 297 100 306 53 q 300 231 289 147 l 340 518 q 415 646 351 593 q 579 699 478 699 q 751 660 694 699 q 793 518 808 621 l 767 324 l 503 324 l 476 136 q 479 103 474 113 q 494 94 485 94 q 507 98 501 94 q 517 111 513 101 q 524 136 522 121 l 540 261 l 757 261 l 753 232 q 718 101 742 149 q 660 31 694 53 q 581 3 626 10 q 481 -3 536 -3 m 515 417 l 563 417 l 581 546 q 578 578 583 569 q 563 588 574 588 q 544 578 553 588 q 533 546 536 569 l 515 417 z "},"à":{"ha":543,"x_min":-1,"x_max":557,"o":"m 168 -11 q 97 -5 131 -11 q 40 23 64 1 q 8 90 17 44 q 10 213 -1 135 l 57 543 q 97 643 67 611 q 164 685 128 675 q 225 694 200 694 q 303 675 281 694 q 335 638 325 656 l 342 688 l 557 688 l 460 0 l 292 0 l 303 65 q 276 31 292 49 q 234 1 260 14 q 168 -11 208 -11 m 235 113 q 249 117 243 113 q 258 131 254 122 q 264 151 261 140 q 268 172 267 161 q 271 192 269 182 l 324 563 q 318 565 321 564 q 310 567 315 567 q 299 568 306 568 q 278 555 285 568 q 268 519 271 542 q 261 465 265 496 l 218 171 q 216 144 217 156 q 217 126 215 133 q 222 116 218 119 q 235 113 226 113 m 282 764 l 154 911 l 357 911 l 418 764 l 282 764 z "},"ả":{"ha":543,"x_min":-1,"x_max":557,"o":"m 168 -11 q 97 -5 131 -11 q 40 23 64 1 q 8 90 17 44 q 10 213 -1 135 l 57 543 q 97 643 67 611 q 164 685 128 675 q 225 694 200 694 q 303 675 281 694 q 335 638 325 656 l 342 688 l 557 688 l 460 0 l 292 0 l 303 65 q 276 31 292 49 q 234 1 260 14 q 168 -11 208 -11 m 235 113 q 249 117 243 113 q 258 131 254 122 q 264 151 261 140 q 268 172 267 161 q 271 192 269 182 l 324 563 q 318 565 321 564 q 310 567 315 567 q 299 568 306 568 q 278 555 285 568 q 268 519 271 542 q 261 465 265 496 l 218 171 q 216 144 217 156 q 217 126 215 133 q 222 116 218 119 q 235 113 226 113 m 272 746 l 276 779 q 292 809 279 800 q 319 825 306 818 q 335 847 332 832 l 338 864 q 338 880 340 874 q 326 886 336 886 q 307 858 311 886 l 215 872 q 256 939 224 917 q 346 961 289 961 q 438 935 408 961 q 457 858 468 908 l 456 851 q 440 810 450 821 q 418 796 429 799 q 399 790 407 793 q 389 769 392 786 l 386 746 l 272 746 z "},"ā":{"ha":543,"x_min":-1,"x_max":557,"o":"m 168 -11 q 97 -5 131 -11 q 40 23 64 1 q 8 90 17 44 q 10 213 -1 135 l 57 543 q 97 643 67 611 q 164 685 128 675 q 225 694 200 694 q 303 675 281 694 q 335 638 325 656 l 342 688 l 557 688 l 460 0 l 292 0 l 303 65 q 276 31 292 49 q 234 1 260 14 q 168 -11 208 -11 m 235 113 q 249 117 243 113 q 258 131 254 122 q 264 151 261 140 q 268 172 267 161 q 271 192 269 182 l 324 563 q 318 565 321 564 q 310 567 315 567 q 299 568 306 568 q 278 555 285 568 q 268 519 271 542 q 261 465 265 496 l 218 171 q 216 144 217 156 q 217 126 215 133 q 222 116 218 119 q 235 113 226 113 m 174 772 l 188 879 l 496 879 l 482 772 l 174 772 z "},"&":{"ha":624,"x_min":0,"x_max":610,"o":"m 206 -3 q 86 25 133 -3 q 19 103 39 53 q 10 226 0 154 q 49 329 18 281 q 136 389 81 378 q 121 457 125 421 q 126 538 117 493 q 194 664 143 621 q 333 707 244 707 q 424 701 378 707 q 507 687 471 694 q 556 674 543 679 l 533 519 q 505 526 531 521 q 443 537 479 532 q 371 542 407 542 q 335 531 350 542 q 314 504 321 521 q 308 467 307 488 q 319 428 310 447 q 331 406 325 417 q 342 385 336 396 q 354 365 347 375 q 368 344 361 354 l 385 450 l 610 450 l 592 318 l 503 318 q 498 292 501 306 q 491 264 494 278 q 482 235 488 250 q 528 209 501 224 q 572 188 554 194 l 546 -3 q 465 17 511 -3 q 383 64 419 38 q 333 27 360 42 q 274 5 306 13 q 206 -3 243 -3 m 236 144 q 262 147 250 144 q 283 156 274 150 q 233 215 257 183 q 190 281 210 247 q 184 267 186 274 q 181 250 182 260 q 186 174 169 203 q 236 144 203 144 z "},"ą":{"ha":543,"x_min":-1,"x_max":557,"o":"m 168 -11 q 97 -5 131 -11 q 40 23 64 1 q 8 90 17 44 q 10 213 -1 135 l 57 543 q 97 643 67 611 q 164 685 128 675 q 225 694 200 694 q 303 675 281 694 q 335 638 325 656 l 342 688 l 557 688 l 460 0 l 292 0 l 303 65 q 276 31 292 49 q 234 1 260 14 q 168 -11 208 -11 m 235 113 q 249 117 243 113 q 258 131 254 122 q 264 151 261 140 q 268 172 267 161 q 271 192 269 182 l 324 563 q 318 565 321 564 q 310 567 315 567 q 299 568 306 568 q 278 555 285 568 q 268 519 271 542 q 261 465 265 496 l 218 171 q 216 144 217 156 q 217 126 215 133 q 222 116 218 119 q 235 113 226 113 m 340 -210 q 250 -180 281 -210 q 225 -115 219 -150 q 269 -40 231 -76 q 367 3 308 -3 l 447 0 q 388 -35 408 -10 q 365 -85 368 -61 q 378 -124 363 -110 q 410 -137 393 -137 q 426 -135 419 -137 q 435 -133 432 -133 l 451 -185 q 418 -199 443 -189 q 340 -210 393 -210 z "},"≈":{"ha":768,"x_min":7,"x_max":761,"o":"m 529 404 q 435 424 478 407 q 350 458 393 440 q 254 478 307 475 q 189 458 215 481 q 154 407 163 435 l 49 407 q 87 508 57 461 q 167 585 117 556 q 281 613 217 615 q 370 595 329 611 q 451 564 411 579 q 533 546 490 549 q 613 563 590 543 q 643 607 635 583 l 761 607 q 712 476 750 521 q 625 416 674 431 q 529 404 576 401 m 486 106 q 394 125 436 108 q 308 159 351 142 q 213 179 265 176 q 147 159 174 182 q 113 108 119 136 l 7 108 q 44 210 14 163 q 124 287 75 257 q 238 314 174 317 q 328 297 288 313 q 409 265 369 281 q 492 247 449 250 q 571 265 549 244 q 601 308 593 285 l 719 308 q 669 177 707 222 q 583 117 632 132 q 486 106 533 103 z "},"å":{"ha":543,"x_min":-1,"x_max":557,"o":"m 168 -11 q 97 -5 131 -11 q 40 23 64 1 q 8 90 17 44 q 10 213 -1 135 l 57 543 q 97 643 67 611 q 164 685 128 675 q 225 694 200 694 q 303 675 281 694 q 335 638 325 656 l 342 688 l 557 688 l 460 0 l 292 0 l 303 65 q 276 31 292 49 q 234 1 260 14 q 168 -11 208 -11 m 235 113 q 249 117 243 113 q 258 131 254 122 q 264 151 261 140 q 268 172 267 161 q 271 192 269 182 l 324 563 q 318 565 321 564 q 310 567 315 567 q 299 568 306 568 q 278 555 285 568 q 268 519 271 542 q 261 465 265 496 l 218 171 q 216 144 217 156 q 217 126 215 133 q 222 116 218 119 q 235 113 226 113 m 335 749 q 247 784 279 749 q 222 869 215 819 q 271 958 229 922 q 368 993 313 993 q 454 957 421 993 q 481 869 488 921 q 431 784 474 819 q 335 749 388 749 m 346 831 q 378 842 364 831 q 394 869 393 853 q 386 901 397 889 q 357 913 375 913 q 325 901 339 913 q 308 869 311 889 q 317 842 307 853 q 346 831 328 831 z "},"^":{"ha":613,"x_min":19,"x_max":549,"o":"m 19 688 l 278 999 l 381 999 l 549 688 l 379 688 l 310 839 l 193 688 l 19 688 z "},"~":{"ha":768,"x_min":28,"x_max":740,"o":"m 507 704 q 415 723 457 707 q 329 756 372 739 q 233 778 286 774 q 168 758 194 781 q 133 707 142 735 l 28 707 q 66 809 36 761 q 146 886 96 857 q 260 913 196 915 q 349 895 308 911 q 430 864 390 879 q 513 846 469 849 q 592 863 569 843 q 622 907 614 883 l 740 907 q 690 776 728 821 q 603 717 653 732 q 507 704 554 703 z "},"*":{"ha":833,"x_min":47,"x_max":733,"o":"m 238 100 l 96 217 l 329 403 l 47 415 l 149 628 l 363 471 l 335 744 l 538 744 l 438 472 l 697 622 l 733 426 l 451 403 l 638 218 l 460 104 l 386 358 l 238 100 z "},"@":{"ha":975,"x_min":8,"x_max":971,"o":"m 403 -96 q 146 -44 233 -96 q 33 108 58 8 q 28 349 8 207 q 184 698 60 574 q 544 824 308 822 q 777 783 678 825 q 924 649 876 740 q 950 411 971 558 q 893 217 933 290 q 801 112 853 144 q 694 79 749 79 q 635 88 664 79 q 582 116 606 97 q 546 165 558 135 q 536 238 533 194 l 578 218 q 509 126 550 154 q 403 99 468 99 q 299 135 335 99 q 275 257 264 171 q 292 324 281 294 q 339 379 303 354 q 457 424 375 404 q 516 449 493 432 q 540 478 539 467 q 542 494 542 486 q 544 511 543 503 q 544 549 549 540 q 515 558 539 558 q 483 547 493 558 q 468 503 472 535 l 463 461 l 318 461 l 325 511 q 349 590 332 561 q 406 632 365 619 q 524 644 446 644 q 649 628 608 644 q 701 580 690 613 q 704 494 713 547 l 672 263 q 682 181 664 203 q 732 158 700 158 q 774 178 753 158 q 812 247 794 197 q 842 385 829 296 q 831 576 858 496 q 731 698 803 656 q 540 740 660 740 q 338 703 421 740 q 206 581 256 667 q 135 347 156 494 q 135 166 119 236 q 191 58 150 96 q 294 6 232 21 q 435 -12 356 -10 q 512 -10 463 -14 q 616 2 561 -6 q 717 21 671 10 q 785 44 764 32 l 774 -33 q 689 -60 744 -44 q 560 -85 633 -75 q 403 -96 486 -96 m 465 210 q 499 220 489 210 q 514 243 510 231 q 519 264 518 256 l 533 363 q 488 356 507 363 q 457 342 468 350 q 442 328 449 336 q 432 307 436 319 q 425 276 428 294 q 424 228 421 246 q 465 210 428 210 z "},"ã":{"ha":543,"x_min":-1,"x_max":557,"o":"m 168 -11 q 97 -5 131 -11 q 40 23 64 1 q 8 90 17 44 q 10 213 -1 135 l 57 543 q 97 643 67 611 q 164 685 128 675 q 225 694 200 694 q 303 675 281 694 q 335 638 325 656 l 342 688 l 557 688 l 460 0 l 292 0 l 303 65 q 276 31 292 49 q 234 1 260 14 q 168 -11 208 -11 m 235 113 q 249 117 243 113 q 258 131 254 122 q 264 151 261 140 q 268 172 267 161 q 271 192 269 182 l 324 563 q 318 565 321 564 q 310 567 315 567 q 299 568 306 568 q 278 555 285 568 q 268 519 271 542 q 261 465 265 496 l 218 171 q 216 144 217 156 q 217 126 215 133 q 222 116 218 119 q 235 113 226 113 m 406 761 q 363 771 382 761 q 325 790 343 781 q 294 806 310 800 q 263 813 279 813 q 233 798 244 813 q 217 763 221 783 l 160 763 q 201 868 168 828 q 278 908 233 908 q 322 901 303 908 q 360 883 342 893 q 390 868 375 875 q 421 861 406 861 q 453 874 443 861 q 469 904 464 888 l 533 904 q 483 797 524 833 q 406 761 442 761 z "},"b":{"ha":543,"x_min":-14,"x_max":550,"o":"m 276 -10 q 188 16 217 -10 q 151 60 158 42 l 139 0 l -14 0 l 110 875 l 326 875 l 293 639 q 336 680 308 658 q 415 701 364 701 q 466 696 440 701 q 512 674 492 690 q 541 626 532 657 q 543 543 550 594 l 497 214 q 465 90 486 135 q 415 24 444 44 q 351 -3 386 3 q 276 -10 317 -10 m 246 136 q 263 142 257 136 q 272 158 268 147 q 276 185 275 169 l 324 525 q 326 545 326 538 q 323 558 325 553 q 317 565 321 563 q 307 567 313 567 q 294 563 300 567 q 284 551 289 560 q 276 525 279 542 l 229 185 q 228 163 228 172 q 229 148 228 154 q 235 139 231 142 q 246 136 239 136 z "},"\\":{"ha":833,"x_min":107,"x_max":599,"o":"m 451 -61 l 107 875 l 256 875 l 599 -61 l 451 -61 z "},"|":{"ha":465,"x_min":54,"x_max":411,"o":"m 54 -329 l 224 875 l 411 875 l 242 -329 l 54 -329 z "},"б":{"ha":536,"x_min":-7,"x_max":553,"o":"m 208 -10 q 97 1 147 -10 q 20 48 47 13 q 3 154 -7 83 l 69 636 q 96 761 79 707 q 148 845 113 815 q 249 875 183 875 q 308 878 271 875 q 386 885 344 881 q 466 894 428 889 q 528 904 504 899 q 553 914 551 910 q 547 874 550 894 q 542 835 544 854 q 513 783 538 804 q 431 758 489 761 l 417 758 q 334 746 360 758 q 301 713 308 733 q 290 667 294 692 l 286 639 q 327 678 301 658 q 404 699 353 699 q 473 688 439 699 q 526 645 507 678 q 536 543 546 613 l 490 214 q 457 90 479 135 q 400 24 435 44 q 318 -3 365 3 q 208 -10 271 -10 m 235 111 q 249 115 243 111 q 258 128 254 118 q 265 153 263 138 l 317 525 q 318 551 319 542 q 313 563 317 560 q 300 567 308 567 q 290 565 294 567 q 281 558 285 563 q 275 545 278 553 q 269 525 272 538 l 218 153 q 217 128 215 138 q 223 115 218 118 q 235 111 228 111 z "},"{":{"ha":490,"x_min":14,"x_max":513,"o":"m 357 -189 q 142 -156 218 -189 q 40 -74 67 -124 q 21 25 14 -25 q 52 119 29 83 q 101 179 75 156 q 147 223 126 203 q 171 268 167 243 q 166 304 174 289 q 140 328 158 319 q 90 338 122 338 l 99 397 q 144 410 124 397 q 178 442 164 422 q 196 485 193 463 q 185 521 199 501 q 152 564 171 540 q 122 620 133 588 q 115 697 110 653 q 163 807 124 756 q 285 891 201 858 q 513 924 369 924 l 497 814 q 430 801 461 808 q 377 770 399 793 q 349 697 356 747 q 351 628 343 657 q 370 575 358 599 q 390 526 382 551 q 393 469 397 501 q 377 426 390 450 q 337 385 364 403 q 265 368 310 368 q 343 349 311 368 q 368 276 375 331 q 351 230 364 253 q 322 181 339 207 q 292 124 306 156 q 272 49 278 92 q 283 -29 265 -1 q 326 -68 300 -57 q 372 -79 353 -79 l 357 -189 z "},"}":{"ha":490,"x_min":-22,"x_max":475,"o":"m -22 -189 l -7 -79 q 42 -68 13 -79 q 97 -29 72 -57 q 129 49 122 -1 q 130 124 135 92 q 115 181 125 156 q 99 230 106 207 q 97 276 93 253 q 142 349 104 331 q 225 368 179 368 q 158 385 181 368 q 129 426 136 403 q 125 469 122 450 q 144 526 129 501 q 178 575 160 551 q 213 628 197 599 q 233 697 228 657 q 226 770 240 747 q 182 801 211 793 q 118 814 153 808 l 133 924 q 351 891 276 924 q 451 807 426 858 q 467 697 475 756 q 440 620 461 653 q 393 564 418 588 q 349 521 368 540 q 328 485 331 501 q 333 442 325 463 q 358 410 340 422 q 400 397 376 397 l 392 338 q 340 328 361 338 q 306 304 318 319 q 292 268 294 289 q 302 223 288 243 q 336 179 317 203 q 368 119 356 156 q 372 25 381 83 q 325 -74 365 -25 q 201 -156 285 -124 q -22 -189 117 -189 z "},"[":{"ha":463,"x_min":-11,"x_max":474,"o":"m -11 -79 l 122 875 l 474 875 l 458 764 l 311 764 l 208 32 l 356 32 l 340 -79 l -11 -79 z "},"]":{"ha":463,"x_min":-11,"x_max":474,"o":"m -11 -79 l 4 32 l 151 32 l 254 764 l 107 764 l 122 875 l 474 875 l 340 -79 l -11 -79 z "},"˘":{"ha":347,"x_min":78,"x_max":428,"o":"m 229 765 q 142 781 174 765 q 96 819 110 796 q 80 869 82 843 q 81 915 78 894 l 194 915 q 207 878 190 890 q 246 865 224 865 q 288 877 269 865 q 313 915 307 889 l 428 915 q 399 840 422 874 q 335 785 376 806 q 229 765 293 765 z "},"̆":{"ha":0,"x_min":78,"x_max":428,"o":"m 229 765 q 142 781 174 765 q 96 819 110 796 q 80 869 82 843 q 81 915 78 894 l 194 915 q 207 878 190 890 q 246 865 224 865 q 288 877 269 865 q 313 915 307 889 l 428 915 q 399 840 422 874 q 335 785 376 806 q 229 765 293 765 z "},"¦":{"ha":326,"x_min":-4,"x_max":331,"o":"m -4 -229 l 64 251 l 251 251 l 183 -229 l -4 -229 m 81 371 l 143 813 l 331 813 l 268 371 l 81 371 z "},"•":{"ha":490,"x_min":56,"x_max":435,"o":"m 246 199 q 150 224 193 199 q 81 293 107 250 q 56 389 56 336 q 81 484 56 442 q 150 552 107 526 q 246 578 193 578 q 341 552 299 578 q 409 484 383 526 q 435 389 435 442 q 409 293 435 336 q 341 224 383 250 q 246 199 299 199 z "},"c":{"ha":529,"x_min":0,"x_max":549,"o":"m 218 -17 q 119 -8 163 -17 q 48 24 76 0 q 10 98 19 49 q 13 231 0 147 l 53 518 q 135 660 68 621 q 318 699 203 699 q 491 660 433 699 q 533 518 549 621 l 518 408 l 301 408 l 321 546 q 319 578 324 569 q 303 588 314 588 q 285 578 293 588 q 274 546 276 569 l 215 136 q 218 103 213 113 q 233 94 224 94 q 252 103 244 94 q 263 136 260 113 l 285 296 l 501 296 l 493 232 q 441 68 478 121 q 348 -1 404 15 q 218 -17 292 -17 z "},"ć":{"ha":529,"x_min":0,"x_max":549,"o":"m 218 -17 q 119 -8 163 -17 q 48 24 76 0 q 10 98 19 49 q 13 231 0 147 l 53 518 q 135 660 68 621 q 318 699 203 699 q 491 660 433 699 q 533 518 549 621 l 518 408 l 301 408 l 321 546 q 319 578 324 569 q 303 588 314 588 q 285 578 293 588 q 274 546 276 569 l 215 136 q 218 103 213 113 q 233 94 224 94 q 252 103 244 94 q 263 136 260 113 l 285 296 l 501 296 l 493 232 q 441 68 478 121 q 348 -1 404 15 q 218 -17 292 -17 m 229 764 l 321 911 l 524 911 l 365 764 l 229 764 z "},"ˇ":{"ha":392,"x_min":81,"x_max":472,"o":"m 196 757 l 81 918 l 208 918 l 267 850 l 347 918 l 472 918 l 311 757 l 196 757 z "},"̌":{"ha":0,"x_min":81,"x_max":472,"o":"m 196 757 l 81 918 l 208 918 l 267 850 l 347 918 l 472 918 l 311 757 l 196 757 z "},"č":{"ha":529,"x_min":0,"x_max":549,"o":"m 218 -17 q 119 -8 163 -17 q 48 24 76 0 q 10 98 19 49 q 13 231 0 147 l 53 518 q 135 660 68 621 q 318 699 203 699 q 491 660 433 699 q 533 518 549 621 l 518 408 l 301 408 l 321 546 q 319 578 324 569 q 303 588 314 588 q 285 578 293 588 q 274 546 276 569 l 215 136 q 218 103 213 113 q 233 94 224 94 q 252 103 244 94 q 263 136 260 113 l 285 296 l 501 296 l 493 232 q 441 68 478 121 q 348 -1 404 15 q 218 -17 292 -17 m 265 757 l 150 918 l 278 918 l 336 850 l 417 918 l 542 918 l 381 757 l 265 757 z "},"ç":{"ha":529,"x_min":0,"x_max":549,"o":"m 218 -17 q 119 -8 163 -17 q 48 24 76 0 q 10 98 19 49 q 13 231 0 147 l 53 518 q 135 660 68 621 q 318 699 203 699 q 491 660 433 699 q 533 518 549 621 l 518 408 l 301 408 l 321 546 q 319 578 324 569 q 303 588 314 588 q 285 578 293 588 q 274 546 276 569 l 215 136 q 218 103 213 113 q 233 94 224 94 q 252 103 244 94 q 263 136 260 113 l 285 296 l 501 296 l 493 232 q 441 68 478 121 q 348 -1 404 15 q 218 -17 292 -17 m 174 -233 q 118 -222 143 -233 q 85 -204 93 -210 l 121 -139 q 143 -153 128 -146 q 175 -160 158 -160 q 204 -151 193 -160 q 217 -126 215 -142 q 196 -103 221 -103 q 182 -106 188 -103 q 174 -111 176 -108 l 122 -81 l 176 0 l 256 0 l 210 -65 l 201 -60 q 225 -50 211 -54 q 257 -46 239 -46 q 319 -72 301 -46 q 333 -131 338 -99 q 285 -203 328 -172 q 174 -233 242 -233 z "},"ċ":{"ha":529,"x_min":0,"x_max":549,"o":"m 218 -17 q 119 -8 163 -17 q 48 24 76 0 q 10 98 19 49 q 13 231 0 147 l 53 518 q 135 660 68 621 q 318 699 203 699 q 491 660 433 699 q 533 518 549 621 l 518 408 l 301 408 l 321 546 q 319 578 324 569 q 303 588 314 588 q 285 578 293 588 q 274 546 276 569 l 215 136 q 218 103 213 113 q 233 94 224 94 q 252 103 244 94 q 263 136 260 113 l 285 296 l 501 296 l 493 232 q 441 68 478 121 q 348 -1 404 15 q 218 -17 292 -17 m 336 746 q 263 776 293 746 q 231 847 232 806 q 263 920 231 890 q 338 950 294 950 q 413 920 382 950 q 444 847 444 890 q 413 776 446 806 q 336 746 381 746 z "},"¸":{"ha":239,"x_min":-76,"x_max":176,"o":"m 13 -233 q -43 -222 -18 -233 q -76 -204 -68 -210 l -40 -139 q -18 -153 -33 -146 q 14 -160 -3 -160 q 43 -151 32 -160 q 56 -126 54 -142 q 35 -103 60 -103 q 21 -106 26 -103 q 13 -111 15 -108 l -39 -81 l 15 0 l 94 0 l 49 -65 l 40 -60 q 64 -50 50 -54 q 96 -46 78 -46 q 158 -72 140 -46 q 172 -131 176 -99 q 124 -203 167 -172 q 13 -233 81 -233 z "},"̧":{"ha":0,"x_min":-89,"x_max":164,"o":"m 0 -233 q -56 -222 -31 -233 q -89 -204 -81 -210 l -53 -139 q -31 -153 -46 -146 q 1 -160 -15 -160 q 31 -151 19 -160 q 43 -126 42 -142 q 22 -103 47 -103 q 8 -106 14 -103 q 0 -111 3 -108 l -51 -81 l 3 0 l 82 0 l 36 -65 l 28 -60 q 51 -50 38 -54 q 83 -46 65 -46 q 146 -72 128 -46 q 160 -131 164 -99 q 111 -203 154 -172 q 0 -233 68 -233 z "},"¢":{"ha":531,"x_min":14,"x_max":526,"o":"m 133 -93 l 156 68 q 73 93 107 74 q 26 157 39 113 q 25 282 14 201 l 72 621 q 103 703 79 671 q 167 754 128 736 q 256 776 206 772 l 272 903 l 406 903 l 388 771 q 463 745 431 764 q 510 696 494 726 q 519 621 526 665 l 497 463 l 308 463 l 332 633 q 330 654 335 647 q 317 665 325 661 q 303 668 310 668 q 289 665 297 668 q 274 654 281 661 q 264 633 267 647 l 204 210 q 208 188 203 196 q 220 177 213 181 q 233 174 228 174 q 248 177 240 174 q 263 188 256 181 q 272 210 271 196 l 296 371 l 485 371 l 472 283 q 436 169 463 213 q 372 103 410 125 q 289 74 335 82 l 267 -93 l 133 -93 z "},"ч":{"ha":546,"x_min":14,"x_max":560,"o":"m 261 0 l 290 207 q 235 133 276 158 q 150 107 194 107 q 58 127 89 107 q 21 188 28 147 q 22 289 14 229 l 79 688 l 296 688 l 240 290 q 242 261 238 271 q 258 251 247 251 q 271 252 264 251 q 282 256 278 253 l 343 688 l 560 688 l 463 0 l 261 0 z "},"ˆ":{"ha":392,"x_min":58,"x_max":450,"o":"m 58 757 l 218 918 l 333 918 l 450 757 l 325 757 l 265 829 l 186 757 l 58 757 z "},"̂":{"ha":0,"x_min":58,"x_max":450,"o":"m 58 757 l 218 918 l 333 918 l 450 757 l 325 757 l 265 829 l 186 757 l 58 757 z "},":":{"ha":206,"x_min":25,"x_max":146,"o":"m 107 390 q 86 399 94 390 q 79 421 78 408 q 92 442 82 433 q 115 451 103 451 q 137 442 128 451 q 143 421 146 433 q 131 399 142 408 q 107 390 119 390 m 54 -7 q 33 2 42 -7 q 26 24 25 11 q 40 45 29 36 q 63 54 50 54 q 84 45 75 54 q 90 24 93 36 q 78 2 89 11 q 54 -7 67 -7 z "},",":{"ha":353,"x_min":-11,"x_max":244,"o":"m -11 -236 q 49 -133 24 -179 q 75 -46 75 -87 q 65 -6 75 -19 q 43 23 54 7 q 32 69 32 39 q 65 145 32 114 q 146 176 99 176 q 217 150 190 176 q 244 81 244 124 q 218 -22 244 38 q 154 -137 192 -81 q 82 -236 117 -194 l -11 -236 z "},"̦":{"ha":0,"x_min":-90,"x_max":119,"o":"m -90 -297 q -46 -237 -62 -264 q -28 -194 -29 -211 q -37 -175 -26 -183 q -56 -154 -47 -167 q -62 -121 -65 -142 q -33 -75 -60 -96 q 33 -54 -6 -54 q 97 -76 74 -54 q 115 -131 119 -97 q 93 -183 113 -151 q 47 -244 74 -214 q -4 -297 21 -275 l -90 -297 z "},"̒":{"ha":0,"x_min":63,"x_max":272,"o":"m 272 982 q 229 922 246 949 q 210 879 213 896 q 219 860 208 868 q 239 840 229 851 q 244 806 249 828 q 215 760 242 781 q 149 739 188 739 q 85 760 108 739 q 67 815 63 782 q 90 868 71 838 q 136 929 110 899 q 186 982 163 960 l 272 982 z "},"©":{"ha":833,"x_min":19,"x_max":829,"o":"m 371 42 q 181 94 263 42 q 60 235 100 147 q 35 432 19 324 q 86 583 46 513 q 188 708 126 654 q 324 791 249 761 q 479 821 399 821 q 668 769 588 821 q 789 628 749 717 q 814 432 829 540 q 763 281 803 351 q 662 156 722 210 q 526 72 601 101 q 371 42 451 42 m 381 119 q 504 144 444 119 q 613 211 564 168 q 693 311 661 254 q 733 432 725 368 q 714 588 746 518 q 618 700 682 658 q 468 742 554 742 q 344 717 404 742 q 236 651 285 693 q 156 552 188 608 q 115 432 124 496 q 123 311 107 368 q 175 211 139 254 q 264 144 211 168 q 381 119 317 119 m 360 200 q 294 206 322 200 q 249 228 265 211 q 230 278 232 244 q 244 367 228 311 l 299 561 q 367 657 318 631 q 496 683 417 683 q 608 657 574 683 q 624 561 643 631 l 603 488 l 457 488 l 482 581 q 485 602 488 596 q 474 608 482 608 q 461 602 467 608 q 450 581 456 596 l 372 303 q 371 281 368 288 q 381 275 374 275 q 394 281 388 275 q 404 303 400 288 l 435 411 l 581 411 l 569 368 q 517 257 547 293 q 449 210 488 221 q 360 200 410 200 z "},"¤":{"ha":786,"x_min":42,"x_max":744,"o":"m 140 71 l 44 167 l 197 321 q 178 367 185 343 q 172 419 172 392 q 196 517 172 472 l 42 671 l 138 767 l 294 611 q 393 633 340 633 q 489 613 446 633 l 646 771 l 742 675 l 588 519 q 614 419 614 475 q 589 321 614 365 l 744 168 l 649 72 l 490 229 q 442 213 467 218 q 393 207 418 207 q 296 228 340 207 l 140 71 m 393 346 q 443 367 422 346 q 464 418 464 388 q 443 471 464 450 q 393 492 422 492 q 343 471 364 492 q 322 418 322 450 q 343 367 322 388 q 393 346 364 346 z "},"d":{"ha":543,"x_min":-1,"x_max":583,"o":"m 167 -10 q 94 -3 128 -10 q 38 24 61 3 q 7 90 15 44 q 10 214 -1 135 l 56 543 q 97 643 65 611 q 163 685 128 675 q 222 694 199 694 q 301 676 278 694 q 333 639 324 658 l 367 875 l 583 875 l 460 0 l 314 0 l 301 65 q 278 38 294 56 q 235 5 263 19 q 167 -10 207 -10 m 235 111 q 244 113 240 111 q 253 120 249 115 q 260 133 257 125 q 265 153 264 140 q 294 358 279 256 q 322 563 308 461 q 319 564 322 563 q 312 566 317 565 q 300 567 307 567 q 287 563 293 567 q 276 551 281 560 q 269 525 272 542 l 218 153 q 217 133 217 140 q 220 120 218 125 q 226 113 222 115 q 235 111 229 111 z "},"†":{"ha":550,"x_min":56,"x_max":539,"o":"m 113 -167 l 196 419 l 56 419 l 71 533 l 211 533 l 251 813 l 439 813 l 399 533 l 539 533 l 524 419 l 383 419 l 300 -167 l 113 -167 z "},"‡":{"ha":560,"x_min":14,"x_max":549,"o":"m 113 -167 l 158 160 l 14 160 l 32 289 l 176 289 l 199 443 l 54 443 l 72 572 l 217 572 l 260 875 l 449 875 l 406 572 l 549 572 l 531 443 l 388 443 l 365 289 l 508 289 l 490 160 l 347 160 l 301 -167 l 113 -167 z "},"ď":{"ha":703,"x_min":-1,"x_max":799,"o":"m 167 -10 q 94 -3 128 -10 q 38 24 61 3 q 7 90 15 44 q 10 214 -1 135 l 56 543 q 97 643 65 611 q 163 685 128 675 q 222 694 199 694 q 301 676 278 694 q 333 639 324 658 l 367 875 l 583 875 l 460 0 l 314 0 l 301 65 q 278 38 294 56 q 235 5 263 19 q 167 -10 207 -10 m 235 111 q 244 113 240 111 q 253 120 249 115 q 260 133 257 125 q 265 153 264 140 q 294 358 279 256 q 322 563 308 461 q 319 564 322 563 q 312 566 317 565 q 300 567 307 567 q 287 563 293 567 q 276 551 281 560 q 269 525 272 542 l 218 153 q 217 133 217 140 q 220 120 218 125 q 226 113 222 115 q 235 111 229 111 m 601 674 l 671 897 l 799 897 l 675 674 l 601 674 z "},"đ":{"ha":543,"x_min":-1,"x_max":622,"o":"m 267 736 l 278 813 l 622 813 l 611 736 l 267 736 m 167 -10 q 94 -3 128 -10 q 38 24 61 3 q 7 90 15 44 q 10 214 -1 135 l 56 543 q 97 643 65 611 q 163 685 128 675 q 222 694 199 694 q 301 676 278 694 q 333 639 324 658 l 367 875 l 583 875 l 460 0 l 314 0 l 301 65 q 278 38 294 56 q 235 5 263 19 q 167 -10 207 -10 m 235 111 q 244 113 240 111 q 253 120 249 115 q 260 133 257 125 q 265 153 264 140 q 294 358 279 256 q 322 563 308 461 q 319 564 322 563 q 312 566 317 565 q 300 567 307 567 q 287 563 293 567 q 276 551 281 560 q 269 525 272 542 l 218 153 q 217 133 217 140 q 220 120 218 125 q 226 113 222 115 q 235 111 229 111 z "},"д":{"ha":778,"x_min":-57,"x_max":733,"o":"m -57 -165 l -17 125 l 22 125 q 61 142 38 128 q 109 188 85 157 q 146 271 133 219 l 254 688 l 703 688 l 624 125 l 733 125 l 693 -165 l 514 -165 l 531 -44 l 139 -44 l 122 -165 l -57 -165 m 293 125 l 393 125 l 451 533 l 431 533 l 357 269 q 331 181 346 225 q 293 125 315 136 z "},"°":{"ha":463,"x_min":32,"x_max":428,"o":"m 204 451 q 69 506 107 451 q 42 635 32 560 q 103 767 53 713 q 260 821 154 821 q 367 796 331 821 q 416 729 404 771 q 421 638 428 688 q 356 503 410 556 q 204 451 301 451 m 219 546 q 281 572 256 546 q 313 636 307 597 q 301 700 318 672 q 243 728 283 728 q 181 700 207 728 q 150 635 156 672 q 164 572 144 597 q 219 546 183 546 z "},"¨":{"ha":358,"x_min":71,"x_max":428,"o":"m 154 761 q 94 784 118 761 q 71 840 71 807 q 94 896 71 874 q 154 918 118 918 q 212 896 189 918 q 235 840 235 874 q 212 784 235 807 q 154 761 189 761 m 347 761 q 288 784 311 761 q 264 840 264 807 q 288 896 264 874 q 347 918 311 918 q 405 896 382 918 q 428 840 428 874 q 405 784 428 807 q 347 761 382 761 z "},"̈":{"ha":0,"x_min":71,"x_max":428,"o":"m 154 761 q 94 784 118 761 q 71 840 71 807 q 94 896 71 874 q 154 918 118 918 q 212 896 189 918 q 235 840 235 874 q 212 784 235 807 q 154 761 189 761 m 347 761 q 288 784 311 761 q 264 840 264 807 q 288 896 264 874 q 347 918 311 918 q 405 896 382 918 q 428 840 428 874 q 405 784 428 807 q 347 761 382 761 z "},"÷":{"ha":560,"x_min":46,"x_max":514,"o":"m 46 325 l 65 468 l 514 468 l 494 325 l 46 325 m 235 78 q 169 104 193 78 q 150 169 144 131 q 188 238 156 210 q 261 265 219 265 q 327 238 303 265 q 346 169 351 210 q 308 104 340 131 q 235 78 276 78 m 296 531 q 231 558 256 531 q 213 624 207 585 q 250 691 218 664 q 322 718 282 718 q 389 691 364 718 q 408 624 414 664 q 370 558 403 585 q 296 531 338 531 z "},"∕":{"ha":497,"x_min":-140,"x_max":651,"o":"m -140 -214 l 503 1000 l 651 1000 l 7 -214 l -140 -214 z "},"ђ":{"ha":638,"x_min":54,"x_max":617,"o":"m 343 -126 q 307 -120 324 -126 q 282 -107 290 -114 q 292 -60 288 -83 q 300 -12 296 -36 q 305 -15 303 -14 q 308 -15 307 -15 q 327 -6 319 -15 q 338 26 335 3 l 389 390 q 390 416 392 407 q 383 428 388 425 q 371 432 379 432 q 365 431 368 432 q 358 428 361 431 q 351 424 354 426 q 344 418 347 422 l 286 0 l 65 0 l 158 660 l 54 660 l 69 772 l 174 772 l 189 875 l 410 875 l 394 772 l 513 772 l 497 660 l 379 660 l 357 507 q 399 546 372 528 q 475 564 426 564 q 544 553 510 564 q 597 510 578 543 q 607 408 617 478 l 563 88 q 531 -35 551 8 q 481 -99 510 -79 q 418 -122 453 -118 q 343 -126 383 -126 z "},"$":{"ha":501,"x_min":-1,"x_max":538,"o":"m 142 -82 l 161 65 q 28 130 57 75 q 13 282 -1 185 l 19 329 l 225 329 l 213 233 q 210 202 210 215 q 213 183 210 189 q 226 176 217 176 q 241 181 236 176 q 249 195 246 186 q 254 214 253 204 l 263 278 q 256 329 268 313 q 222 356 244 346 q 168 381 199 367 q 115 412 140 393 q 74 463 89 431 q 67 547 60 496 l 72 586 q 127 719 85 671 q 263 779 169 767 l 278 894 l 393 894 l 378 782 q 509 720 481 772 q 524 572 538 668 l 517 528 l 319 528 l 332 615 q 334 656 336 643 q 317 669 332 669 q 297 659 303 669 q 289 633 292 649 l 279 568 q 292 519 275 536 q 336 494 310 503 q 385 476 363 486 q 440 447 414 465 q 481 397 467 428 q 488 318 494 367 l 481 268 q 450 166 472 208 q 386 99 428 124 q 276 65 344 74 l 257 -82 l 142 -82 z "},"˙":{"ha":165,"x_min":72,"x_max":288,"o":"m 178 746 q 104 776 135 746 q 72 847 74 806 q 104 920 72 890 q 179 950 136 950 q 255 920 224 950 q 286 847 286 890 q 255 776 288 806 q 178 746 222 746 z "},"̇":{"ha":0,"x_min":72,"x_max":288,"o":"m 178 746 q 104 776 135 746 q 72 847 74 806 q 104 920 72 890 q 179 950 136 950 q 255 920 224 950 q 286 847 286 890 q 255 776 288 806 q 178 746 222 746 z "},"̣":{"ha":0,"x_min":-65,"x_max":99,"o":"m 18 -203 q -42 -180 -18 -203 q -65 -124 -65 -157 q -42 -68 -65 -90 q 18 -46 -18 -46 q 76 -68 53 -46 q 99 -124 99 -90 q 76 -180 99 -157 q 18 -203 53 -203 z "},"↓":{"ha":754,"x_min":42,"x_max":713,"o":"m 379 -1 l 42 431 l 146 535 l 289 374 l 296 1025 l 467 1024 l 464 378 l 608 533 l 713 429 l 379 -1 z "},"ѕ":{"ha":531,"x_min":-12,"x_max":543,"o":"m 210 -19 q 92 -6 138 -19 q 22 35 46 8 q -7 104 -1 63 q -4 200 -12 146 l 3 247 l 221 247 l 207 151 q 204 120 204 133 q 208 101 204 107 q 222 94 213 94 q 238 99 232 94 q 247 113 243 104 q 251 132 250 122 l 260 196 q 253 248 265 231 q 216 275 240 265 q 160 299 192 285 q 102 330 131 311 q 59 381 74 349 q 51 465 44 414 l 57 504 q 94 615 67 571 q 178 680 122 658 q 328 701 235 701 q 469 678 422 701 q 530 608 517 654 q 533 490 543 561 l 528 446 l 318 446 l 329 533 q 331 574 332 561 q 314 588 329 588 q 294 577 300 588 q 285 551 288 567 l 276 486 q 290 438 272 454 q 335 413 307 421 q 386 394 363 404 q 446 365 418 383 q 489 315 474 346 q 497 236 504 285 l 490 186 q 452 72 481 118 q 365 3 424 26 q 210 -19 307 -19 z "},"џ":{"ha":550,"x_min":-14,"x_max":564,"o":"m 128 -137 l 147 0 l -14 0 l 83 688 l 300 688 l 225 154 l 272 154 l 347 688 l 564 688 l 467 0 l 303 0 l 283 -137 l 128 -137 z "},"e":{"ha":522,"x_min":-3,"x_max":547,"o":"m 218 -18 q 92 0 144 -18 q 19 71 40 18 q 11 226 -3 124 l 53 518 q 131 659 68 621 q 292 697 194 697 q 488 659 428 697 q 532 514 547 621 q 490 413 524 453 q 409 351 456 374 q 315 321 363 329 q 233 313 268 313 l 214 163 q 215 114 210 128 q 233 100 219 100 q 253 110 244 100 q 267 156 261 121 l 282 263 l 496 263 l 486 190 q 444 58 475 103 q 359 -3 414 13 q 218 -18 304 -18 m 251 417 q 266 419 257 417 q 285 430 275 421 q 303 458 294 439 q 317 513 313 478 q 321 563 319 536 q 301 589 322 589 q 277 574 286 589 q 261 497 268 558 l 251 417 z "},"é":{"ha":522,"x_min":-3,"x_max":547,"o":"m 218 -18 q 92 0 144 -18 q 19 71 40 18 q 11 226 -3 124 l 53 518 q 131 659 68 621 q 292 697 194 697 q 488 659 428 697 q 532 514 547 621 q 490 413 524 453 q 409 351 456 374 q 315 321 363 329 q 233 313 268 313 l 214 163 q 215 114 210 128 q 233 100 219 100 q 253 110 244 100 q 267 156 261 121 l 282 263 l 496 263 l 486 190 q 444 58 475 103 q 359 -3 414 13 q 218 -18 304 -18 m 251 417 q 266 419 257 417 q 285 430 275 421 q 303 458 294 439 q 317 513 313 478 q 321 563 319 536 q 301 589 322 589 q 277 574 286 589 q 261 497 268 558 l 251 417 m 225 764 l 317 911 l 519 911 l 361 764 l 225 764 z "},"ě":{"ha":522,"x_min":-3,"x_max":547,"o":"m 218 -18 q 92 0 144 -18 q 19 71 40 18 q 11 226 -3 124 l 53 518 q 131 659 68 621 q 292 697 194 697 q 488 659 428 697 q 532 514 547 621 q 490 413 524 453 q 409 351 456 374 q 315 321 363 329 q 233 313 268 313 l 214 163 q 215 114 210 128 q 233 100 219 100 q 253 110 244 100 q 267 156 261 121 l 282 263 l 496 263 l 486 190 q 444 58 475 103 q 359 -3 414 13 q 218 -18 304 -18 m 251 417 q 266 419 257 417 q 285 430 275 421 q 303 458 294 439 q 317 513 313 478 q 321 563 319 536 q 301 589 322 589 q 277 574 286 589 q 261 497 268 558 l 251 417 m 261 757 l 146 918 l 274 918 l 332 850 l 413 918 l 538 918 l 376 757 l 261 757 z "},"ê":{"ha":522,"x_min":-3,"x_max":547,"o":"m 218 -18 q 92 0 144 -18 q 19 71 40 18 q 11 226 -3 124 l 53 518 q 131 659 68 621 q 292 697 194 697 q 488 659 428 697 q 532 514 547 621 q 490 413 524 453 q 409 351 456 374 q 315 321 363 329 q 233 313 268 313 l 214 163 q 215 114 210 128 q 233 100 219 100 q 253 110 244 100 q 267 156 261 121 l 282 263 l 496 263 l 486 190 q 444 58 475 103 q 359 -3 414 13 q 218 -18 304 -18 m 251 417 q 266 419 257 417 q 285 430 275 421 q 303 458 294 439 q 317 513 313 478 q 321 563 319 536 q 301 589 322 589 q 277 574 286 589 q 261 497 268 558 l 251 417 m 124 757 l 283 918 l 399 918 l 515 757 l 390 757 l 331 829 l 251 757 l 124 757 z "},"ế":{"ha":522,"x_min":-3,"x_max":800,"o":"m 218 -18 q 92 0 144 -18 q 19 71 40 18 q 11 226 -3 124 l 53 518 q 131 659 68 621 q 292 697 194 697 q 488 659 428 697 q 532 514 547 621 q 490 413 524 453 q 409 351 456 374 q 315 321 363 329 q 233 313 268 313 l 214 163 q 215 114 210 128 q 233 100 219 100 q 253 110 244 100 q 267 156 261 121 l 282 263 l 496 263 l 486 190 q 444 58 475 103 q 359 -3 414 13 q 218 -18 304 -18 m 251 417 q 266 419 257 417 q 285 430 275 421 q 303 458 294 439 q 317 513 313 478 q 321 563 319 536 q 301 589 322 589 q 277 574 286 589 q 261 497 268 558 l 251 417 m 124 757 l 283 918 l 399 918 l 515 757 l 390 757 l 331 829 l 251 757 l 124 757 m 506 853 l 597 1000 l 800 1000 l 642 853 l 506 853 z "},"ệ":{"ha":522,"x_min":-3,"x_max":547,"o":"m 218 -18 q 92 0 144 -18 q 19 71 40 18 q 11 226 -3 124 l 53 518 q 131 659 68 621 q 292 697 194 697 q 488 659 428 697 q 532 514 547 621 q 490 413 524 453 q 409 351 456 374 q 315 321 363 329 q 233 313 268 313 l 214 163 q 215 114 210 128 q 233 100 219 100 q 253 110 244 100 q 267 156 261 121 l 282 263 l 496 263 l 486 190 q 444 58 475 103 q 359 -3 414 13 q 218 -18 304 -18 m 251 417 q 266 419 257 417 q 285 430 275 421 q 303 458 294 439 q 317 513 313 478 q 321 563 319 536 q 301 589 322 589 q 277 574 286 589 q 261 497 268 558 l 251 417 m 196 -203 q 136 -180 160 -203 q 113 -124 113 -157 q 136 -68 113 -90 q 196 -46 160 -46 q 253 -68 231 -46 q 276 -124 276 -90 q 253 -180 276 -157 q 196 -203 231 -203 m 124 757 l 283 918 l 399 918 l 515 757 l 390 757 l 331 829 l 251 757 l 124 757 z "},"ề":{"ha":522,"x_min":-3,"x_max":682,"o":"m 218 -18 q 92 0 144 -18 q 19 71 40 18 q 11 226 -3 124 l 53 518 q 131 659 68 621 q 292 697 194 697 q 488 659 428 697 q 532 514 547 621 q 490 413 524 453 q 409 351 456 374 q 315 321 363 329 q 233 313 268 313 l 214 163 q 215 114 210 128 q 233 100 219 100 q 253 110 244 100 q 267 156 261 121 l 282 263 l 496 263 l 486 190 q 444 58 475 103 q 359 -3 414 13 q 218 -18 304 -18 m 251 417 q 266 419 257 417 q 285 430 275 421 q 303 458 294 439 q 317 513 313 478 q 321 563 319 536 q 301 589 322 589 q 277 574 286 589 q 261 497 268 558 l 251 417 m 124 757 l 283 918 l 399 918 l 515 757 l 390 757 l 331 829 l 251 757 l 124 757 m 546 853 l 418 1000 l 621 1000 l 682 853 l 546 853 z "},"ể":{"ha":522,"x_min":-3,"x_max":732,"o":"m 218 -18 q 92 0 144 -18 q 19 71 40 18 q 11 226 -3 124 l 53 518 q 131 659 68 621 q 292 697 194 697 q 488 659 428 697 q 532 514 547 621 q 490 413 524 453 q 409 351 456 374 q 315 321 363 329 q 233 313 268 313 l 214 163 q 215 114 210 128 q 233 100 219 100 q 253 110 244 100 q 267 156 261 121 l 282 263 l 496 263 l 486 190 q 444 58 475 103 q 359 -3 414 13 q 218 -18 304 -18 m 251 417 q 266 419 257 417 q 285 430 275 421 q 303 458 294 439 q 317 513 313 478 q 321 563 319 536 q 301 589 322 589 q 277 574 286 589 q 261 497 268 558 l 251 417 m 124 757 l 283 918 l 399 918 l 515 757 l 390 757 l 331 829 l 251 757 l 124 757 m 536 835 l 540 868 q 556 898 543 889 q 583 914 569 907 q 599 936 596 921 l 601 953 q 602 969 604 963 q 590 975 600 975 q 571 947 575 975 l 479 961 q 520 1028 488 1006 q 610 1050 553 1050 q 702 1024 672 1050 q 721 947 732 997 l 719 940 q 703 899 714 910 q 682 885 693 888 q 663 878 671 882 q 653 858 656 875 l 650 835 l 536 835 z "},"ễ":{"ha":522,"x_min":-3,"x_max":547,"o":"m 218 -18 q 92 0 144 -18 q 19 71 40 18 q 11 226 -3 124 l 53 518 q 131 659 68 621 q 292 697 194 697 q 488 659 428 697 q 532 514 547 621 q 490 413 524 453 q 409 351 456 374 q 315 321 363 329 q 233 313 268 313 l 214 163 q 215 114 210 128 q 233 100 219 100 q 253 110 244 100 q 267 156 261 121 l 282 263 l 496 263 l 486 190 q 444 58 475 103 q 359 -3 414 13 q 218 -18 304 -18 m 251 417 q 266 419 257 417 q 285 430 275 421 q 303 458 294 439 q 317 513 313 478 q 321 563 319 536 q 301 589 322 589 q 277 574 286 589 q 261 497 268 558 l 251 417 m 124 757 l 283 918 l 399 918 l 515 757 l 390 757 l 331 829 l 251 757 l 124 757 m 414 949 q 371 958 390 949 q 333 978 351 968 q 303 994 318 988 q 271 1000 288 1000 q 241 985 253 1000 q 225 950 229 971 l 168 950 q 209 1056 176 1015 q 286 1096 242 1096 q 331 1088 311 1096 q 368 1071 350 1081 q 399 1056 383 1063 q 429 1049 414 1049 q 462 1062 451 1049 q 478 1092 472 1075 l 542 1092 q 491 985 532 1021 q 414 949 450 949 z "},"ë":{"ha":522,"x_min":-3,"x_max":547,"o":"m 218 -18 q 92 0 144 -18 q 19 71 40 18 q 11 226 -3 124 l 53 518 q 131 659 68 621 q 292 697 194 697 q 488 659 428 697 q 532 514 547 621 q 490 413 524 453 q 409 351 456 374 q 315 321 363 329 q 233 313 268 313 l 214 163 q 215 114 210 128 q 233 100 219 100 q 253 110 244 100 q 267 156 261 121 l 282 263 l 496 263 l 486 190 q 444 58 475 103 q 359 -3 414 13 q 218 -18 304 -18 m 251 417 q 266 419 257 417 q 285 430 275 421 q 303 458 294 439 q 317 513 313 478 q 321 563 319 536 q 301 589 322 589 q 277 574 286 589 q 261 497 268 558 l 251 417 m 236 761 q 176 784 200 761 q 153 840 153 807 q 176 896 153 874 q 236 918 200 918 q 294 896 271 918 q 317 840 317 874 q 294 784 317 807 q 236 761 271 761 m 429 761 q 369 784 393 761 q 346 840 346 807 q 369 896 346 874 q 429 918 393 918 q 487 896 464 918 q 510 840 510 874 q 487 784 510 807 q 429 761 464 761 z "},"ė":{"ha":522,"x_min":-3,"x_max":547,"o":"m 218 -18 q 92 0 144 -18 q 19 71 40 18 q 11 226 -3 124 l 53 518 q 131 659 68 621 q 292 697 194 697 q 488 659 428 697 q 532 514 547 621 q 490 413 524 453 q 409 351 456 374 q 315 321 363 329 q 233 313 268 313 l 214 163 q 215 114 210 128 q 233 100 219 100 q 253 110 244 100 q 267 156 261 121 l 282 263 l 496 263 l 486 190 q 444 58 475 103 q 359 -3 414 13 q 218 -18 304 -18 m 251 417 q 266 419 257 417 q 285 430 275 421 q 303 458 294 439 q 317 513 313 478 q 321 563 319 536 q 301 589 322 589 q 277 574 286 589 q 261 497 268 558 l 251 417 m 332 746 q 258 776 289 746 q 226 847 228 806 q 258 920 226 890 q 333 950 290 950 q 409 920 378 950 q 440 847 440 890 q 409 776 442 806 q 332 746 376 746 z "},"ẹ":{"ha":522,"x_min":-3,"x_max":547,"o":"m 218 -18 q 92 0 144 -18 q 19 71 40 18 q 11 226 -3 124 l 53 518 q 131 659 68 621 q 292 697 194 697 q 488 659 428 697 q 532 514 547 621 q 490 413 524 453 q 409 351 456 374 q 315 321 363 329 q 233 313 268 313 l 214 163 q 215 114 210 128 q 233 100 219 100 q 253 110 244 100 q 267 156 261 121 l 282 263 l 496 263 l 486 190 q 444 58 475 103 q 359 -3 414 13 q 218 -18 304 -18 m 251 417 q 266 419 257 417 q 285 430 275 421 q 303 458 294 439 q 317 513 313 478 q 321 563 319 536 q 301 589 322 589 q 277 574 286 589 q 261 497 268 558 l 251 417 m 196 -203 q 136 -180 160 -203 q 113 -124 113 -157 q 136 -68 113 -90 q 196 -46 160 -46 q 253 -68 231 -46 q 276 -124 276 -90 q 253 -180 276 -157 q 196 -203 231 -203 z "},"ф":{"ha":824,"x_min":-7,"x_max":819,"o":"m 235 -160 l 257 -10 q 211 -10 235 -10 q 164 -10 188 -10 q 24 42 54 -10 q 7 189 -7 94 l 44 461 q 74 561 53 519 q 138 625 94 603 q 258 647 182 647 q 313 645 288 647 q 347 640 339 643 l 374 821 l 589 821 l 563 640 q 598 645 571 643 q 649 647 625 647 q 763 625 725 647 q 810 561 800 603 q 811 461 819 519 l 774 189 q 715 42 760 94 q 561 -10 669 -10 q 517 -10 539 -10 q 472 -10 494 -10 l 450 -160 l 235 -160 m 235 101 q 251 103 242 101 q 268 113 260 106 q 278 131 276 119 l 325 474 q 327 515 329 501 q 317 532 325 528 q 297 536 310 536 q 281 531 286 536 q 272 510 275 526 q 263 461 268 494 l 218 143 q 218 117 217 126 q 224 105 219 108 q 235 101 229 101 m 526 101 q 539 105 533 101 q 549 118 544 108 q 554 143 553 128 l 599 461 q 604 508 603 492 q 602 531 606 524 q 588 538 599 538 q 567 533 576 538 q 550 515 557 528 q 539 474 543 501 l 493 143 q 497 118 492 128 q 510 105 501 108 q 526 101 518 101 z "},"è":{"ha":522,"x_min":-3,"x_max":547,"o":"m 218 -18 q 92 0 144 -18 q 19 71 40 18 q 11 226 -3 124 l 53 518 q 131 659 68 621 q 292 697 194 697 q 488 659 428 697 q 532 514 547 621 q 490 413 524 453 q 409 351 456 374 q 315 321 363 329 q 233 313 268 313 l 214 163 q 215 114 210 128 q 233 100 219 100 q 253 110 244 100 q 267 156 261 121 l 282 263 l 496 263 l 486 190 q 444 58 475 103 q 359 -3 414 13 q 218 -18 304 -18 m 251 417 q 266 419 257 417 q 285 430 275 421 q 303 458 294 439 q 317 513 313 478 q 321 563 319 536 q 301 589 322 589 q 277 574 286 589 q 261 497 268 558 l 251 417 m 265 764 l 138 911 l 340 911 l 401 764 l 265 764 z "},"ẻ":{"ha":522,"x_min":-3,"x_max":547,"o":"m 218 -18 q 92 0 144 -18 q 19 71 40 18 q 11 226 -3 124 l 53 518 q 131 659 68 621 q 292 697 194 697 q 488 659 428 697 q 532 514 547 621 q 490 413 524 453 q 409 351 456 374 q 315 321 363 329 q 233 313 268 313 l 214 163 q 215 114 210 128 q 233 100 219 100 q 253 110 244 100 q 267 156 261 121 l 282 263 l 496 263 l 486 190 q 444 58 475 103 q 359 -3 414 13 q 218 -18 304 -18 m 251 417 q 266 419 257 417 q 285 430 275 421 q 303 458 294 439 q 317 513 313 478 q 321 563 319 536 q 301 589 322 589 q 277 574 286 589 q 261 497 268 558 l 251 417 m 256 746 l 260 779 q 276 809 263 800 q 302 825 289 818 q 318 847 315 832 l 321 864 q 322 880 324 874 q 310 886 319 886 q 290 858 294 886 l 199 872 q 240 939 207 917 q 329 961 272 961 q 422 935 392 961 q 440 858 451 908 l 439 851 q 423 810 433 821 q 401 796 413 799 q 383 790 390 793 q 372 769 375 786 l 369 746 l 256 746 z "},"л":{"ha":654,"x_min":-35,"x_max":668,"o":"m -35 0 l -19 110 q 17 126 -3 110 q 52 166 36 142 q 74 217 68 190 l 182 688 l 668 688 l 571 0 l 350 0 l 425 536 l 379 536 l 288 161 q 274 108 282 136 q 250 55 267 79 q 201 15 233 31 q 110 0 168 0 l -35 0 z "},"…":{"ha":922,"x_min":26,"x_max":822,"o":"m 124 -15 q 53 15 81 -15 q 33 86 26 44 q 74 159 39 129 q 153 189 110 189 q 225 159 197 189 q 247 86 253 129 q 205 15 240 44 q 124 -15 169 -15 m 406 -15 q 335 15 363 -15 q 315 86 308 44 q 356 159 321 129 q 435 189 392 189 q 507 159 479 189 q 529 86 535 129 q 487 15 522 44 q 406 -15 451 -15 m 693 -15 q 623 15 650 -15 q 603 86 596 44 q 644 159 608 129 q 722 189 679 189 q 794 159 767 189 q 817 86 822 129 q 774 15 810 44 q 693 -15 739 -15 z "},"м":{"ha":731,"x_min":-14,"x_max":744,"o":"m -14 0 l 83 688 l 356 688 l 354 268 l 472 688 l 744 688 l 647 0 l 474 0 l 536 439 l 389 0 l 246 0 l 222 439 l 160 0 l -14 0 z "},"ē":{"ha":522,"x_min":-3,"x_max":547,"o":"m 218 -18 q 92 0 144 -18 q 19 71 40 18 q 11 226 -3 124 l 53 518 q 131 659 68 621 q 292 697 194 697 q 488 659 428 697 q 532 514 547 621 q 490 413 524 453 q 409 351 456 374 q 315 321 363 329 q 233 313 268 313 l 214 163 q 215 114 210 128 q 233 100 219 100 q 253 110 244 100 q 267 156 261 121 l 282 263 l 496 263 l 486 190 q 444 58 475 103 q 359 -3 414 13 q 218 -18 304 -18 m 251 417 q 266 419 257 417 q 285 430 275 421 q 303 458 294 439 q 317 513 313 478 q 321 563 319 536 q 301 589 322 589 q 277 574 286 589 q 261 497 268 558 l 251 417 m 157 772 l 171 879 l 479 879 l 465 772 l 157 772 z "},"—":{"ha":968,"x_min":32,"x_max":936,"o":"m 32 332 l 51 475 l 936 475 l 917 332 l 32 332 z "},"∅":{"ha":576,"x_min":-26,"x_max":628,"o":"m -26 69 l 578 789 l 610 789 l 4 69 l -26 69 m 179 -18 q 57 11 104 -17 q -2 102 10 39 q 17 275 -14 165 l 106 590 q 223 772 139 714 q 421 831 307 831 q 578 772 529 831 q 594 590 628 714 l 506 276 q 426 101 474 165 q 315 9 378 36 q 179 -18 253 -18 m 214 110 q 235 119 225 110 q 250 153 244 129 l 392 657 q 394 690 399 681 q 381 699 390 699 q 360 690 369 699 q 343 657 351 681 l 201 153 q 200 119 196 129 q 214 110 204 110 z "},"н":{"ha":550,"x_min":-14,"x_max":564,"o":"m -14 0 l 83 688 l 300 688 l 264 435 l 314 435 l 350 688 l 564 688 l 467 0 l 253 0 l 292 272 l 242 272 l 203 0 l -14 0 z "},"–":{"ha":664,"x_min":32,"x_max":632,"o":"m 32 332 l 51 475 l 632 475 l 613 332 l 32 332 z "},"ŋ":{"ha":544,"x_min":-12,"x_max":547,"o":"m 200 -161 q 159 -158 179 -161 q 119 -151 139 -156 l 133 -44 q 147 -44 135 -44 q 171 -44 158 -44 q 183 -44 183 -44 q 233 -29 215 -44 q 253 8 250 -14 l 322 507 q 323 524 324 517 q 320 537 322 532 q 314 544 318 542 q 304 546 310 546 q 297 546 301 546 q 288 545 292 546 q 281 542 283 544 l 204 0 l -12 0 l 83 688 l 268 688 l 272 597 q 330 669 292 640 q 413 697 368 697 q 487 686 458 697 q 528 652 515 675 q 544 595 542 629 q 540 515 547 561 l 481 92 q 424 -63 467 -7 q 323 -141 382 -119 q 200 -161 264 -162 z "},"ę":{"ha":522,"x_min":-3,"x_max":547,"o":"m 218 -18 q 92 0 144 -18 q 19 71 40 18 q 11 226 -3 124 l 53 518 q 131 659 68 621 q 292 697 194 697 q 488 659 428 697 q 532 514 547 621 q 490 413 524 453 q 409 351 456 374 q 315 321 363 329 q 233 313 268 313 l 214 163 q 215 114 210 128 q 233 100 219 100 q 253 110 244 100 q 267 156 261 121 l 282 263 l 496 263 l 486 190 q 444 58 475 103 q 359 -3 414 13 q 218 -18 304 -18 m 251 417 q 266 419 257 417 q 285 430 275 421 q 303 458 294 439 q 317 513 313 478 q 321 563 319 536 q 301 589 322 589 q 277 574 286 589 q 261 497 268 558 l 251 417 m 203 -210 q 113 -180 143 -210 q 88 -115 82 -150 q 132 -40 93 -76 q 229 3 171 -3 l 310 0 q 251 -35 271 -10 q 228 -85 231 -61 q 240 -124 225 -110 q 272 -137 256 -137 q 288 -135 282 -137 q 297 -133 294 -133 l 314 -185 q 281 -199 306 -189 q 203 -210 256 -210 z "},"=":{"ha":643,"x_min":40,"x_max":603,"o":"m 79 439 l 99 582 l 603 582 l 583 439 l 79 439 m 40 165 l 60 308 l 564 308 l 544 165 l 40 165 z "},"р":{"ha":544,"x_min":-35,"x_max":554,"o":"m -35 -161 l 83 688 l 300 688 l 293 639 q 334 678 308 658 q 411 699 360 699 q 480 688 446 699 q 534 644 514 678 q 544 543 554 611 l 497 214 q 457 74 485 122 q 392 9 429 26 q 314 -8 356 -8 q 244 10 267 -8 q 211 50 222 28 l 182 -161 l -35 -161 m 243 111 q 256 115 250 111 q 266 128 261 118 q 272 153 271 138 l 325 525 q 326 545 326 538 q 323 558 325 553 q 317 565 321 563 q 307 567 313 567 q 299 566 303 567 q 291 565 294 565 q 285 563 288 564 q 283 563 283 563 l 225 153 q 225 128 224 138 q 231 115 226 118 q 243 111 236 111 z "},"э":{"ha":550,"x_min":7,"x_max":547,"o":"m 225 -17 q 126 -8 169 -17 q 54 24 82 0 q 17 99 26 49 q 19 232 7 149 l 21 243 l 238 243 l 222 136 q 222 111 221 121 q 228 98 224 101 q 240 94 233 94 q 254 98 249 94 q 264 111 260 101 q 269 136 268 121 l 292 294 l 101 294 l 121 432 l 311 432 l 328 546 q 328 566 329 558 q 326 578 328 574 q 319 585 324 583 q 310 588 315 588 q 297 584 303 588 q 287 572 290 581 q 281 546 283 563 l 272 486 l 56 486 l 60 518 q 103 626 69 588 q 192 682 136 665 q 325 699 249 699 q 426 690 383 699 q 497 660 469 681 q 536 604 525 639 q 540 518 547 569 l 500 231 q 448 68 485 121 q 356 -1 411 15 q 225 -17 300 -17 z "},"с":{"ha":529,"x_min":0,"x_max":549,"o":"m 218 -17 q 119 -8 163 -17 q 48 24 76 0 q 10 98 19 49 q 13 231 0 147 l 53 518 q 135 660 68 621 q 318 699 203 699 q 491 660 433 699 q 533 518 549 621 l 518 408 l 301 408 l 321 546 q 319 578 324 569 q 303 588 314 588 q 285 578 293 588 q 274 546 276 569 l 215 136 q 218 103 213 113 q 233 94 224 94 q 252 103 244 94 q 263 136 260 113 l 285 296 l 501 296 l 493 232 q 441 68 478 121 q 348 -1 404 15 q 218 -17 292 -17 z "},"ð":{"ha":536,"x_min":0,"x_max":553,"o":"m 218 -11 q 119 -3 163 -11 q 47 30 75 6 q 10 103 19 54 q 13 236 0 153 l 47 485 q 90 593 57 554 q 174 649 122 632 q 290 665 225 665 q 313 665 301 665 q 335 665 324 665 q 333 721 339 694 q 310 764 328 747 q 260 781 293 781 q 204 778 231 781 q 138 768 178 775 l 157 904 q 222 915 185 911 q 319 919 260 919 q 485 881 432 919 q 545 751 538 843 q 531 497 553 658 l 493 238 q 457 104 481 154 q 399 30 433 54 q 319 -3 365 6 q 218 -11 274 -11 m 233 100 q 247 103 242 100 q 257 117 253 107 q 263 142 261 126 l 315 513 q 316 538 318 529 q 310 551 314 547 q 297 554 306 554 q 284 551 290 554 q 274 538 278 547 q 268 513 271 529 l 215 142 q 215 122 214 129 q 217 109 215 114 q 224 102 219 104 q 233 100 228 100 m 232 676 l 193 733 l 504 960 l 546 904 l 232 676 z "},"ẽ":{"ha":522,"x_min":-3,"x_max":547,"o":"m 218 -18 q 92 0 144 -18 q 19 71 40 18 q 11 226 -3 124 l 53 518 q 131 659 68 621 q 292 697 194 697 q 488 659 428 697 q 532 514 547 621 q 490 413 524 453 q 409 351 456 374 q 315 321 363 329 q 233 313 268 313 l 214 163 q 215 114 210 128 q 233 100 219 100 q 253 110 244 100 q 267 156 261 121 l 282 263 l 496 263 l 486 190 q 444 58 475 103 q 359 -3 414 13 q 218 -18 304 -18 m 251 417 q 266 419 257 417 q 285 430 275 421 q 303 458 294 439 q 317 513 313 478 q 321 563 319 536 q 301 589 322 589 q 277 574 286 589 q 261 497 268 558 l 251 417 m 389 761 q 346 771 365 761 q 308 790 326 781 q 278 806 293 800 q 246 813 263 813 q 216 798 228 813 q 200 763 204 783 l 143 763 q 184 868 151 828 q 261 908 217 908 q 306 901 286 908 q 343 883 325 893 q 374 868 358 875 q 404 861 389 861 q 437 874 426 861 q 453 904 447 888 l 517 904 q 466 797 507 833 q 389 761 425 761 z "},"€":{"ha":667,"x_min":17,"x_max":668,"o":"m 321 -17 q 194 1 247 -17 q 119 75 142 19 q 113 240 97 131 l 124 314 l 17 314 l 61 389 l 133 389 l 139 428 l 31 428 l 76 503 l 150 503 l 169 643 q 215 753 179 713 q 309 813 251 794 q 440 831 367 831 q 567 813 515 831 q 644 753 619 794 q 658 643 668 713 l 651 592 l 431 592 l 439 657 q 440 683 442 674 q 435 695 439 692 q 422 699 431 699 q 409 695 415 699 q 399 683 403 692 q 392 657 394 674 l 371 503 l 558 503 l 511 428 l 360 428 l 354 389 l 488 389 l 443 314 l 344 314 l 321 153 q 321 128 319 138 q 327 115 322 118 q 339 111 332 111 q 353 115 347 111 q 363 128 358 118 q 368 153 367 138 l 383 254 l 604 254 l 601 242 q 548 75 586 131 q 453 1 510 19 q 321 -17 396 -17 z "},"!":{"ha":351,"x_min":13,"x_max":354,"o":"m 81 261 l 79 524 l 118 875 l 354 875 l 294 528 l 219 261 l 81 261 m 118 -11 q 41 19 69 -11 q 18 94 13 50 q 63 169 25 138 q 149 200 100 200 q 226 169 197 200 q 249 94 256 138 q 205 19 243 50 q 118 -11 167 -11 z "},"¡":{"ha":351,"x_min":56,"x_max":297,"o":"m 106 415 l 244 415 l 282 149 l 292 -199 l 56 -199 l 67 153 l 106 415 m 181 688 q 263 657 229 688 q 296 582 296 626 q 264 508 297 539 q 182 476 231 476 q 100 508 133 476 q 65 582 67 539 q 99 657 65 626 q 181 688 132 688 z "},"f":{"ha":390,"x_min":6,"x_max":454,"o":"m 6 0 l 81 540 l 36 540 l 54 661 l 99 661 l 106 711 q 148 824 117 789 q 221 867 179 858 q 300 875 263 875 q 365 873 332 875 q 424 869 399 871 q 454 867 449 867 l 442 769 q 419 772 442 769 q 368 774 396 774 q 335 753 346 774 q 322 713 325 733 l 315 661 l 426 661 l 408 540 l 297 540 l 222 0 l 6 0 z "},"ﬁ":{"ha":669,"x_min":6,"x_max":707,"o":"m 6 0 l 81 540 l 36 540 l 54 661 l 99 661 l 106 711 q 148 824 117 789 q 221 867 179 858 q 300 875 263 875 q 365 873 332 875 q 424 869 399 871 q 454 867 449 867 l 442 769 q 419 772 442 769 q 368 774 396 774 q 335 753 346 774 q 322 713 325 733 l 315 661 l 426 661 l 408 540 l 297 540 l 222 0 l 6 0 m 369 0 l 467 688 l 683 688 l 586 0 l 369 0 m 597 746 q 524 776 554 746 q 492 847 493 806 q 524 920 492 890 q 599 950 556 950 q 674 920 643 950 q 706 847 706 890 q 674 776 707 806 q 597 746 642 746 z "},"ﬂ":{"ha":678,"x_min":6,"x_max":717,"o":"m 6 0 l 81 540 l 36 540 l 54 661 l 99 661 l 106 711 q 148 824 117 789 q 221 867 179 858 q 300 875 263 875 q 365 873 332 875 q 424 869 399 871 q 454 867 449 867 l 442 769 q 419 772 442 769 q 368 774 396 774 q 335 753 346 774 q 322 713 325 733 l 315 661 l 426 661 l 408 540 l 297 540 l 222 0 l 6 0 m 378 0 l 500 875 l 717 875 l 594 0 l 378 0 z "},"ƒ":{"ha":550,"x_min":-183,"x_max":610,"o":"m -56 -197 q -101 -196 -74 -197 q -153 -193 -129 -194 q -183 -190 -176 -192 l -153 -65 l -86 -75 q -24 -69 -47 -76 q 16 -28 0 -61 q 50 76 32 4 l 163 518 l 72 518 l 101 633 l 192 633 l 214 706 q 297 838 244 801 q 401 874 349 874 q 445 873 415 874 q 508 872 475 872 q 570 869 542 871 q 610 867 599 868 l 579 742 q 540 750 569 744 q 476 756 510 756 q 433 730 444 756 q 414 671 422 704 l 404 633 l 539 633 l 510 518 l 375 518 l 246 10 q 142 -148 218 -99 q -56 -197 67 -197 z "},"⁴":{"ha":382,"x_min":25,"x_max":388,"o":"m 176 328 l 190 422 l 25 422 l 40 531 l 240 821 l 376 821 l 333 511 l 388 511 l 375 422 l 321 422 l 307 328 l 176 328 m 143 511 l 203 511 l 217 615 l 143 511 z "},"⁄":{"ha":422,"x_min":-187,"x_max":503,"o":"m -187 0 l 375 821 l 503 821 l -61 0 l -187 0 z "},"₣":{"ha":508,"x_min":-25,"x_max":532,"o":"m 18 0 l 38 131 l -25 131 l -12 225 l 50 225 l 135 821 l 532 821 l 510 667 l 343 667 l 321 507 l 474 507 l 449 333 l 296 333 l 281 225 l 368 225 l 356 131 l 268 131 l 249 0 l 18 0 z "},"g":{"ha":543,"x_min":6,"x_max":557,"o":"m 208 -168 q 152 -166 185 -168 q 88 -161 119 -164 q 33 -156 56 -158 q 6 -151 10 -153 l 21 -39 q 81 -46 42 -43 q 144 -49 119 -49 q 178 -46 161 -49 q 209 -35 194 -43 q 234 -14 224 -28 q 247 22 244 0 l 261 124 q 242 94 254 114 q 205 59 231 75 q 128 43 179 43 q 72 50 97 43 q 31 79 46 57 q 11 147 15 101 q 18 272 7 193 l 56 543 q 97 643 65 611 q 164 685 128 675 q 224 694 200 694 q 275 692 253 694 q 313 678 297 689 q 333 639 328 667 l 363 688 l 557 688 l 479 138 q 461 39 474 92 q 422 -61 449 -14 q 344 -138 394 -108 q 208 -168 293 -168 m 244 169 q 257 173 251 169 q 267 186 263 176 q 274 211 272 196 l 322 563 q 317 565 319 564 q 310 566 314 565 q 300 567 307 567 q 281 558 290 567 q 269 525 272 549 l 226 213 q 226 192 225 200 q 228 178 226 183 q 235 172 231 174 q 244 169 239 169 z "},"ğ":{"ha":543,"x_min":6,"x_max":557,"o":"m 208 -168 q 152 -166 185 -168 q 88 -161 119 -164 q 33 -156 56 -158 q 6 -151 10 -153 l 21 -39 q 81 -46 42 -43 q 144 -49 119 -49 q 178 -46 161 -49 q 209 -35 194 -43 q 234 -14 224 -28 q 247 22 244 0 l 261 124 q 242 94 254 114 q 205 59 231 75 q 128 43 179 43 q 72 50 97 43 q 31 79 46 57 q 11 147 15 101 q 18 272 7 193 l 56 543 q 97 643 65 611 q 164 685 128 675 q 224 694 200 694 q 275 692 253 694 q 313 678 297 689 q 333 639 328 667 l 363 688 l 557 688 l 479 138 q 461 39 474 92 q 422 -61 449 -14 q 344 -138 394 -108 q 208 -168 293 -168 m 244 169 q 257 173 251 169 q 267 186 263 176 q 274 211 272 196 l 322 563 q 317 565 319 564 q 310 566 314 565 q 300 567 307 567 q 281 558 290 567 q 269 525 272 549 l 226 213 q 226 192 225 200 q 228 178 226 183 q 235 172 231 174 q 244 169 239 169 m 333 765 q 246 781 278 765 q 200 819 214 796 q 184 869 186 843 q 185 915 182 894 l 299 915 q 311 878 294 890 q 350 865 328 865 q 392 877 374 865 q 417 915 411 889 l 532 915 q 503 840 526 874 q 439 785 481 806 q 333 765 397 765 z "},"ģ":{"ha":543,"x_min":6,"x_max":557,"o":"m 465 982 q 422 922 439 949 q 403 879 406 896 q 412 860 401 868 q 432 840 422 851 q 438 806 442 828 q 408 760 435 781 q 342 739 381 739 q 278 760 301 739 q 260 815 256 782 q 283 868 264 838 q 329 929 303 899 q 379 982 356 960 l 465 982 m 208 -168 q 152 -166 185 -168 q 88 -161 119 -164 q 33 -156 56 -158 q 6 -151 10 -153 l 21 -39 q 81 -46 42 -43 q 144 -49 119 -49 q 178 -46 161 -49 q 209 -35 194 -43 q 234 -14 224 -28 q 247 22 244 0 l 261 124 q 242 94 254 114 q 205 59 231 75 q 128 43 179 43 q 72 50 97 43 q 31 79 46 57 q 11 147 15 101 q 18 272 7 193 l 56 543 q 97 643 65 611 q 164 685 128 675 q 224 694 200 694 q 275 692 253 694 q 313 678 297 689 q 333 639 328 667 l 363 688 l 557 688 l 479 138 q 461 39 474 92 q 422 -61 449 -14 q 344 -138 394 -108 q 208 -168 293 -168 m 244 169 q 257 173 251 169 q 267 186 263 176 q 274 211 272 196 l 322 563 q 317 565 319 564 q 310 566 314 565 q 300 567 307 567 q 281 558 290 567 q 269 525 272 549 l 226 213 q 226 192 225 200 q 228 178 226 183 q 235 172 231 174 q 244 169 239 169 z "},"ġ":{"ha":543,"x_min":6,"x_max":557,"o":"m 208 -168 q 152 -166 185 -168 q 88 -161 119 -164 q 33 -156 56 -158 q 6 -151 10 -153 l 21 -39 q 81 -46 42 -43 q 144 -49 119 -49 q 178 -46 161 -49 q 209 -35 194 -43 q 234 -14 224 -28 q 247 22 244 0 l 261 124 q 242 94 254 114 q 205 59 231 75 q 128 43 179 43 q 72 50 97 43 q 31 79 46 57 q 11 147 15 101 q 18 272 7 193 l 56 543 q 97 643 65 611 q 164 685 128 675 q 224 694 200 694 q 275 692 253 694 q 313 678 297 689 q 333 639 328 667 l 363 688 l 557 688 l 479 138 q 461 39 474 92 q 422 -61 449 -14 q 344 -138 394 -108 q 208 -168 293 -168 m 244 169 q 257 173 251 169 q 267 186 263 176 q 274 211 272 196 l 322 563 q 317 565 319 564 q 310 566 314 565 q 300 567 307 567 q 281 558 290 567 q 269 525 272 549 l 226 213 q 226 192 225 200 q 228 178 226 183 q 235 172 231 174 q 244 169 239 169 m 349 746 q 275 776 306 746 q 243 847 244 806 q 275 920 243 890 q 350 950 307 950 q 426 920 394 950 q 457 847 457 890 q 426 776 458 806 q 349 746 393 746 z "},"г":{"ha":418,"x_min":-14,"x_max":453,"o":"m -14 0 l 83 688 l 453 688 l 431 533 l 292 533 l 217 0 l -14 0 z "},"ß":{"ha":693,"x_min":-140,"x_max":701,"o":"m -56 -204 q -100 -202 -71 -204 q -140 -199 -129 -200 q -137 -178 -140 -196 q -131 -137 -135 -160 q -126 -97 -128 -115 q -124 -76 -124 -79 l -104 -79 q -87 -81 -97 -81 q -62 -82 -76 -82 q 10 -53 -11 -82 q 36 17 31 -24 l 110 540 l 50 540 l 71 688 l 131 688 l 135 725 q 168 811 143 778 q 255 860 193 844 q 432 876 317 876 q 634 847 567 876 q 690 740 701 817 l 672 608 q 622 514 664 550 q 535 475 579 478 l 533 469 q 598 451 567 467 q 647 408 629 436 q 658 339 665 381 l 635 168 q 587 60 625 96 q 488 12 549 24 q 349 0 428 0 l 288 0 l 303 108 l 331 108 q 370 119 357 108 q 391 163 383 131 q 407 258 399 194 l 418 332 q 420 371 421 354 q 408 397 419 388 q 365 407 397 407 l 340 407 l 357 518 l 408 518 q 442 541 432 518 q 457 604 451 564 l 467 671 q 470 751 475 728 q 419 775 465 775 q 380 765 394 775 q 358 737 365 756 q 347 692 351 718 l 258 53 q 213 -83 246 -32 q 134 -160 179 -135 q 39 -195 89 -186 q -56 -204 -11 -204 z "},"ѓ":{"ha":418,"x_min":-14,"x_max":468,"o":"m -14 0 l 83 688 l 453 688 l 431 533 l 292 533 l 217 0 l -14 0 m 174 764 l 265 911 l 468 911 l 310 764 l 174 764 z "},"`":{"ha":283,"x_min":79,"x_max":343,"o":"m 207 764 l 79 911 l 282 911 l 343 764 l 207 764 z "},"̀":{"ha":0,"x_min":79,"x_max":343,"o":"m 207 764 l 79 911 l 282 911 l 343 764 l 207 764 z "},">":{"ha":426,"x_min":1,"x_max":393,"o":"m 1 167 l 28 358 l 208 461 l 57 563 l 82 749 l 393 515 l 376 401 l 1 167 z "},"≥":{"ha":492,"x_min":32,"x_max":456,"o":"m 57 214 l 68 258 l 413 453 l 178 650 l 189 693 l 456 472 l 444 435 l 57 214 m 32 -1 l 40 28 l 356 28 l 349 -1 l 32 -1 z "},"«":{"ha":785,"x_min":42,"x_max":782,"o":"m 515 138 l 364 410 l 592 682 l 782 682 l 554 410 l 704 138 l 515 138 m 193 138 l 42 410 l 269 682 l 460 682 l 232 410 l 382 138 l 193 138 z "},"»":{"ha":785,"x_min":3,"x_max":743,"o":"m 325 138 l 553 410 l 403 682 l 593 682 l 743 410 l 514 138 l 325 138 m 3 138 l 231 410 l 81 682 l 271 682 l 421 410 l 192 138 l 3 138 z "},"‹":{"ha":463,"x_min":42,"x_max":460,"o":"m 193 138 l 42 410 l 269 682 l 460 682 l 232 410 l 382 138 l 193 138 z "},"›":{"ha":463,"x_min":3,"x_max":421,"o":"m 3 138 l 231 410 l 81 682 l 271 682 l 421 410 l 192 138 l 3 138 z "},"h":{"ha":544,"x_min":-12,"x_max":547,"o":"m -12 0 l 110 875 l 311 875 l 272 597 q 328 672 288 646 q 413 697 368 697 q 487 685 458 697 q 528 651 515 674 q 544 594 542 628 q 540 515 547 560 l 468 0 l 251 0 l 319 486 q 320 503 321 496 q 317 515 319 510 q 310 522 314 519 q 299 525 306 525 q 288 524 293 525 q 279 520 282 522 q 276 514 276 518 l 204 0 l -12 0 z "},"х":{"ha":511,"x_min":-57,"x_max":568,"o":"m -57 0 q -19 110 -44 53 q 37 222 7 168 q 95 314 67 275 q 142 367 124 353 q 103 420 121 383 q 75 505 86 457 q 60 601 64 553 q 60 688 56 650 l 231 688 q 235 622 229 660 q 255 553 242 585 q 285 510 268 521 q 308 528 296 514 q 333 565 321 543 q 358 619 346 588 q 378 688 369 650 l 568 688 q 531 592 557 643 q 475 492 506 540 q 416 410 444 444 q 372 367 388 376 q 406 321 389 357 q 439 232 424 285 q 463 119 454 179 q 471 0 472 58 l 253 0 q 252 44 251 19 q 251 92 253 68 q 244 135 250 117 q 224 160 239 153 q 191 130 207 154 q 162 71 175 106 q 138 0 149 36 l -57 0 z "},"ъ":{"ha":583,"x_min":33,"x_max":568,"o":"m 33 0 l 113 561 l 44 561 l 63 688 l 347 688 l 317 472 l 426 472 q 495 462 461 472 q 549 419 529 451 q 558 317 568 386 l 546 224 q 514 99 535 144 q 464 33 493 54 q 400 6 435 13 q 325 0 365 0 l 33 0 m 265 110 l 289 110 q 306 114 300 110 q 314 128 311 118 q 319 153 317 138 l 338 286 q 342 320 342 308 q 338 336 342 332 q 322 340 333 340 l 299 340 l 265 110 z "},"ħ":{"ha":549,"x_min":-12,"x_max":547,"o":"m 6 721 l 28 825 l 360 825 l 338 721 l 6 721 m -12 0 l 110 875 l 311 875 l 272 597 q 328 672 288 646 q 413 697 368 697 q 487 685 458 697 q 528 651 515 674 q 544 594 542 628 q 540 515 547 560 l 468 0 l 251 0 l 319 486 q 320 503 321 496 q 317 515 319 510 q 310 522 314 519 q 299 525 306 525 q 288 524 293 525 q 279 520 282 522 q 276 514 276 518 l 204 0 l -12 0 z "},"̉":{"ha":0,"x_min":68,"x_max":321,"o":"m 125 746 l 129 779 q 145 809 132 800 q 172 825 158 818 q 188 847 185 832 l 190 864 q 191 880 193 874 q 179 886 189 886 q 160 858 164 886 l 68 872 q 109 939 76 917 q 199 961 142 961 q 291 935 261 961 q 310 858 321 908 l 308 851 q 292 810 303 821 q 271 796 282 799 q 252 790 260 793 q 242 769 244 786 l 239 746 l 125 746 z "},"̛":{"ha":0,"x_min":36,"x_max":288,"o":"m 36 596 l 49 688 l 78 688 q 146 753 135 688 l 149 781 l 288 781 l 285 753 q 211 631 272 665 q 36 596 150 596 z "},"˝":{"ha":354,"x_min":60,"x_max":433,"o":"m 60 764 l 88 911 l 249 911 l 142 764 l 60 764 m 217 764 l 272 911 l 433 911 l 313 764 l 217 764 z "},"̋":{"ha":0,"x_min":60,"x_max":433,"o":"m 60 764 l 88 911 l 249 911 l 142 764 l 60 764 m 217 764 l 272 911 l 433 911 l 313 764 l 217 764 z "},"-":{"ha":378,"x_min":32,"x_max":346,"o":"m 32 332 l 51 475 l 346 475 l 326 332 l 32 332 z "},"i":{"ha":286,"x_min":-14,"x_max":324,"o":"m -14 0 l 83 688 l 300 688 l 203 0 l -14 0 m 214 746 q 140 776 171 746 q 108 847 110 806 q 140 920 108 890 q 215 950 172 950 q 291 920 260 950 q 322 847 322 890 q 291 776 324 806 q 214 746 258 746 z "},"і":{"ha":286,"x_min":-14,"x_max":324,"o":"m -14 0 l 83 688 l 300 688 l 203 0 l -14 0 m 214 746 q 140 776 171 746 q 108 847 110 806 q 140 920 108 890 q 215 950 172 950 q 291 920 260 950 q 322 847 322 890 q 291 776 324 806 q 214 746 258 746 z "},"я":{"ha":589,"x_min":-42,"x_max":603,"o":"m -42 0 l 65 215 q 116 284 93 268 q 168 303 139 300 q 86 343 110 311 q 74 453 63 375 l 81 501 q 141 640 93 592 q 281 688 189 688 l 603 688 l 506 0 l 275 0 l 315 281 l 300 244 q 266 159 283 201 q 233 74 249 117 l 204 0 l -42 0 m 310 361 l 326 361 l 356 571 l 335 571 q 309 542 317 571 q 297 483 301 513 l 294 467 q 292 381 288 401 q 310 361 297 361 z "},"í":{"ha":286,"x_min":-14,"x_max":401,"o":"m -14 0 l 83 688 l 300 688 l 203 0 l -14 0 m 107 764 l 199 911 l 401 911 l 243 764 l 107 764 z "},"ǐ":{"ha":286,"x_min":-14,"x_max":419,"o":"m -14 0 l 83 688 l 300 688 l 203 0 l -14 0 m 143 757 l 28 918 l 156 918 l 214 850 l 294 918 l 419 918 l 258 757 l 143 757 z "},"î":{"ha":286,"x_min":-14,"x_max":397,"o":"m -14 0 l 83 688 l 300 688 l 203 0 l -14 0 m 6 757 l 165 918 l 281 918 l 397 757 l 272 757 l 213 829 l 133 757 l 6 757 z "},"ï":{"ha":286,"x_min":-14,"x_max":392,"o":"m -14 0 l 83 688 l 300 688 l 203 0 l -14 0 m 118 761 q 58 784 82 761 q 35 840 35 807 q 58 896 35 874 q 118 918 82 918 q 176 896 153 918 q 199 840 199 874 q 176 784 199 807 q 118 761 153 761 m 311 761 q 251 784 275 761 q 228 840 228 807 q 251 896 228 874 q 311 918 275 918 q 369 896 346 918 q 392 840 392 874 q 369 784 392 807 q 311 761 346 761 z "},"ị":{"ha":286,"x_min":-14,"x_max":324,"o":"m -14 0 l 83 688 l 300 688 l 203 0 l -14 0 m 214 746 q 140 776 171 746 q 108 847 110 806 q 140 920 108 890 q 215 950 172 950 q 291 920 260 950 q 322 847 322 890 q 291 776 324 806 q 214 746 258 746 m 78 -203 q 18 -180 42 -203 q -6 -124 -6 -157 q 18 -68 -6 -90 q 78 -46 42 -46 q 135 -68 113 -46 q 158 -124 158 -90 q 135 -180 158 -157 q 78 -203 113 -203 z "},"ı":{"ha":286,"x_min":-14,"x_max":300,"o":"m -14 0 l 83 688 l 300 688 l 203 0 l -14 0 z "},"е":{"ha":522,"x_min":-3,"x_max":547,"o":"m 218 -18 q 92 0 144 -18 q 19 71 40 18 q 11 226 -3 124 l 53 518 q 131 659 68 621 q 292 697 194 697 q 488 659 428 697 q 532 514 547 621 q 490 413 524 453 q 409 351 456 374 q 315 321 363 329 q 233 313 268 313 l 214 163 q 215 114 210 128 q 233 100 219 100 q 253 110 244 100 q 267 156 261 121 l 282 263 l 496 263 l 486 190 q 444 58 475 103 q 359 -3 414 13 q 218 -18 304 -18 m 251 417 q 266 419 257 417 q 285 430 275 421 q 303 458 294 439 q 317 513 313 478 q 321 563 319 536 q 301 589 322 589 q 277 574 286 589 q 261 497 268 558 l 251 417 z "},"ѐ":{"ha":522,"x_min":-3,"x_max":547,"o":"m 218 -18 q 92 0 144 -18 q 19 71 40 18 q 11 226 -3 124 l 53 518 q 131 659 68 621 q 292 697 194 697 q 488 659 428 697 q 532 514 547 621 q 490 413 524 453 q 409 351 456 374 q 315 321 363 329 q 233 313 268 313 l 214 163 q 215 114 210 128 q 233 100 219 100 q 253 110 244 100 q 267 156 261 121 l 282 263 l 496 263 l 486 190 q 444 58 475 103 q 359 -3 414 13 q 218 -18 304 -18 m 251 417 q 266 419 257 417 q 285 430 275 421 q 303 458 294 439 q 317 513 313 478 q 321 563 319 536 q 301 589 322 589 q 277 574 286 589 q 261 497 268 558 l 251 417 m 265 764 l 138 911 l 340 911 l 401 764 l 265 764 z "},"ì":{"ha":286,"x_min":-14,"x_max":300,"o":"m -14 0 l 83 688 l 300 688 l 203 0 l -14 0 m 147 764 l 19 911 l 222 911 l 283 764 l 147 764 z "},"ỉ":{"ha":286,"x_min":-14,"x_max":333,"o":"m -14 0 l 83 688 l 300 688 l 203 0 l -14 0 m 138 746 l 142 779 q 158 809 144 800 q 184 825 171 818 q 200 847 197 832 l 203 864 q 203 880 206 874 q 192 886 201 886 q 172 858 176 886 l 81 872 q 122 939 89 917 q 211 961 154 961 q 303 935 274 961 q 322 858 333 908 l 321 851 q 305 810 315 821 q 283 796 294 799 q 265 790 272 793 q 254 769 257 786 l 251 746 l 138 746 z "},"и":{"ha":546,"x_min":-14,"x_max":560,"o":"m -14 0 l 83 688 l 272 688 l 229 386 l 372 688 l 560 688 l 463 0 l 274 0 l 324 354 q 241 177 282 265 q 158 0 200 89 l -14 0 z "},"ѝ":{"ha":546,"x_min":-14,"x_max":560,"o":"m -14 0 l 83 688 l 272 688 l 229 386 l 372 688 l 560 688 l 463 0 l 274 0 l 324 354 q 241 177 282 265 q 158 0 200 89 l -14 0 m 278 764 l 150 911 l 353 911 l 414 764 l 278 764 z "},"й":{"ha":546,"x_min":-14,"x_max":560,"o":"m -14 0 l 83 688 l 272 688 l 229 386 l 372 688 l 560 688 l 463 0 l 274 0 l 324 354 q 241 177 282 265 q 158 0 200 89 l -14 0 m 329 765 q 242 781 274 765 q 196 819 210 796 q 180 869 182 843 q 181 915 178 894 l 294 915 q 307 878 290 890 q 346 865 324 865 q 388 877 369 865 q 413 915 407 889 l 528 915 q 499 840 522 874 q 435 785 476 806 q 329 765 393 765 z "},"ī":{"ha":286,"x_min":-14,"x_max":361,"o":"m -14 0 l 83 688 l 300 688 l 203 0 l -14 0 m 39 772 l 53 879 l 361 879 l 347 772 l 39 772 z "},"∞":{"ha":954,"x_min":28,"x_max":928,"o":"m 196 131 q 63 184 99 131 q 42 344 28 238 q 108 505 57 451 q 257 558 160 558 q 360 535 315 558 q 436 480 404 511 q 486 424 468 449 q 552 478 511 447 q 646 534 593 510 q 758 558 699 558 q 892 505 856 558 q 913 344 928 451 q 847 184 899 238 q 697 131 794 131 q 594 155 639 131 q 517 212 549 179 q 467 268 486 244 q 400 209 442 242 q 306 153 358 176 q 196 131 254 131 m 221 256 q 305 283 269 256 q 388 344 340 310 q 340 390 363 372 q 294 417 317 408 q 244 426 271 426 q 183 406 206 426 q 156 342 161 385 q 166 277 150 299 q 221 256 182 256 m 710 263 q 771 283 749 263 q 799 347 793 304 q 789 412 806 390 q 733 433 772 433 q 690 426 710 433 q 650 406 669 418 q 610 377 631 393 q 567 344 590 361 q 616 299 593 317 q 662 272 639 281 q 710 263 685 263 z "},"∫":{"ha":565,"x_min":-247,"x_max":640,"o":"m -146 -419 q -197 -415 -172 -418 q -247 -401 -222 -411 l -204 -265 l -111 -279 q -74 -258 -86 -276 q -54 -218 -61 -239 l 239 711 q 310 824 264 789 q 415 867 356 858 q 536 875 474 875 q 595 870 568 875 q 640 857 622 865 l 597 721 l 501 735 q 464 713 476 732 q 444 674 451 694 l 151 -256 q 81 -368 126 -333 q -24 -411 35 -403 q -146 -419 -83 -419 z "},"ё":{"ha":522,"x_min":-3,"x_max":547,"o":"m 218 -18 q 92 0 144 -18 q 19 71 40 18 q 11 226 -3 124 l 53 518 q 131 659 68 621 q 292 697 194 697 q 488 659 428 697 q 532 514 547 621 q 490 413 524 453 q 409 351 456 374 q 315 321 363 329 q 233 313 268 313 l 214 163 q 215 114 210 128 q 233 100 219 100 q 253 110 244 100 q 267 156 261 121 l 282 263 l 496 263 l 486 190 q 444 58 475 103 q 359 -3 414 13 q 218 -18 304 -18 m 251 417 q 266 419 257 417 q 285 430 275 421 q 303 458 294 439 q 317 513 313 478 q 321 563 319 536 q 301 589 322 589 q 277 574 286 589 q 261 497 268 558 l 251 417 m 236 761 q 176 784 200 761 q 153 840 153 807 q 176 896 153 874 q 236 918 200 918 q 294 896 271 918 q 317 840 317 874 q 294 784 317 807 q 236 761 271 761 m 429 761 q 369 784 393 761 q 346 840 346 807 q 369 896 346 874 q 429 918 393 918 q 487 896 464 918 q 510 840 510 874 q 487 784 510 807 q 429 761 464 761 z "},"į":{"ha":286,"x_min":-26,"x_max":324,"o":"m -14 0 l 83 688 l 300 688 l 203 0 l -14 0 m 214 746 q 140 776 171 746 q 108 847 110 806 q 140 920 108 890 q 215 950 172 950 q 291 920 260 950 q 322 847 322 890 q 291 776 324 806 q 214 746 258 746 m 94 -210 q 4 -180 35 -210 q -21 -115 -26 -150 q 24 -40 -15 -76 q 121 3 63 -3 l 201 0 q 142 -35 163 -10 q 119 -85 122 -61 q 132 -124 117 -110 q 164 -137 147 -137 q 180 -135 174 -137 q 189 -133 186 -133 l 206 -185 q 172 -199 197 -189 q 94 -210 147 -210 z "},"ĩ":{"ha":286,"x_min":-14,"x_max":399,"o":"m -14 0 l 83 688 l 300 688 l 203 0 l -14 0 m 271 761 q 228 771 247 761 q 190 790 208 781 q 160 806 175 800 q 128 813 144 813 q 98 798 110 813 q 82 763 86 783 l 25 763 q 66 868 33 828 q 143 908 99 908 q 188 901 168 908 q 225 883 207 893 q 256 868 240 875 q 286 861 271 861 q 319 874 308 861 q 335 904 329 888 l 399 904 q 348 797 389 833 q 271 761 307 761 z "},"ю":{"ha":833,"x_min":-14,"x_max":832,"o":"m 510 -17 q 411 -8 454 -17 q 340 24 368 0 q 301 98 311 49 q 304 231 292 147 l 344 518 q 388 626 354 588 q 477 682 421 665 q 610 699 533 699 q 711 690 668 699 q 782 660 754 681 q 821 604 810 639 q 825 518 832 569 l 785 232 q 733 68 769 121 q 640 -1 696 15 q 510 -17 583 -17 m -14 0 l 83 688 l 300 688 l 264 435 l 408 435 l 386 272 l 242 272 l 203 0 l -14 0 m 525 94 q 538 98 532 94 q 548 111 543 101 q 554 136 553 121 l 613 546 q 613 572 615 563 q 606 584 611 581 q 594 588 601 588 q 582 584 588 588 q 572 572 576 581 q 565 546 568 563 l 507 136 q 507 111 506 121 q 513 98 508 101 q 525 94 518 94 z "},"j":{"ha":282,"x_min":-161,"x_max":322,"o":"m -99 -157 q -132 -154 -110 -156 q -161 -151 -154 -153 l -146 -39 q -110 -38 -131 -39 q -79 -36 -90 -37 q -30 -13 -47 -33 q -10 28 -12 7 l 83 688 l 300 688 l 217 96 q 153 -71 201 -14 q 39 -146 106 -128 q -99 -157 -28 -164 m 213 746 q 139 776 169 746 q 107 847 108 806 q 139 920 107 890 q 214 950 171 950 q 290 920 258 950 q 321 847 321 890 q 290 776 322 806 q 213 746 257 746 z "},"ȷ":{"ha":282,"x_min":-161,"x_max":300,"o":"m -99 -157 q -132 -154 -110 -156 q -161 -151 -154 -153 l -146 -39 q -110 -38 -131 -39 q -79 -36 -90 -37 q -30 -13 -47 -33 q -10 28 -12 7 l 83 688 l 300 688 l 217 96 q 153 -71 201 -14 q 39 -146 106 -128 q -99 -157 -28 -164 z "},"ј":{"ha":282,"x_min":-161,"x_max":322,"o":"m -99 -157 q -132 -154 -110 -156 q -161 -151 -154 -153 l -146 -39 q -110 -38 -131 -39 q -79 -36 -90 -37 q -30 -13 -47 -33 q -10 28 -12 7 l 83 688 l 300 688 l 217 96 q 153 -71 201 -14 q 39 -146 106 -128 q -99 -157 -28 -164 m 213 746 q 139 776 169 746 q 107 847 108 806 q 139 920 107 890 q 214 950 171 950 q 290 920 258 950 q 321 847 321 890 q 290 776 322 806 q 213 746 257 746 z "},"k":{"ha":578,"x_min":-12,"x_max":624,"o":"m -12 0 l 110 875 l 326 875 l 204 0 l -12 0 m 289 0 l 258 397 l 410 688 l 624 688 l 463 393 l 524 0 l 289 0 z "},"к":{"ha":585,"x_min":-14,"x_max":629,"o":"m -14 0 l 83 688 l 301 688 l 275 500 q 377 609 319 564 q 499 675 435 654 q 629 685 564 696 l 610 544 q 553 527 578 540 q 511 499 529 514 q 493 481 501 490 q 478 461 485 472 l 531 0 l 281 0 l 251 221 q 242 208 246 215 q 232 194 238 201 l 204 0 l -14 0 z "},"ķ":{"ha":578,"x_min":-12,"x_max":624,"o":"m -12 0 l 110 875 l 326 875 l 204 0 l -12 0 m 289 0 l 258 397 l 410 688 l 624 688 l 463 393 l 524 0 l 289 0 m 108 -297 q 153 -237 136 -264 q 171 -194 169 -211 q 162 -175 172 -183 q 142 -154 151 -167 q 136 -121 133 -142 q 166 -75 139 -96 q 232 -54 193 -54 q 295 -76 272 -54 q 314 -131 318 -97 q 292 -183 311 -151 q 246 -244 272 -214 q 194 -297 219 -275 l 108 -297 z "},"ќ":{"ha":585,"x_min":-14,"x_max":629,"o":"m -14 0 l 83 688 l 301 688 l 275 500 q 377 609 319 564 q 499 675 435 654 q 629 685 564 696 l 610 544 q 553 527 578 540 q 511 499 529 514 q 493 481 501 490 q 478 461 485 472 l 531 0 l 281 0 l 251 221 q 242 208 246 215 q 232 194 238 201 l 204 0 l -14 0 m 279 764 l 371 911 l 574 911 l 415 764 l 279 764 z "},"l":{"ha":288,"x_min":-12,"x_max":326,"o":"m -12 0 l 110 875 l 326 875 l 204 0 l -12 0 z "},"ĺ":{"ha":288,"x_min":-12,"x_max":432,"o":"m -12 0 l 110 875 l 326 875 l 204 0 l -12 0 m 114 936 l 240 1079 l 432 1079 l 232 936 l 114 936 z "},"ľ":{"ha":440,"x_min":-12,"x_max":532,"o":"m -12 0 l 110 875 l 326 875 l 204 0 l -12 0 m 335 692 l 404 915 l 532 915 l 408 692 l 335 692 z "},"ļ":{"ha":288,"x_min":-36,"x_max":326,"o":"m -12 0 l 110 875 l 326 875 l 204 0 l -12 0 m -36 -297 q 8 -237 -8 -264 q 26 -194 25 -211 q 17 -175 28 -183 q -2 -154 7 -167 q -8 -121 -11 -142 q 22 -75 -6 -96 q 88 -54 49 -54 q 151 -76 128 -54 q 169 -131 174 -97 q 147 -183 167 -151 q 101 -244 128 -214 q 50 -297 75 -275 l -36 -297 z "},"←":{"ha":1110,"x_min":42,"x_max":1068,"o":"m 472 0 l 42 333 l 474 671 l 578 567 l 417 424 l 1068 417 l 1067 246 l 421 249 l 576 104 l 472 0 z "},"↔":{"ha":1444,"x_min":40,"x_max":1401,"o":"m 472 96 l 40 429 l 472 767 l 576 663 l 415 519 l 1026 519 l 865 663 l 969 767 l 1401 429 l 969 96 l 865 200 l 1019 342 l 422 342 l 576 200 l 472 96 z "},"<":{"ha":426,"x_min":33,"x_max":425,"o":"m 344 167 l 33 400 l 50 514 l 425 749 l 399 557 l 218 454 l 369 353 l 344 167 z "},"≤":{"ha":428,"x_min":14,"x_max":451,"o":"m 368 167 l 58 401 l 74 515 l 451 749 l 424 563 l 243 461 l 396 358 l 368 167 m 350 -7 l 14 -7 l 32 136 l 368 136 l 350 -7 z "},"љ":{"ha":904,"x_min":-35,"x_max":889,"o":"m -35 0 l -19 110 q 17 126 -3 110 q 52 166 36 142 q 74 217 68 190 l 182 688 l 668 688 l 638 472 l 747 472 q 816 462 782 472 q 869 419 850 451 q 879 317 889 386 l 867 224 q 835 99 856 144 q 785 33 814 54 q 721 6 756 13 q 646 0 686 0 l 350 0 l 425 536 l 379 536 l 288 161 q 274 108 282 136 q 250 55 267 79 q 201 15 233 31 q 110 0 168 0 l -35 0 m 586 110 l 610 110 q 626 114 621 110 q 635 128 632 118 q 640 153 638 138 l 658 286 q 663 320 663 308 q 658 336 663 332 q 643 340 654 340 l 619 340 l 586 110 z "},"¬":{"ha":775,"x_min":58,"x_max":764,"o":"m 565 132 l 604 411 l 58 411 l 81 568 l 764 568 l 703 132 l 565 132 z "},"ſ":{"ha":431,"x_min":-106,"x_max":526,"o":"m 17 -197 q -44 -197 -12 -199 q -106 -189 -75 -194 l -92 -82 l -42 -82 q -20 -78 -31 -82 q 0 -67 -10 -74 q 15 -52 8 -60 q 25 -35 22 -44 l 99 486 l 39 486 l 57 611 l 117 611 l 131 711 q 179 824 142 789 q 273 867 217 858 q 392 875 329 875 q 463 869 428 875 q 526 856 497 863 l 492 733 q 441 747 464 744 q 392 750 418 750 q 358 726 368 750 q 344 681 347 701 l 256 54 q 208 -88 243 -35 q 124 -167 174 -142 q 17 -197 74 -192 z "},"◊":{"ha":686,"x_min":42,"x_max":644,"o":"m 275 -47 l 42 406 l 275 857 l 411 857 l 644 406 l 411 -47 l 275 -47 m 343 154 l 461 410 l 346 660 l 226 404 l 343 154 z "},"ł":{"ha":417,"x_min":-15,"x_max":396,"o":"m 38 0 l 68 218 l -15 183 l -3 272 l 81 307 l 160 875 l 376 875 l 310 403 l 396 439 l 383 351 l 299 315 l 254 0 l 38 0 z "},"m":{"ha":808,"x_min":-12,"x_max":817,"o":"m -12 0 l 83 688 l 268 688 l 272 597 q 330 669 292 640 q 413 697 368 697 q 505 675 475 697 q 542 610 535 653 q 598 672 561 647 q 676 697 635 697 q 792 651 768 697 q 804 515 817 606 l 732 0 l 515 0 l 586 507 q 587 528 589 519 q 581 542 585 538 q 568 546 576 546 q 556 545 563 546 q 544 542 549 544 l 468 0 l 251 0 l 322 507 q 323 528 325 519 q 317 542 321 538 q 304 546 313 546 q 292 545 299 546 q 281 542 285 544 l 204 0 l -12 0 z "},"¯":{"ha":310,"x_min":61,"x_max":383,"o":"m 61 772 l 75 879 l 383 879 l 369 772 l 61 772 z "},"̄":{"ha":0,"x_min":61,"x_max":383,"o":"m 61 772 l 75 879 l 383 879 l 369 772 l 61 772 z "},"µ":{"ha":564,"x_min":-19,"x_max":583,"o":"m -19 -179 l 103 688 l 319 688 l 243 146 q 254 142 247 143 q 267 142 261 142 q 281 146 275 142 q 290 159 286 150 q 296 181 294 168 l 367 688 l 583 688 l 511 172 q 484 72 503 113 q 429 10 465 31 q 332 -10 393 -10 q 257 19 288 -10 q 219 90 226 47 l 165 -179 l -19 -179 z "},"−":{"ha":833,"x_min":88,"x_max":631,"o":"m 88 290 l 107 433 l 631 433 l 611 290 l 88 290 z "},"×":{"ha":572,"x_min":21,"x_max":551,"o":"m 396 118 l 272 261 l 108 119 l 21 219 l 186 363 l 61 506 l 178 607 l 300 464 l 465 608 l 551 507 l 388 363 l 510 218 l 396 118 z "},"n":{"ha":544,"x_min":-12,"x_max":547,"o":"m -12 0 l 83 688 l 268 688 l 272 597 q 330 669 292 640 q 413 697 368 697 q 487 685 458 697 q 528 651 515 674 q 544 594 542 628 q 540 515 547 560 l 468 0 l 251 0 l 322 507 q 324 524 324 517 q 322 535 324 531 q 315 543 319 540 q 304 546 311 546 q 297 545 301 546 q 288 544 292 544 q 281 542 283 543 l 204 0 l -12 0 z "},"ń":{"ha":544,"x_min":-12,"x_max":547,"o":"m -12 0 l 83 688 l 268 688 l 272 597 q 330 669 292 640 q 413 697 368 697 q 487 685 458 697 q 528 651 515 674 q 544 594 542 628 q 540 515 547 560 l 468 0 l 251 0 l 322 507 q 324 524 324 517 q 322 535 324 531 q 315 543 319 540 q 304 546 311 546 q 297 545 301 546 q 288 544 292 544 q 281 542 283 543 l 204 0 l -12 0 m 240 764 l 332 911 l 535 911 l 376 764 l 240 764 z "},"ň":{"ha":544,"x_min":-12,"x_max":553,"o":"m -12 0 l 83 688 l 268 688 l 272 597 q 330 669 292 640 q 413 697 368 697 q 487 685 458 697 q 528 651 515 674 q 544 594 542 628 q 540 515 547 560 l 468 0 l 251 0 l 322 507 q 324 524 324 517 q 322 535 324 531 q 315 543 319 540 q 304 546 311 546 q 297 545 301 546 q 288 544 292 544 q 281 542 283 543 l 204 0 l -12 0 m 276 757 l 161 918 l 289 918 l 347 850 l 428 918 l 553 918 l 392 757 l 276 757 z "},"ņ":{"ha":544,"x_min":-12,"x_max":547,"o":"m -12 0 l 83 688 l 268 688 l 272 597 q 330 669 292 640 q 413 697 368 697 q 487 685 458 697 q 528 651 515 674 q 544 594 542 628 q 540 515 547 560 l 468 0 l 251 0 l 322 507 q 324 524 324 517 q 322 535 324 531 q 315 543 319 540 q 304 546 311 546 q 297 545 301 546 q 288 544 292 544 q 281 542 283 543 l 204 0 l -12 0 m 96 -297 q 140 -237 124 -264 q 158 -194 157 -211 q 149 -175 160 -183 q 130 -154 139 -167 q 124 -121 121 -142 q 153 -75 126 -96 q 219 -54 181 -54 q 283 -76 260 -54 q 301 -131 306 -97 q 279 -183 299 -151 q 233 -244 260 -214 q 182 -297 207 -275 l 96 -297 z "},"њ":{"ha":800,"x_min":-14,"x_max":785,"o":"m -14 0 l 83 688 l 300 688 l 264 435 l 314 435 l 350 688 l 564 688 l 533 472 l 643 472 q 712 462 678 472 q 765 419 746 451 q 775 317 785 386 l 763 224 q 731 99 751 144 q 681 33 710 54 q 617 6 651 13 q 542 0 582 0 l 253 0 l 292 272 l 242 272 l 203 0 l -14 0 m 482 110 l 506 110 q 522 114 517 110 q 531 128 528 118 q 536 153 533 138 l 554 286 q 558 320 558 308 q 554 336 558 332 q 539 340 550 340 l 515 340 l 482 110 z "},"↗":{"ha":779,"x_min":-18,"x_max":771,"o":"m 104 69 l -18 192 l 443 646 l 229 639 l 229 786 l 771 854 l 703 311 l 556 311 l 569 525 l 104 69 z "},"↖":{"ha":833,"x_min":56,"x_max":840,"o":"m 718 33 l 264 493 l 272 281 l 125 281 l 56 821 l 600 754 l 600 607 l 385 619 l 840 154 l 718 33 z "},"≠":{"ha":593,"x_min":-11,"x_max":604,"o":"m -11 -35 l 126 165 l 74 165 l 93 308 l 225 308 l 315 439 l 111 439 l 132 582 l 415 582 l 514 725 l 604 725 l 506 582 l 581 582 l 560 439 l 406 439 l 315 308 l 542 308 l 522 165 l 217 165 l 78 -35 l -11 -35 z "},"ñ":{"ha":544,"x_min":-12,"x_max":547,"o":"m -12 0 l 83 688 l 268 688 l 272 597 q 330 669 292 640 q 413 697 368 697 q 487 685 458 697 q 528 651 515 674 q 544 594 542 628 q 540 515 547 560 l 468 0 l 251 0 l 322 507 q 324 524 324 517 q 322 535 324 531 q 315 543 319 540 q 304 546 311 546 q 297 545 301 546 q 288 544 292 544 q 281 542 283 543 l 204 0 l -12 0 m 404 761 q 361 771 381 761 q 324 790 342 781 q 293 806 308 800 q 261 813 278 813 q 231 798 243 813 q 215 763 219 783 l 158 763 q 199 868 167 828 q 276 908 232 908 q 321 901 301 908 q 358 883 340 893 q 389 868 374 875 q 419 861 404 861 q 452 874 442 861 q 468 904 463 888 l 532 904 q 481 797 522 833 q 404 761 440 761 z "},"#":{"ha":1028,"x_min":35,"x_max":993,"o":"m 172 0 l 243 225 l 35 225 l 76 357 l 285 357 l 328 492 l 115 493 l 157 625 l 369 625 l 424 797 l 563 797 l 507 625 l 656 625 l 711 797 l 850 797 l 794 625 l 993 625 l 951 492 l 753 492 l 711 357 l 913 357 l 871 224 l 669 224 l 599 0 l 460 0 l 531 224 l 382 225 l 311 0 l 172 0 m 424 357 l 572 357 l 614 492 l 465 492 l 424 357 z "},"o":{"ha":536,"x_min":1,"x_max":539,"o":"m 218 -11 q 119 -3 163 -11 q 49 30 76 6 q 11 103 21 54 q 13 236 1 153 l 50 504 q 95 622 61 579 q 185 681 129 664 q 318 699 242 699 q 419 689 376 699 q 490 657 463 679 q 528 597 518 635 q 531 504 539 560 l 493 238 q 441 74 478 126 q 348 5 404 21 q 218 -11 292 -11 m 236 114 q 249 117 243 114 q 259 131 254 121 q 265 156 264 140 l 318 532 q 319 558 321 549 q 312 570 317 567 q 300 574 307 574 q 288 570 293 574 q 278 558 282 567 q 271 532 274 549 l 218 156 q 218 131 217 140 q 224 117 219 121 q 236 114 229 114 z "},"о":{"ha":536,"x_min":1,"x_max":539,"o":"m 218 -11 q 119 -3 163 -11 q 49 30 76 6 q 11 103 21 54 q 13 236 1 153 l 50 504 q 95 622 61 579 q 185 681 129 664 q 318 699 242 699 q 419 689 376 699 q 490 657 463 679 q 528 597 518 635 q 531 504 539 560 l 493 238 q 441 74 478 126 q 348 5 404 21 q 218 -11 292 -11 m 236 114 q 249 117 243 114 q 259 131 254 121 q 265 156 264 140 l 318 532 q 319 558 321 549 q 312 570 317 567 q 300 574 307 574 q 288 570 293 574 q 278 558 282 567 q 271 532 274 549 l 218 156 q 218 131 217 140 q 224 117 219 121 q 236 114 229 114 z "},"ó":{"ha":536,"x_min":1,"x_max":539,"o":"m 218 -11 q 119 -3 163 -11 q 49 30 76 6 q 11 103 21 54 q 13 236 1 153 l 50 504 q 95 622 61 579 q 185 681 129 664 q 318 699 242 699 q 419 689 376 699 q 490 657 463 679 q 528 597 518 635 q 531 504 539 560 l 493 238 q 441 74 478 126 q 348 5 404 21 q 218 -11 292 -11 m 236 114 q 249 117 243 114 q 259 131 254 121 q 265 156 264 140 l 318 532 q 319 558 321 549 q 312 570 317 567 q 300 574 307 574 q 288 570 293 574 q 278 558 282 567 q 271 532 274 549 l 218 156 q 218 131 217 140 q 224 117 219 121 q 236 114 229 114 m 232 764 l 324 911 l 526 911 l 368 764 l 232 764 z "},"ǒ":{"ha":536,"x_min":1,"x_max":544,"o":"m 218 -11 q 119 -3 163 -11 q 49 30 76 6 q 11 103 21 54 q 13 236 1 153 l 50 504 q 95 622 61 579 q 185 681 129 664 q 318 699 242 699 q 419 689 376 699 q 490 657 463 679 q 528 597 518 635 q 531 504 539 560 l 493 238 q 441 74 478 126 q 348 5 404 21 q 218 -11 292 -11 m 236 114 q 249 117 243 114 q 259 131 254 121 q 265 156 264 140 l 318 532 q 319 558 321 549 q 312 570 317 567 q 300 574 307 574 q 288 570 293 574 q 278 558 282 567 q 271 532 274 549 l 218 156 q 218 131 217 140 q 224 117 219 121 q 236 114 229 114 m 268 757 l 153 918 l 281 918 l 339 850 l 419 918 l 544 918 l 383 757 l 268 757 z "},"ô":{"ha":536,"x_min":1,"x_max":539,"o":"m 218 -11 q 119 -3 163 -11 q 49 30 76 6 q 11 103 21 54 q 13 236 1 153 l 50 504 q 95 622 61 579 q 185 681 129 664 q 318 699 242 699 q 419 689 376 699 q 490 657 463 679 q 528 597 518 635 q 531 504 539 560 l 493 238 q 441 74 478 126 q 348 5 404 21 q 218 -11 292 -11 m 236 114 q 249 117 243 114 q 259 131 254 121 q 265 156 264 140 l 318 532 q 319 558 321 549 q 312 570 317 567 q 300 574 307 574 q 288 570 293 574 q 278 558 282 567 q 271 532 274 549 l 218 156 q 218 131 217 140 q 224 117 219 121 q 236 114 229 114 m 131 757 l 290 918 l 406 918 l 522 757 l 397 757 l 338 829 l 258 757 l 131 757 z "},"ố":{"ha":536,"x_min":1,"x_max":807,"o":"m 218 -11 q 119 -3 163 -11 q 49 30 76 6 q 11 103 21 54 q 13 236 1 153 l 50 504 q 95 622 61 579 q 185 681 129 664 q 318 699 242 699 q 419 689 376 699 q 490 657 463 679 q 528 597 518 635 q 531 504 539 560 l 493 238 q 441 74 478 126 q 348 5 404 21 q 218 -11 292 -11 m 236 114 q 249 117 243 114 q 259 131 254 121 q 265 156 264 140 l 318 532 q 319 558 321 549 q 312 570 317 567 q 300 574 307 574 q 288 570 293 574 q 278 558 282 567 q 271 532 274 549 l 218 156 q 218 131 217 140 q 224 117 219 121 q 236 114 229 114 m 131 757 l 290 918 l 406 918 l 522 757 l 397 757 l 338 829 l 258 757 l 131 757 m 513 853 l 604 1000 l 807 1000 l 649 853 l 513 853 z "},"ộ":{"ha":536,"x_min":1,"x_max":539,"o":"m 218 -11 q 119 -3 163 -11 q 49 30 76 6 q 11 103 21 54 q 13 236 1 153 l 50 504 q 95 622 61 579 q 185 681 129 664 q 318 699 242 699 q 419 689 376 699 q 490 657 463 679 q 528 597 518 635 q 531 504 539 560 l 493 238 q 441 74 478 126 q 348 5 404 21 q 218 -11 292 -11 m 236 114 q 249 117 243 114 q 259 131 254 121 q 265 156 264 140 l 318 532 q 319 558 321 549 q 312 570 317 567 q 300 574 307 574 q 288 570 293 574 q 278 558 282 567 q 271 532 274 549 l 218 156 q 218 131 217 140 q 224 117 219 121 q 236 114 229 114 m 203 -203 q 143 -180 167 -203 q 119 -124 119 -157 q 143 -68 119 -90 q 203 -46 167 -46 q 260 -68 238 -46 q 283 -124 283 -90 q 260 -180 283 -157 q 203 -203 238 -203 m 131 757 l 290 918 l 406 918 l 522 757 l 397 757 l 338 829 l 258 757 l 131 757 z "},"ồ":{"ha":536,"x_min":1,"x_max":689,"o":"m 218 -11 q 119 -3 163 -11 q 49 30 76 6 q 11 103 21 54 q 13 236 1 153 l 50 504 q 95 622 61 579 q 185 681 129 664 q 318 699 242 699 q 419 689 376 699 q 490 657 463 679 q 528 597 518 635 q 531 504 539 560 l 493 238 q 441 74 478 126 q 348 5 404 21 q 218 -11 292 -11 m 236 114 q 249 117 243 114 q 259 131 254 121 q 265 156 264 140 l 318 532 q 319 558 321 549 q 312 570 317 567 q 300 574 307 574 q 288 570 293 574 q 278 558 282 567 q 271 532 274 549 l 218 156 q 218 131 217 140 q 224 117 219 121 q 236 114 229 114 m 131 757 l 290 918 l 406 918 l 522 757 l 397 757 l 338 829 l 258 757 l 131 757 m 553 853 l 425 1000 l 628 1000 l 689 853 l 553 853 z "}}}
